<svg xmlns="http://www.w3.org/2000/svg" width="266" height="518" viewBox="0 0 266 518"><defs><style>.cls-1 {fill-rule: evenodd;opacity: 0.05;}</style></defs><path id="Фигура_1" data-name="Фигура 1" class="cls-1" d="M9.22,267.652v-7.264H9.986a5.206,5.206,0,0,1,2.127.416,4.979,4.979,0,0,1,1.572,1.379l4.641,5.469h9.81l-4.2-5.186a8.034,8.034,0,0,0-1.216-1.112,7.927,7.927,0,0,0-1.389-.941,11.505,11.505,0,0,0-2.26-.659,14.676,14.676,0,0,0,3.049-.708,7.16,7.16,0,0,0,2.742-1.752,3.66,3.66,0,0,0,1-2.57,3.781,3.781,0,0,0-1.3-2.9,7.1,7.1,0,0,0-3.431-1.629,32.472,32.472,0,0,0-6.152-.44H0.5v17.9H9.22Zm0-14.283h3.814a7.659,7.659,0,0,1,3.239.464,1.45,1.45,0,0,1,.862,1.331,1.324,1.324,0,0,1-.546,1.037,2.684,2.684,0,0,1-1.409.562,20,20,0,0,1-2.3.244H9.22v-3.638Zm29.709,14.283h8.7v-17.9h-8.7v17.9Zm31.215,0v-7.264H70.91a5.207,5.207,0,0,1,2.127.416,4.977,4.977,0,0,1,1.572,1.379l4.641,5.469h9.81l-4.2-5.186a8.032,8.032,0,0,0-1.216-1.112,7.927,7.927,0,0,0-1.389-.941,11.507,11.507,0,0,0-2.26-.659,14.676,14.676,0,0,0,3.049-.708,7.161,7.161,0,0,0,2.742-1.752,3.66,3.66,0,0,0,1-2.57,3.781,3.781,0,0,0-1.3-2.9,7.1,7.1,0,0,0-3.431-1.629,32.472,32.472,0,0,0-6.152-.44H61.424v17.9h8.72Zm0-14.283h3.814a7.66,7.66,0,0,1,3.239.464,1.45,1.45,0,0,1,.862,1.331,1.323,1.323,0,0,1-.546,1.037,2.683,2.683,0,0,1-1.409.562,20,20,0,0,1-2.3.244h-3.66v-3.638ZM99.85,267.652h7.11V254l5.468,13.648h6.436L124.342,254v13.648h7.111v-17.9H120.042l-4.372,10.889-4.4-10.889H99.85v17.9Zm43.385,0h23.688V263.6H151.936v-3.528h13.512v-3.65H151.936v-2.844H166.5v-3.821H143.235v17.9Zm35.473,0h8.337v-4.981h-8.337v4.981Zm20.12,0h8.682v-4.367L212,260.292l5.923,7.36h10.692L217.9,256.511l10.253-6.755H216.6l-9.094,6.763v-6.763h-8.682v17.9Zm43.086-14.075h14.093L240.4,263.941v3.711h26.659v-3.846H250.712l15.772-10.473v-3.577h-24.57v3.821ZM24.207,273.16A240.334,240.334,0,0,0,53,372.454h78.605a409.475,409.475,0,0,1-14.977-99.574h23a385.878,385.878,0,0,0,15.879,99.574h91.606L247,273h24l-0.12,99.454H356.8A401.455,401.455,0,0,0,372.676,270.88L279,271V247l93.676,0.12A401.488,401.488,0,0,0,356.727,145.3H270.88L271,245H247l0.121-99.7H155.585a385.908,385.908,0,0,0-15.949,99.822h-23A409.479,409.479,0,0,1,131.678,145.3H53.146a230.5,230.5,0,0,0-29.1,99.884c-8.492,0-19.088-.01-23.709-0.01C7.551,108.751,120.809-.024,259-0.024c142.83,0,259.024,116.2,259.024,259.024S401.83,518.024,259,518.024c-138.08,0-251.267-108.6-258.642-244.868C4.7,273.156,15.638,273.16,24.207,273.16Zm469.728-2.28H395.678a425.869,425.869,0,0,1-14.963,101.574h84.272A233.578,233.578,0,0,0,493.934,270.88ZM450.5,395.431H373.65a372.811,372.811,0,0,1-43.128,87.683A236.219,236.219,0,0,0,450.5,395.431Zm-154.45,95.89c22.5-28.257,40.343-60.705,53.18-95.89H270.88v98.494A237.409,237.409,0,0,0,296.052,491.321Zm-48.931,2.62v-98.51H163.093a341.866,341.866,0,0,0,52.257,94.708A237.7,237.7,0,0,0,247.121,493.941Zm-66.99-13.318a373.5,373.5,0,0,1-41.5-85.192H67.519A236.364,236.364,0,0,0,180.131,480.623ZM67.7,122.322h71.017a373.521,373.521,0,0,1,41.4-84.937A236.353,236.353,0,0,0,67.7,122.322ZM247.121,24.06a237.7,237.7,0,0,0-31.781,3.8,341.877,341.877,0,0,0-52.156,94.459h83.937V24.06Zm23.759,0.015v98.246h78.261c-12.828-35.086-30.63-67.449-53.077-95.64A237.5,237.5,0,0,0,270.88,24.076Zm59.648,10.814a372.961,372.961,0,0,1,43.037,87.433H450.33A236.21,236.21,0,0,0,330.528,34.889ZM464.853,145.3H380.64A425.768,425.768,0,0,1,395.678,247.12h98.256A233.57,233.57,0,0,0,464.853,145.3Z"/></svg>
