<svg id="Слой_1" data-name="Слой 1" xmlns="http://www.w3.org/2000/svg"  width="155.85" height="762.85" viewBox="0 0 155.85 762.85"><defs><style>.cls-1 {fill: #ddd;}</style></defs><title>bg_info</title><path id="bg_info" data-name="bg info" class="cls-1" d="M76.07,697.58l-.8,11.11q0,15.91,10,20.42h68.57v33.74H45.54V731.21l13.92-1.1q-15.91-8.5-15.92-23.72a33.21,33.21,0,0,1,1.2-9.41Zm77.78-47.75v33.84H45.54V649.83ZM17.62,685.67a15,15,0,0,1-11.81-5.21q-4.6-5.21-4.6-13.51t4.6-13.51a15.07,15.07,0,0,1,11.81-5.21,15.08,15.08,0,0,1,11.81,5.21Q34,658.65,34,667t-4.6,13.51A15.05,15.05,0,0,1,17.62,685.67ZM76.07,563.55l-.8,11.11q0,15.93,10,20.42h68.57v33.73H45.54V597.18l13.92-1.1q-15.91-8.51-15.92-23.72a33.21,33.21,0,0,1,1.2-9.41Zm-30.53-44,12.72-1.1q-14.71-11.5-14.72-30.93,0-20.52,16.32-27.73-16.32-11-16.32-31.83,0-32.93,39.84-33.83h70.47v33.83H85.48q-8.31,0-12.11,2.8t-3.8,10.21q0,10,8.91,14.91l1.4-.1h74v33.84H85.68q-8.5,0-12.31,2.7t-3.8,10.31q0,9.71,8.91,14.81h75.37v33.74H45.54Zm110.31-197.1q0,24.93-14.86,40.34T102.3,378.17H99.5q-16.62,0-29.33-6.16A45,45,0,0,1,50.5,354q-7-11.81-7-28,0-22.83,14.16-36T97.2,276.77h13.11v67.07q9.1-1.8,14.32-7.91t5.2-15.82q0-16-11.21-25l18.22-15.42q8.7,6.31,13.86,17.87A60.32,60.32,0,0,1,155.85,322.41Zm-86.28,3.8q0,14.82,19.62,17.62v-34h-2.6q-8.11-.19-12.57,4.1t-4.45,12.32Zm51.55-83.88A19.17,19.17,0,0,1,125.87,229a16.61,16.61,0,0,1,24.33,0,21,21,0,0,1,0,26.68,16.6,16.6,0,0,1-24.23,0,19.07,19.07,0,0,1-4.8-13.36Zm-7.61-84.58,9.51,9.51h30.83V201H0V167.26H81.68l-4.5-3.4L45.55,138.44V98l44.54,37.93,63.76-40.44v38.64Zm14.32-108.4V0h26V92H135l-63.46-48v46h-26V1.1H63.76Z" transform="translate(0 0)"/></svg>
