<svg id="Слой_1" data-name="Слой 1" xmlns="http://www.w3.org/2000/svg" viewBox="0 0 723.65 394.28"><defs><style>.cls-1 {fill: #fff;opacity: 0.09;isolation: isolate;}</style></defs><title>bg_map</title><path id="bg_map" data-name="bg map" class="cls-1" d="M383.05,13c1.38-11.24,21.43-17.43,29-9.37,3.25,3.45,4.4.68,7.85-1.92,3.72-2.82,6.83,3.16,8.53,6.36s2.91,6.28,4.69,9.26a129.28,129.28,0,0,1-3.84,15.52c1.3-.9,2.59-1.8,3.9-2.69,2-1.37,4.13,1.26,6,2.53.3-1.93.6-3.83.87-5.77,1.64.39,3.29.74,4.94,1.12.1-2,.21-3.94.31-5.91,5.9,2.7,5.64,9.29,5.49,14.7.88-.19,3.72-.3,4.28-.92-.28-2.89-.6-5.79-.87-8.69,2.8,1.5,5.47,3.18,8.28,4.65,3.75,2,7.8-1.79,11.37-3.45-2.66,6-9.6,11.24-4.48,18,1.58-1.56,3.14-3.14,4.7-4.72,1.89-1.92,6-.8,8.65-.71q-.74,2.73-1.46,5.45c3,.19,4.92-1.22,4.75-4.26-.24-4.25.43-4.38,4.61-6.31,6.3-2.91,11.06-6.79,16.26-11.21A14,14,0,0,0,512,16.5c2.05-.55,3.87-1.78,5.89-2.45,1.84-.62,3.52-.39,3.67,1.85.2,3-4.92,5.46-7.2,7.23,4.77,6.2,12.63,8.48,19.2,12.3,7.35,4.28,13.47,10.66,18.92,17C565,67.17,576.11,82.93,588.15,98c4.75-4.29,7-10.36,9.32-16.07a114.74,114.74,0,0,1,14.82,9c4.05,3,3.89,2.92,8.7,1.24a59.29,59.29,0,0,1,10-2.61c4.7-.79,8-7.38,11.58-10.65a48.64,48.64,0,0,1,16.08,6.58c4.12,2.77,7.1,9,11.64,9.82,3.7.65,7.42.55,9.92,3.39,2.15,2.45,4.33,4.83,6.5,7.23,2.79,3.09,14.44,2.63,17.49-.85s2.56-8.44,4.33-12.39c4.14,1.11,3,4.8,2.08,7.82,4.29,2.79,8.55,5.66,13,8.16-2.23,1.68-4.42,3.41-6.6,5.14,3.16,3,5.62,4,4.15,8.51a19.36,19.36,0,0,1-4.57,7.65c-5.33,5.35-15.44,6.74-12.25,16.41,1.92,5.86,6.55,10.44,8.35,16.35,2.24,7.41-10.28,15.4-15.07,20.2-.14-2.07-.28-4.12-.43-6.18-4.72,1.39-9.05,3.92-13.9,4.92s-8.68-.91-13.25-1.75c-3.24-.6-3.63-1.77-4.36,1.94-.51,2.65-.9,5.32-1.19,8-.57,5.35-.79,10.73-1,16.1s-.38,10.77-.92,16.11c-.64,6.46,9.37,2.42,8.78,8.62-.29,3,.84,4.93-2.73,4.84a31.11,31.11,0,0,0-6.61.37c-2.27.44-3.45,2.12-5.24.43-1.21-1.17-2.44-2.32-3.65-3.46-8.67,10-22.72,11.61-34,17.35.89,1.62,1.79,3.25,2.67,4.88,2.56-1.11,5.12-2.2,7.72-3.24,1,4.23,4.43,8.73,4.55,12.84.06,1.87.11,3.73.16,5.6q3.35,3.29,6.35,6.88a73.88,73.88,0,0,1,7.9,11.49c1.5,2.74,3.25,3.6,0,5.22-2.8,1.36-5.56,2.81-8.25,4.38q5.87,1.05,11.74,2c-3.51,3.05-8.28,3.7-12.79,3.94q2.58,6.92,4.94,13.9c-2.37-.69-4.72-1.34-7.09-2-3-.85-5.13.52-8.23.23a11.52,11.52,0,0,1-6.67-3c-2.78-2.57-1.67-5.18-5.86-4.22-14,3.2-28.59,2.13-42.74,4.46-5.68,1.81-11.52,3-17.28,4.55-6.75,1.78-12.07,4.82-19.16,3.38-6.2-1.26-11.91-4.07-17.55-6.76-4.68-2.25-4.6-1.82-7.25,2.64-1.95,3.29-2.64,2.14-6.11,1.38-.83,5.68-1.49,11.37-1.89,17.1-10.57-1.54-21.12-3.27-31.77-4.29-4.15-.4-13-2.58-16.09.51a7.41,7.41,0,0,0-.9,10c-2.61-.1-5.23-.24-7.86-.34,2.54,1.1,5.09,2.2,7.62,3.32a41.64,41.64,0,0,1-9.16,4.43c-3.67,1.2-2.86,4.09-5.42,6.85-3.48,3.77-8.86,5.13-13.56,6.79-6.56,2.3-10.28,8.3-14.94,13.25-5.55,5.88-5.8,8-4.64,15.73.53,3.56-3.93,1.72-6,.81-3.89-1.74-5.91-1.63-5.75-5.92.16-3.93-.67-3.76-4.23-5.67-4.95-2.69-7.12-1.49-12.61-.67a62.18,62.18,0,0,1-11.24.69c-2.3-3.38-3.43-7.31-4.33-11.23-.73-3.15-1.31-6.34-2.25-9.45-4-.16-8.05-.31-12.09-.42.43-8.9,4.05-17.48,3.33-26.46-3.67.1-6.8,1.41-8.26-2.1a47.87,47.87,0,0,0-7.64-12.12c-2.57-3.08-5.38-6-8.15-8.89a19.17,19.17,0,0,1-12,4.69c-8.29.4-16.29-2.91-24.57-2.51-6.6.34-18.45,5.66-23.9,1.13a91.86,91.86,0,0,1-17.36-19.9c-2.13-3.2-3.83-7-6.62-9.7a57.35,57.35,0,0,0-5.37-4.23c-.12-2.76-.16-5.52-.17-8.29,0-4.6.06-9.19,0-13.79-3.58-.08-7.14-.1-10.7-.13a26.54,26.54,0,0,1,16-13.45,37.89,37.89,0,0,0-11.88-.55,7.6,7.6,0,0,0-4.79-8.95c1.24,4.6,2.67,9.41,1.65,14.19-.82,3.85-5.91,2.94-9.43,3.33.86-2.56,1.69-5.12,2.51-7.67-4,.47-8.15,1.26-11.47,3.6a12.89,12.89,0,0,0-4,4.56l-8.59,2c-12.4,2.92-24.82,5.79-37.35,8.17-3.86.73-5.6-.3-6.16,3.88-.36,2.82-.73,5.63-1.1,8.45q-1.08,8.47-2.17,16.93c-1.58,12.22-3.2,24.43-5.05,36.62q-1.27,8.43-2.73,16.84c-.49,2.8-1,5.61-1.52,8.4-.76,4-2.09,3.12-5.77,4.07-3.35.87-4.39,2.18-7-.32q-2.76-2.61-5.42-5.33c-2-2.06-3.38-2.65-3.21-5.49a10.2,10.2,0,0,0-1.74-6.3c-3.94-5.86-14.17-10.82-21.17-11.18-10.26-.56-19,6.55-27.75,10.65-.82-5.91,1.47-11.37,4.13-16.54,1.88-3.64,3.13-10.35,7.72-11.33-4-1.75-15.72-4.2-17.1-8.1-1.74-4.9-5.15-8.7-10.89-7.88q1.27-3,2.58-6c1.19-2.74-2-7.84-2.91-10.73-1.27-4-2.31-8-3.27-12.1-.88-3.78-4.13-2.77-7.78-3.15-2.73-.28-2-4.72-1.71-7.06.6-5.21,3.58-4.6,7.91-3.46a18.8,18.8,0,0,1,9.09,5.23c2.55,2.76,6.9,2.1,10.68,2.41-3.91-2.35-11.17-8.68-7.49-13.07,2.08-2.5,4.07-5.06,6.12-7.6q1.53-1.9,3.1-3.76a72.2,72.2,0,0,0,7.37,2c13.93,3.11,26.84,7.64,41.1,8.86-8.33,7.46-19,14-22.9,24.92a66.14,66.14,0,0,0,13-11.89c4.2-4.86,9.68-6.34,16.32-4.67-.14-2.72-.24-5.45-.33-8.18l6-.87c-2-1.26-3.67-3.13-5.9-4.06-2.74-1.17-6.76.63-9.86.5-7.09-.34-14.4-.94-20.81-4.19,5.56-4.59,9.54-10.65,13.5-16.54-1.64-.62-3.29-1.22-4.93-1.85l8.44-6.28c-2.93-.34-5,.43-5.32-2.6l6.21.1c-.42-5.62-5.92-8-9.78-11.21-3.15.71-6.28,1.44-9.41,2.28-3.41.92-4.6-1.39-7.1-3.61-.3,3.47.74,7.18-3.06,7.69.36-4.26,2.52-9.69-3-11.1-3.87-1-7.87.44-11.78.47-10,1.2-20.24,4.07-28.4,10.14-2.21-3.17-2.71-3.68-6.17-5a16.56,16.56,0,0,1-7.45-5.15,7.57,7.57,0,0,1-1.13-8c3,.69,6,1.37,9,2-1.59-7.4-3-15-6.57-21.82a27.48,27.48,0,0,0-6.86-8.69c-4.27-3.51-6.46-4.08-11.34-1.92-.1-3.47,0-7,0-10.42,0-4.3-4.28-6.4-7.42-9.07-3.35-2.85,2.27-6.53,4.92-8.95,3.09-2.82,6.42-5.35,9.78-7.87-4.48-4.73-3.53-11.63,1.09-15.89,2.54-2.35,5.94-3.49,8.61-5.73,3.36-2.82,6.07-6.3,8.87-9.64a95.05,95.05,0,0,1,6.44,14.61c1.17,3.35.29,5.24,4.38,5,2.73-.16,5.44-.51,8.16-.72-.84-6.7-1.67-13.4-2.66-20.08,3.63,2.2,7.81,1.76,11.77.84,2.31-.52,4.77-.07,4.76-2.71,0-1.78,0-3.55,0-5.33,6.3.1,13.46,0,18.9-3.53,3.1-2,4.39-5,7.59-6.89,2.57-1.51,2.29-2.07,5.16-.51q3.36,1.83,6.75,3.64c-.93,1.5-1.89,3-2.85,4.48,2,.77,4.1,1.51,6.15,2.27.47-1.81,1-3.6,1.42-5.4q5.35-.87,10.62-2.2c.44,2.6.9,5.18,1.38,7.76.69,3.72,2,2.64,5.4,2.8,3.72.19,7.83.53,11,2.73a9.2,9.2,0,0,1,3,3.64c1.21,2.6,3.36,4,5.26,6.22,3.76,4.39,6.18,9.9,4.86,15.67,4.76.77,2.56-5.38,4.6-8.49,2-3,5.49-.08,8.23,1.1.3,2.92,1.85,5.45,3.61,7.75,2.25,2.93,2.15,3.7,5.52,2.13s2-1.83,3.25-5c1.71-4.23,7.88-5.14,11.87-5.4,3.14-.22,6.27-.52,9.42-.72a13.18,13.18,0,0,0,4.84,6.16c2.55,1.55,5.1.62,6.9-1.53,2.36-.77,4.72-1.51,7.08-2.27,3.11,3.73,5.74,8.88,9.7,11.7a16.57,16.57,0,0,0,7.34,2.86c3.25.43,4.83,2.86,7.15,5.13a106,106,0,0,0,6.87-12.27c2.7,11.42,15.82,8.1,23.63,4.26,2.5-1.22,2.08-6.08,2.52-8.66.71-4.19-4.36-4.74-7.76-7-6.44-4.29-11.93-9.77-18.44-14,5.44-.86,10.37-3.41,14.85-6.45,2.84-1.93,6.51-2.86,4.2-6.1q-2.82-3.94-5.62-7.91l6.92-2.92c.61-1.93,1.2-3.85,1.81-5.77,6.59-1.19,12.09,2.71,17.25,6.09,5.07-7.77-13.85-10.39-17.49-10.86,2.49-3.21,6.29-5,9.9-6.67-3.78-.45-7.56-.86-11.35-1.32,1.57-5.28,2.74-11.39,8.16-14.26.53,1.56,1,3.12,1.54,4.68,3-.38,5.92-.73,8.89-.9,2.08.4,4,1.33,6,1.84,3.08.76,5.72-1.84,8.5-3,10-4.3,20.82-4.85,31.56-5.9,2.6-.26,2.94.43,3.45-2.08a7,7,0,0,1,3.4-4.64c3.18-1.89,7.23-2.14,10.86-2.2,11.3-.26,21-7.39,32.09-7.81M661.7,132.4c.37,6.53,1.1,13.26,4.48,19.06-3.59,1.18-7.1,2.53-10.63,3.88,6.16,2.33,12.7,2.56,19.09,3.8s13.4,2.28,19.53-.72c-7.38-5-17.17-3.4-24.77-7.93,1.61-1.22,3.8-2.12,4.24-4-8.26,1-9.85-8.34-11.94-14.06m-38.14,71.3c3.31,3.6,13,6.67,13.78-.37A129.34,129.34,0,0,0,623.56,203.69Zm20.16,2.53c-1.16,3.56-3.81,7.45-.46,9.83q3.13,2.22,6.21,4.49c2.85-.25,5.7-.42,8.55-.55-2.1-6.78-7-12.37-14.3-13.77m-57.14,5.32c-.84,2.15-1.64,4.33-2.36,6.51a21.86,21.86,0,0,0-11.49-2.28c-4.48.31-9.18,3.58-13.37,2.9s-8.22.83-12.5.19c-2.66-.38-5.28-1-7.92-1.45-3.61-.65-3.9.86-6.18,3.37-2.82,3.1-5.29.76-9-.26-4.68-1.31-6.62.33-9.7,3.53-2.93,3-6.37,5.61-8.9,9a15.84,15.84,0,0,0-2.77,5.61c-1.43-.21-2.86-.4-4.28-.57-.2,5.21-3.42,14.77,0,18.94,4.07,5,9.52,8.81,13.46,14-.81-3.13-1.62-6.25-2.42-9.39-1.07-4.14-.35-5.64.27-9.74a34,34,0,0,0-.34-10.41c4.12-1.05,8.17-2.31,12.26-3.44-2.26-5.35-3.28-7.34,2.51-10.29,3.63-1.83,7.7-2.46,11.71-2.86a107.31,107.31,0,0,0,12.37-1.48c5.17-1.13,6.58-1.77,11.73-.22a31.31,31.31,0,0,1,14.06-1.72c3.38.3,9,2,12.22.68,2.29-1,1.47-2.17,4.16-2.64a10.1,10.1,0,0,0,4.54-1.93c3.14-2.42,4.27-6.47,4.2-10.24-4.07,1.4-8,3.19-12.25,4.22m-346,15.57a69.68,69.68,0,0,0-4.6,6.7c2.33,1.84,5.33,2.28,8.23,2.44a59.33,59.33,0,0,1,6.65.5c.54,2,1.09,4,1.63,6,4-.8,7-3.7,9.8-6.44-4-1.36-9.55-1.32-11.18-6-5.65.86-6.4.64-10.53-3.21M571.21,290c12.39,5.68,25.62-2.2,37.63-5.47-12.63,1-25.38,2.42-37.63,5.47Z" transform="translate(0.01 0)"/></svg>
