<svg version="1.1" xmlns="http://www.w3.org/2000/svg" xmlns:xlink="http://www.w3.org/1999/xlink">
	<symbol id="globe_" viewBox="0 0 62 64">
		<path id="globe" transform="translate(-25.943 -9.999)" d="M54.4,10c-3.9,0.3-7.8,1.4-11.3,3.1c-6.5,3.1-11.8,8.3-14.9,14.7 c-1,2.1-2.4,5.8-2.2,6c0.7,0.1,1.4,0.1,2.2,0.1l2,0l0.5-1.4c0.6-1.7,1.4-3.3,2.2-4.8c1-1.6,0.6-1.5,2.9-1c1.1,0.2,2.8,0.5,3.8,0.7 s1.8,0.3,1.8,0.3c-0.1,0.5-0.2,1-0.3,1.5c-0.2,0.8-0.5,2.5-0.5,2.5l2.1,0l2.1,0c0.1-0.6,0.3-1.5,0.5-2.2l0.3-1.3l1.4,0.1 c6.5,0.5,13.1,0.5,19.7,0l1.4-0.1l0.3,1.3c0.2,0.7,0.2,1.5,0.3,2.1l2.1,0l2.1,0c-0.1-0.7-0.1-1.6-0.3-2.4c-0.1-0.5-0.2-1-0.3-1.5 c0,0,0.9-0.2,1.8-0.3s2.7-0.5,3.8-0.7c2.3-0.5,1.9-0.6,2.9,1.1c0.9,1.5,1.6,3.1,2.2,4.8l0.5,1.3l2,0c0.7,0,1.4,0,2.2-0.1 c0.2-0.2-1.2-4-2.2-6c-4.7-9.5-13.7-16-24.2-17.6C59.1,10,56.7,10,54.4,10z M58.8,14.5c2.2,0.8,4.4,3,6.1,6c0.7,1.1,1.2,2.2,1.6,3.4 c-0.3,0.3-10.4,0.5-15.1,0.3c-1.9-0.1-3.7-0.2-3.9-0.2L47.1,24l0.9-1.8c2.2-4.5,4.7-7.1,7.6-7.9C56.7,14,57.8,14.1,58.8,14.5z M45.9,17.3c-1,1.7-1.9,3.5-2.7,5.3c-0.1,0.3-0.2,0.6-0.4,0.9c-1.5-0.1-2.9-0.2-4.3-0.6l-1.7-0.3l0.6-0.6c1.3-1.3,2.7-2.4,4.2-3.4 c1.6-1,3.3-1.9,5-2.6C46.4,16.5,46.2,16.9,45.9,17.3L45.9,17.3z M70.2,17.5c2.3,1.2,4.3,2.8,6.2,4.6l0.6,0.6L75.2,23 c-1.4,0.3-2.9,0.5-4.3,0.6c-0.2-0.4-0.4-0.8-0.5-1.2c-0.7-1.8-1.6-3.5-2.6-5.1c-0.4-0.6-0.7-1.2-0.7-1.2 C68.1,16.5,69.2,17,70.2,17.5L70.2,17.5z M28.8,36.3c0.1,0.2,0.3,1,2.5,7.6l1.2,3.8h3.3l0.2-0.7c0.1-0.4,0.6-1.6,1-2.8 c0.2-0.7,0.5-1.4,0.8-2.1c0,0.1,0.5,1.3,1,2.8l1,2.8h3.4l1.8-5.7c1-3.1,1.8-5.7,1.8-5.8c-0.6-0.1-1.3-0.1-1.9-0.1 c-1.7,0-1.9,0-2,0.2c-0.5,1.7-1.5,5.3-1.6,5.3s-0.5-1.2-1-2.7l-0.9-2.8h-3.3L35.3,39c-0.5,1.6-1,2.8-1,2.7s-0.4-1.2-0.8-2.6 s-0.7-2.6-0.8-2.7c-0.1-0.2-0.3-0.2-2.1-0.2C29.1,36.2,28.7,36.2,28.8,36.3z M48.4,38.3c0.4,1.2,1.2,3.8,1.9,5.8l1.2,3.7l1.7,0 l1.7,0l1-2.8c0.3-0.9,0.7-1.8,1.1-2.7c0.4,0.9,0.7,1.8,1,2.7l1,2.8l1.7,0l1.7,0l1.1-3.3c0.6-1.8,1.4-4.5,1.9-5.8l0.8-2.5h-3.9 l-0.7,2.4c-0.4,1.3-0.7,2.6-0.8,2.8c-0.1,0.4-0.2,0.3-1.1-2.3l-0.9-2.8l-1.7,0l-1.7,0l-0.9,2.7c-0.5,1.5-0.9,2.7-1,2.7 c-0.3-0.6-0.5-1.3-0.6-1.9c-0.3-1-0.7-2.3-0.8-2.7l-0.2-0.8h-4L48.4,38.3z M66.8,36.3c0,0.1,0.8,2.7,1.8,5.8l1.8,5.7h3.4l1-2.8 c0.5-1.5,1-2.8,1-2.8c0.4,0.9,0.8,1.8,1.1,2.7l1,2.8l1.7,0l1.7,0l0.5-1.5c0.8-2.4,3.2-9.8,3.3-10c0.1-0.1-0.3-0.2-1.9-0.1l-2,0 L80.6,38c-0.3,1-0.7,2.2-0.8,2.8l-0.3,1L78.5,39l-0.9-2.8h-3.3l-0.9,2.7c-0.5,1.5-0.9,2.7-1,2.7s-0.4-1.2-0.8-2.7l-0.8-2.7l-2,0 C68.1,36.2,67.5,36.2,66.8,36.3z M26,50.1c-0.2,0.3,1.3,4.1,2.3,6.2c1.6,3.3,3.7,6.2,6.3,8.7c4.4,4.3,9.9,7.2,15.9,8.4 c12.7,2.6,25.7-2.8,32.9-13.6c1.1-1.8,2.1-3.7,3-5.6c0.5-1.3,1-2.7,1.3-4.1C87.1,50,86.3,50,85.6,50h-2.1l-0.4,1.3 c-0.7,1.8-1.5,3.6-2.5,5.3c-0.3,0.5-0.6,1-0.6,1c-0.7-0.1-1.4-0.2-2-0.3c-1.1-0.2-2.8-0.5-3.8-0.7s-1.8-0.3-1.9-0.3 c0-0.6,0.1-1.1,0.2-1.7c0-0.5,0.1-2.1,0.2-3c-0.7,0-1.4-0.1-2.1,0l-1.9,0c0,1-0.1,2-0.3,2.9L68,55.8l-1.4-0.1 c-4.4-0.3-5.9-0.3-9.8-0.3s-5.4,0.1-9.8,0.3l-1.5,0.1l-0.3-1.3c-0.2-1-0.3-2.3-0.4-3l-2,0c-0.7,0-1.4,0-2.1,0.1 c0.1,1.1,0.2,2.3,0.5,3.4c0.1,0.4,0.2,0.8,0.2,1.3c0,0-1,0.2-2.2,0.4s-2.9,0.5-3.7,0.7s-1.6,0.3-1.6,0.3c-0.8-1.1-1.5-2.3-2.1-3.5 c-0.4-0.7-0.9-2-1.1-2.7l-0.5-1.4l-2.1,0C27.4,50,26.7,50,26,50.1z M62.8,59.7c3.1,0.2,3.7,0.2,3.7,0.4c-0.6,1.6-1.4,3-2.3,4.5 c-2.5,3.8-5.5,5.7-8.2,5.2c-2.3-0.4-4.5-2.2-6.5-5.2c-0.9-1.4-1.7-2.9-2.3-4.5c0-0.1,0.2-0.2,0.6-0.2C52.8,59.5,57.8,59.5,62.8,59.7 z M43.3,61.6c0.7,1.7,1.5,3.4,2.5,5c0.3,0.4,0.5,0.8,0.7,1.2c-1.6-0.6-3.2-1.4-4.6-2.4c-1.5-1-2.9-2.1-4.2-3.4l-0.7-0.8l1.7-0.3 c1.9-0.3,4.1-0.6,4.2-0.6C42.9,60.8,43.1,61.2,43.3,61.6z M72.6,60.6c0.5,0.1,1.7,0.3,2.6,0.4l1.7,0.3L76.2,62 c-2.6,2.5-5.6,4.4-8.9,5.7c0.2-0.4,0.4-0.8,0.7-1.2c1.2-1.9,2.2-3.9,2.9-6c0.1-0.2,0.2-0.2,0.4-0.2C71.5,60.4,72.1,60.5,72.6,60.6 L72.6,60.6z"/>
	</symbol>
	<symbol id="trang-down_" viewBox="0 0 114 64">
		<path id="trang-down" d="M111.667-3.317a6.834,6.834,0,0,1,2.111,5,6.834,6.834,0,0,1-2.111,5L61.889,56.46a6.977,6.977,0,0,1-10,0L2.111,6.683A6.834,6.834,0,0,1,0,1.683a6.834,6.834,0,0,1,2.111-5,6.834,6.834,0,0,1,5-2.111h99.556A6.834,6.834,0,0,1,111.667-3.317Z" transform="translate(0 5.428)"/>
	</symbol>
	<symbol id="arr-left_" viewBox="0 0 46 64">
		<path id="arr-left" d="M1324.963,561.539h-13.848l-32,32,32,32h13.848l-31.552-32Z" transform="translate(-1279.115 -561.539)"/>
	</symbol>
	<symbol id="arr-right_" viewBox="0 0 46 64">
		<path id="arr-right" d="M1279.115,561.539h13.847l32,32-32,32h-13.847l31.552-32Z" transform="translate(-1279.115 -561.539)"/>
	</symbol>
	<symbol id="autofill_" viewBox="0 0 35 64">
		<path id="autofill" d="M236.9,74.268a2.133,2.133,0,0,0-.464.077l-15.307,3.769,6.61-17.808a1.568,1.568,0,0,0,.194-.693,1.522,1.522,0,0,0-.5-1.134A1.723,1.723,0,0,0,226.191,58H213.514a1.759,1.759,0,0,0-1.082.346,1.643,1.643,0,0,0-.618.885l-7.769,31.73a1.432,1.432,0,0,0,.5,1.5,1.8,1.8,0,0,0,1.2.423,2.073,2.073,0,0,0,.464-.038L221.9,88.96l-7.615,31.075a1.451,1.451,0,0,0,.174,1.154,1.648,1.648,0,0,0,.986.731,3.3,3.3,0,0,0,.541.077,1.7,1.7,0,0,0,1.623-.962l20.871-44.5a1.44,1.44,0,0,0-.271-1.692,1.817,1.817,0,0,0-1.314-.577h0Z" transform="translate(-203.995 -57.999)"/>
  	</symbol>
	<symbol id="calendar_" viewBox="0 0 60 64">
		<path id="calendar" d="M4.571,26H14.857V15.714H4.571Zm12.571,0H28.571V15.714H17.143ZM4.571,13.429H14.857V2H4.571Zm12.571,0H28.571V2H17.143ZM4.571-.286H14.857V-10.571H4.571ZM30.857,26H42.286V15.714H30.857ZM17.143-.286H28.571V-10.571H17.143ZM44.571,26H54.857V15.714H44.571ZM30.857,13.429H42.286V2H30.857ZM18.286-17.429V-27.714a1.1,1.1,0,0,0-.339-.8,1.1,1.1,0,0,0-.8-.339H14.857a1.1,1.1,0,0,0-.8.339,1.1,1.1,0,0,0-.339.8v10.286a1.1,1.1,0,0,0,.339.8,1.1,1.1,0,0,0,.8.339h2.286a1.1,1.1,0,0,0,.8-.339A1.1,1.1,0,0,0,18.286-17.429ZM44.571,13.429H54.857V2H44.571ZM30.857-.286H42.286V-10.571H30.857Zm13.714,0H54.857V-10.571H44.571Zm1.143-17.143V-27.714a1.1,1.1,0,0,0-.339-.8,1.1,1.1,0,0,0-.8-.339H42.286a1.1,1.1,0,0,0-.8.339,1.1,1.1,0,0,0-.339.8v10.286a1.1,1.1,0,0,0,.339.8,1.1,1.1,0,0,0,.8.339h2.286a1.1,1.1,0,0,0,.8-.339A1.1,1.1,0,0,0,45.714-17.429Zm13.714-2.286V26a4.635,4.635,0,0,1-4.571,4.571H4.571a4.393,4.393,0,0,1-3.214-1.357A4.393,4.393,0,0,1,0,26V-19.714a4.393,4.393,0,0,1,1.357-3.214,4.393,4.393,0,0,1,3.214-1.357H9.143v-3.429a5.5,5.5,0,0,1,1.679-4.036,5.5,5.5,0,0,1,4.036-1.679h2.286a5.5,5.5,0,0,1,4.036,1.679,5.5,5.5,0,0,1,1.679,4.036v3.429H36.571v-3.429A5.5,5.5,0,0,1,38.25-31.75a5.5,5.5,0,0,1,4.036-1.679h2.286a5.5,5.5,0,0,1,4.036,1.679,5.5,5.5,0,0,1,1.679,4.036v3.429h4.571a4.393,4.393,0,0,1,3.214,1.357A4.393,4.393,0,0,1,59.429-19.714Z" transform="translate(0 33.428)"/>
  	</symbol>
	<symbol id="check_" viewBox="0 0 84 64">
		<path id="check" d="M82.75,9.7,75.423,2.371a5.2,5.2,0,0,0-7.326,0l-35.34,35.4-15.839-15.9a4.991,4.991,0,0,0-3.663-1.508,4.988,4.988,0,0,0-3.663,1.508L2.265,29.2a5.2,5.2,0,0,0,0,7.326L29.094,63.355a5.2,5.2,0,0,0,7.326,0l7.326-7.326,39-39a4.988,4.988,0,0,0,1.508-3.663A4.99,4.99,0,0,0,82.75,9.7h0Z" transform="translate(-0.757 -0.863)"/>
  	</symbol>
	<symbol id="close_" viewBox="0 0 64 64">
		<path id="close" d="M10.477,64,0,53.533,21.539,32.008,0,10.477,10.477,0,32.008,21.539,53.539,0,64.016,10.477,42.477,32.008,64,53.528,53.533,63.995,32.008,42.472Z"/>
  	</symbol>
	<symbol id="comment_" viewBox="0 0 67 64">
		<path id="comment" d="M19.557,64V48.458h-7.18C6.668,48.458,0,42.39,0,34.895V12.8C0,8.679,4.522,0,13.14,0H53.474C57.25,0,66.462,3.367,66.462,12.953V34.287A13.967,13.967,0,0,1,52.254,48.763H36.517Zm-2.75-44.539a4.77,4.77,0,1,1-4.731,4.77A4.77,4.77,0,0,1,16.807,19.461Zm16.655,0a4.77,4.77,0,1,1-4.768,4.77,4.77,4.77,0,0,1,4.768-4.77Zm16.655,0a4.77,4.77,0,1,1-4.731,4.77,4.77,4.77,0,0,1,4.731-4.77Z"/>
	</symbol>
	<symbol id="envelope_" viewBox="0 0 90 64">
		<path id="envelope" d="M4.83,0H84.954S69.183,16.606,51.6,34.371c-5.851,5.913-7.083,5.955-12.993,0C23.4,19.045,4.83,0,4.83,0ZM90.151,5.251V58.716L65.031,31.029Zm-90.035,0V58.716l25.12-27.687ZM4.83,64H84.954S70.282,46.927,60.267,35.8c-12.278,13.677-17.344,13.785-30.317,0C19.483,47.5,4.83,64,4.83,64Z" transform="translate(-0.116)"/>
	</symbol>
	<symbol id="exele_" viewBox="0 0 53 64">
		<path id="exele" d="M346.894,329.093a7.631,7.631,0,0,0-1.288-1v16.857H362.49a7.611,7.611,0,0,0-1-1.286Zm-4.865,19.427a3.3,3.3,0,0,1-1-2.429V326.663H315.095a3.417,3.417,0,0,0-3.434,3.429v57.143a3.417,3.417,0,0,0,3.434,3.428h45.392a3.419,3.419,0,0,0,3.434-3.428V349.52H344.462A3.313,3.313,0,0,1,342.029,348.52ZM328.191,378.34l6.941-10.107-6.761-9.714h-2.435V354.7h10.373v3.821h-2.718l3.791,5.679a4.264,4.264,0,0,1,.608.822,1.25,1.25,0,0,1,.179.357h.072l.071-.107q.107-.143.322-.483t.357-.589l3.684-5.679h-2.647V354.7h9.98v3.821h-2.4l-6.975,10.071,6.868,9.75h2.432v3.786H339.53V378.34h2.719l-3.827-5.75c-.071-.095-.149-.2-.232-.3s-.155-.2-.215-.286a1.943,1.943,0,0,1-.161-.268,1.212,1.212,0,0,1-.179-.357h-.071a.3.3,0,0,0-.125.143q-.09.143-.268.483a5.156,5.156,0,0,1-.357.589l-3.685,5.75h2.683v3.786H325.758V378.34Z" transform="translate(-311.661 -326.663)"/>
	</symbol>
	<symbol id="facebook_" viewBox="0 0 64 64">
		<path id="facebook" d="M62.182,4H9.818A5.817,5.817,0,0,0,4,9.818V62.182A5.817,5.817,0,0,0,9.818,68H38.909V41.818H30.182V33.091h8.727V28.4c0-8.873,4.323-12.768,11.7-12.768a42.7,42.7,0,0,1,6.284.381v8.346H51.86c-3.13,0-4.224,1.652-4.224,5v3.729h9.175l-1.245,8.727h-7.93V68H62.182A5.817,5.817,0,0,0,68,62.182V9.818A5.818,5.818,0,0,0,62.182,4Z" transform="translate(-4 -4)"/>
	</symbol>
	<symbol id="file_" viewBox="0 0 53 64">
		<path id="file" d="M119.235,329.093a7.629,7.629,0,0,0-1.288-1v16.857h16.884a7.59,7.59,0,0,0-1-1.286ZM114.37,348.52a3.3,3.3,0,0,1-1-2.429V326.663H87.435A3.419,3.419,0,0,0,84,330.091v57.143a3.419,3.419,0,0,0,3.435,3.428h45.393a3.417,3.417,0,0,0,3.434-3.429V349.52H116.8a3.312,3.312,0,0,1-2.432-1Zm9.306,29.214a1.115,1.115,0,0,1-.823.322H97.67a1.1,1.1,0,0,1-1.145-1.143v-2.286a1.1,1.1,0,0,1,1.145-1.143h25.182A1.1,1.1,0,0,1,124,374.627v2.286a1.111,1.111,0,0,1-.32.822Zm0-9.143a1.115,1.115,0,0,1-.823.322H97.67a1.1,1.1,0,0,1-1.145-1.143v-2.286a1.1,1.1,0,0,1,1.145-1.143h25.182A1.1,1.1,0,0,1,124,365.484v2.286a1.111,1.111,0,0,1-.32.822Zm0-9.143a1.115,1.115,0,0,1-.823.322H97.67a1.1,1.1,0,0,1-1.145-1.143v-2.286A1.1,1.1,0,0,1,97.67,355.2h25.182A1.1,1.1,0,0,1,124,356.341v2.286a1.111,1.111,0,0,1-.32.822Z" transform="translate(-84 -326.663)"/>
	</symbol>
	<symbol id="geotag_" viewBox="0 0 46 64">
		<path id="geotag" d="M22.857,64C18.62,64,0,34.56,0,22.505S11.127,0,23.209,0,45.714,10.93,45.714,22.505,27.094,64,22.857,64Zm-.176-50.286a9.5,9.5,0,0,0-9.319,9.67,9.5,9.5,0,0,0,9.319,9.67A9.5,9.5,0,0,0,32,23.385,9.5,9.5,0,0,0,22.681,13.714Z"/>
	</symbol>
	<symbol id="half-globe_" viewBox="0 0 33 64">
		<path id="half-globe" d="M0.9,33v-0.9H1c0.1,0,0.2,0,0.3,0.1c0.1,0,0.1,0.1,0.2,0.2L2,33h1.2l-0.5-0.6 c0-0.1-0.1-0.1-0.1-0.1c-0.1,0-0.1-0.1-0.2-0.1c-0.1,0-0.2-0.1-0.3-0.1c0.1,0,0.3,0,0.4-0.1c0.1,0,0.2-0.1,0.3-0.2 c0.1-0.1,0.1-0.2,0.1-0.3c0-0.1-0.1-0.3-0.2-0.4c-0.1-0.1-0.3-0.2-0.4-0.2c-0.2,0-0.5-0.1-0.8-0.1h-1.8V33H0.9z M0.9,31.2h0.5 c0.1,0,0.3,0,0.4,0.1c0.1,0,0.1,0.1,0.1,0.2c0,0.1,0,0.1-0.1,0.1c0,0-0.1,0.1-0.2,0.1c-0.1,0-0.2,0-0.3,0H0.9V31.2L0.9,31.2z M4.5,33h1.1v-2.2H4.5V33z M8.3,33v-0.9h0.1c0.1,0,0.2,0,0.3,0.1c0.1,0,0.1,0.1,0.2,0.2L9.4,33h1.2l-0.5-0.6c0-0.1-0.1-0.1-0.1-0.1 c-0.1,0-0.1-0.1-0.2-0.1c-0.1,0-0.2-0.1-0.3-0.1c0.1,0,0.3,0,0.4-0.1c0.1,0,0.2-0.1,0.3-0.2c0.1-0.1,0.1-0.2,0.1-0.3 c0-0.1-0.1-0.3-0.2-0.4c-0.1-0.1-0.3-0.2-0.4-0.2c-0.2,0-0.5-0.1-0.8-0.1H7.3V33L8.3,33L8.3,33z M8.3,31.2h0.5c0.1,0,0.3,0,0.4,0.1 c0.1,0,0.1,0.1,0.1,0.2c0,0.1,0,0.1-0.1,0.1c0,0-0.1,0.1-0.2,0.1c-0.1,0-0.2,0-0.3,0H8.3V31.2L8.3,31.2z M12,33h0.9v-1.7l0.7,1.7 h0.8l0.7-1.7V33h0.9v-2.2h-1.4l-0.5,1.3l-0.5-1.3H12L12,33L12,33z M17.3,33h2.9v-0.5h-1.8V32H20v-0.4h-1.7v-0.3h1.8v-0.5h-2.8 L17.3,33L17.3,33z M21.6,33h1v-0.6h-1V33z M24.1,33h1.1v-0.5l0.5-0.4l0.7,0.9h1.3l-1.3-1.4l1.3-0.8h-1.4l-1.1,0.8v-0.8h-1.1L24.1,33 L24.1,33z M29.3,31.3h1.7l-1.9,1.3V33h3.3v-0.5h-2l1.9-1.3v-0.4h-3V31.3z M32.8,63.6c-1,0-2.1,0-3.1,0C13.6,62.7,0.7,49.8-0.2,33.7 l2.9,0c0.3,4.3,1.5,8.4,3.5,12.2h9.6c-1.1-4-1.7-8.1-1.8-12.2h2.8c0.1,4.1,0.8,8.2,1.9,12.2H30l0-12.2h2.9 M32.9,30.2H30L30,18H18.8 c-1.2,4-1.8,8.1-2,12.2H14c0.1-4.1,0.7-8.2,1.8-12.2H6.2c-2.1,3.7-3.3,7.9-3.6,12.2h-2.9c0.9-17.4,15.7-30.7,33-30 M30,60.7V48.6 H19.7c1.5,4.2,3.7,8.1,6.4,11.6C27.4,60.4,28.7,60.6,30,60.7L30,60.7z M21.8,59c-2.1-3.2-3.8-6.7-5.1-10.4H8 C11.4,53.4,16.2,57,21.8,59L21.8,59z M8,15.2h8.7C18,11.5,19.7,8,21.8,4.8C16.2,6.8,11.4,10.4,8,15.2z M30,3.2 c-1.3,0.1-2.6,0.2-3.9,0.5c-2.7,3.5-4.9,7.4-6.4,11.6H30V3.2z"/>
	</symbol>
	<symbol id="home_" viewBox="0 0 75 64">
		<path id="home" d="M38.248,2.1,1,35.624H11.159V66.1H28.089V42.4H48.406V66.1H65.337V35.624H75.5L61.951,23.435V8.535H55.179v8.8Z" transform="translate(-1 -2.1)"/>
	</symbol>
	<symbol id="instagram_" viewBox="0 0 65 64">
		<path id="instagram" d="M21.752,3A18.735,18.735,0,0,0,3,21.672V48.339A18.735,18.735,0,0,0,21.763,67h26.8A18.735,18.735,0,0,0,67.312,48.328V21.661A18.735,18.735,0,0,0,48.549,3ZM53.914,13.667a2.667,2.667,0,1,1-2.68,2.667A2.674,2.674,0,0,1,53.914,13.667ZM35.156,19A16,16,0,1,1,19.078,35,16.055,16.055,0,0,1,35.156,19Zm0,5.333A10.667,10.667,0,1,0,45.875,35,10.693,10.693,0,0,0,35.156,24.333Z" transform="translate(-3 -3)"/>
	</symbol>
	<symbol id="link_" viewBox="0 0 64 64">
		<path id="link" d="M27.08,31.461a8.4,8.4,0,0,0,13.946,3.38L52.91,22.956A8.4,8.4,0,1,0,41.029,11.075L36.764,15.34a21.281,21.281,0,0,0-10.932-1.194l9.2-9.2a16.888,16.888,0,0,1,23.886,0l.1.131a16.888,16.888,0,0,1,0,23.886L46.9,41.088a16.888,16.888,0,0,1-23.886,0l-.124-.124a16.924,16.924,0,0,1-2.552-3.277l5.953-5.953C26.572,31.45,26.831,31.255,27.08,31.461ZM36.9,32.527a8.4,8.4,0,0,0-13.942-3.369L11.077,41.031A8.4,8.4,0,1,0,22.955,52.913l4.263-4.266A21.281,21.281,0,0,0,38.15,49.842l-9.2,9.2a16.888,16.888,0,0,1-23.886,0l-.124-.124a16.888,16.888,0,0,1,0-23.886L17.09,22.9a16.888,16.888,0,0,1,23.886,0l.124.124a16.9,16.9,0,0,1,2.562,3.28L37.7,32.253c-.291.288-.551.48-.8.277Z" transform="translate(0.012 0.006)"/>
	</symbol>
	<symbol id="note_" viewBox="0 0 69 64">
		<path id="note" d="M84.323,73.756a1.183,1.183,0,0,1-.865.365H76.072a1.181,1.181,0,0,1-.865-.365,1.224,1.224,0,0,1-.365-.9V65.545a1.226,1.226,0,0,1,.365-.9,1.183,1.183,0,0,1,.865-.365h7.385a1.185,1.185,0,0,1,.865.365,1.23,1.23,0,0,1,.365.9v7.308A1.228,1.228,0,0,1,84.323,73.756ZM84.207,59.1a1.562,1.562,0,0,1-.9.25H76.187a1.651,1.651,0,0,1-.923-.25.737.737,0,0,1-.385-.635l-.654-17.577a.921.921,0,0,1,.385-.808,1.487,1.487,0,0,1,.923-.423h8.462a1.488,1.488,0,0,1,.923.423.848.848,0,0,1,.384.731L84.61,58.468a.855.855,0,0,1-.4.634ZM82.264,20.66a4.86,4.86,0,0,0-5,0,4.913,4.913,0,0,0-1.808,1.885L45.918,76.7A4.588,4.588,0,0,0,46,81.545a4.92,4.92,0,0,0,4.231,2.423H109.3a4.92,4.92,0,0,0,4.231-2.423,4.59,4.59,0,0,0,.077-4.846L84.072,22.545a4.918,4.918,0,0,0-1.808-1.885Z" transform="translate(-45.264 -19.968)"/>
	</symbol>
	<symbol id="pdf_" viewBox="0 0 54 64">
		<path id="pdf" d="M35.87,2.429a7.734,7.734,0,0,0-1.311-1V18.286H51.747A7.626,7.626,0,0,0,50.728,17ZM30.92,21.857A3.273,3.273,0,0,1,29.9,19.428V0H3.5A3.406,3.406,0,0,0,1.021,1,3.275,3.275,0,0,0,0,3.429V60.571A3.275,3.275,0,0,0,1.021,63,3.406,3.406,0,0,0,3.5,64H49.708a3.407,3.407,0,0,0,2.476-1,3.277,3.277,0,0,0,1.02-2.426V22.857H33.393a3.4,3.4,0,0,1-2.474-1ZM19.242,45.807s3.99-7.84,4.43-10.084c-2.716-4.454-3.593-10.525.666-10.827,5.822-.413,3.09,8.951,2.524,10.456a27.158,27.158,0,0,0,5.428,6.413c3.356-.9,10.293-1.549,10.381,2.463.086,3.909-6.815,3.855-11.095.6a73.725,73.725,0,0,0-10.19,3.206c-1.375,2.579-6.07,9.291-9.619,6.134C7.307,50.205,19.242,45.807,19.242,45.807Zm-5.191,6.273a3.057,3.057,0,0,0,1.619-1.255,4.973,4.973,0,0,0-1.619,1.255Zm10.81-21.1c.217-.744.4-3.29-.143-3.346C24.053,27.7,24.529,30.414,24.861,30.983ZM36.2,44a6.142,6.142,0,0,0,3.333.279c-.2-.5-2.209-.382-3.335-.279ZM25.766,38.88a23.023,23.023,0,0,0,3.1,3.624,50.792,50.792,0,0,0-5.475,1.766C23.842,43.348,25.488,39.678,25.766,38.88Z" transform="translate(0 0.001)"/>
	</symbol>
	<symbol id="phone_" viewBox="0 0 64 64">
		<path id="phone" d="M6.556,3A3.527,3.527,0,0,0,3,6.556,61.078,61.078,0,0,0,20.66,49.34,61.078,61.078,0,0,0,63.444,67,3.527,3.527,0,0,0,67,63.444V50.965A3.554,3.554,0,0,0,63.528,47.4a53.572,53.572,0,0,1-6.84-.5A52.264,52.264,0,0,1,50.806,45.4a3.606,3.606,0,0,0-3.618.9l-7.882,7.84A54.7,54.7,0,0,1,25.8,44.2a54.7,54.7,0,0,1-9.931-13.507l7.84-7.882a3.618,3.618,0,0,0,.9-3.625A51.937,51.937,0,0,1,23.1,13.313a53.575,53.575,0,0,1-.5-6.84A3.554,3.554,0,0,0,19.035,3ZM35,3v7.111A24.889,24.889,0,0,1,59.889,35H67A32,32,0,0,0,35,3Zm0,14.222v7.111A10.666,10.666,0,0,1,45.667,35h7.111A17.78,17.78,0,0,0,35,17.222Z" transform="translate(-3 -3)"/>
	</symbol>
	<symbol id="quotes_" viewBox="0 0 76 64">
		<path id="quotes" d="M73.4,64.635A8.433,8.433,0,0,0,67.21,62.09H57.017a4.348,4.348,0,0,1-4.368-4.364V56.272A11.646,11.646,0,0,1,64.3,44.635H67.21a2.951,2.951,0,0,0,2.912-2.909V35.908A2.951,2.951,0,0,0,67.21,33H64.3a22.712,22.712,0,0,0-9.033,1.841A23.06,23.06,0,0,0,42.843,47.249,22.649,22.649,0,0,0,41,56.272v32A8.695,8.695,0,0,0,49.737,97H67.21a8.7,8.7,0,0,0,8.737-8.727V70.817A8.414,8.414,0,0,0,73.4,64.635Zm40.771,0a8.433,8.433,0,0,0-6.189-2.545H97.788a4.348,4.348,0,0,1-4.368-4.364V56.272a11.646,11.646,0,0,1,11.649-11.636h2.912a2.952,2.952,0,0,0,2.912-2.909V35.908A2.952,2.952,0,0,0,107.981,33h-2.912a22.712,22.712,0,0,0-9.033,1.841A23.06,23.06,0,0,0,83.614,47.249a22.648,22.648,0,0,0-1.843,9.023v32A8.7,8.7,0,0,0,90.507,97h17.473a8.694,8.694,0,0,0,8.737-8.728V70.817A8.416,8.416,0,0,0,114.169,64.635Z" transform="translate(-41 -33)"/>
	</symbol>
	<symbol id="tags_" viewBox="0 0 78 64">
		<path id="tags" d="M69.565,0H54.909c-4.081,0-8.2,1.027-13.435,6.249L17.2,30.486c-4.169,4.162-4.041,8.464-1.222,11.28L33.686,59.444c4.169,4.162,7.953,6.691,13.13,1.524L71.548,36.276c5.424-5.414,6.413-9.075,6.413-15.852V8.23C77.962,2.295,75.344,0,69.565,0ZM61.926,9.145a6.865,6.865,0,1,1-4.859,2.008,6.865,6.865,0,0,1,4.859-2.008ZM41.017,0,6.817,34.142c-2.047,2.044-2.6,3.113,0,5.639S30.175,63.1,30.175,63.1s-3.84,2.873-8.4-1.677L2.695,42.373C-1.19,38.495-.553,34.489,2.542,31.4L29.717,4.267C34.193-.2,41.017,0,41.017,0Z" transform="translate(0.002 0.002)"/>
	</symbol>
	<symbol id="telefon_" viewBox="0 0 65 64">
		<path id="telefon" d="M35.24,4C20.123,4,9.749,6.482,4.375,11.4,1.912,13.667,3.5,23.131,3.516,23.22c.47,2.589,2.555,3.887,4.222,3.6.567-.1,2.824-.691,6.21-1.589,1.65-.441,3.111-.827,3.586-.94a4.514,4.514,0,0,0,2.95-3.28c.241-.744,1.621-4.113,2.647-6.571a51.9,51.9,0,0,1,12.133-1.292h.006A52.354,52.354,0,0,1,47.4,14.429C48.421,16.893,49.8,20.262,50.037,21a4.478,4.478,0,0,0,2.979,3.292c.481.107,2.056.536,3.792,1,3.225.863,5.385,1.435,6,1.536a3.4,3.4,0,0,0,.43.03A4.108,4.108,0,0,0,67,23.232c.017-.1,1.61-9.559-.859-11.827l-.023-.024C60.778,6.482,50.4,4,35.263,4ZM25,20.762a1.5,1.5,0,0,0-1.466,1.524V26.2c-1.484,1.476-6.319,6.375-12.11,13.381A22.752,22.752,0,0,0,5.933,54.292c.011,2.851,1.426,12.036,1.489,12.423A1.474,1.474,0,0,0,8.866,68H16.2a1.5,1.5,0,0,0,1.466-1.524V64.952h35.2v1.524A1.5,1.5,0,0,0,54.327,68H61.66A1.474,1.474,0,0,0,63.1,66.714c.063-.387,1.484-9.554,1.489-12.429A22.793,22.793,0,0,0,59.1,39.577c-5.791-7.006-10.626-11.9-12.11-13.381V22.286a1.5,1.5,0,0,0-1.466-1.524h-4.4a1.5,1.5,0,0,0-1.466,1.524v3.048h-8.8V22.286A1.5,1.5,0,0,0,29.4,20.762ZM23.531,36H29.4v3.048H23.531Zm8.8,0H38.2v3.048H32.33Zm8.8,0h5.866v3.048H41.129Zm-17.6,6.1H29.4v3.048H23.531Zm8.8,0H38.2v3.048H32.33Zm8.8,0h5.866v3.048H41.129Zm-17.6, 6.1H29.4v3.048H23.531Zm8.8,0H38.2v3.048H32.33Zm8.8,0h5.866v3.048H41.129Z" transform="translate(-2.999 -4)"/>
	</symbol>
	<symbol id="word_" viewBox="0 0 53 64">
		<path id="word" d="M346.894,83.429a7.626,7.626,0,0,0-1.288-1V99.284h16.883a7.622,7.622,0,0,0-1-1.286Zm-4.865,19.429a3.3,3.3,0,0,1-1-2.429V81H315.095a3.417,3.417,0,0,0-3.434,3.429v57.143A3.417,3.417,0,0,0,315.095,145h45.392a3.419,3.419,0,0,0,3.434-3.429V103.857H344.461A3.313,3.313,0,0,1,342.029,102.858Zm-12.452,5.572v3.821h-3.219l3.541,15.643a10.021,10.021,0,0,1,.25,1.643l.072.75h.143l.143-.75.125-.768q.09-.554.161-.875l5.151-19.464h4.078l5.151,19.464q.071.321.179.893t.143.75a1.2,1.2,0,0,0,.034.232c.023.107.041.2.053.286a1.673,1.673,0,0,1,.018.232h.143l.071-.75a9.935,9.935,0,0,1,.25-1.643l3.541-15.643h-3.219v-3.822h10.731v3.822h-2.5l-5.866,23.607h-5.685l-4.58-17.322a5.72,5.72,0,0,1-.2-.929,7.083,7.083,0,0,0-.125-.714l-.107-.857h-.143a9.69,9.69,0,0,1-.429,2.5L332.9,135.857h-5.687l-5.866-23.606h-2.5v-3.822h10.731Z" transform="translate(-311.661 -81)"/>
	</symbol>
	<symbol id="youtube_" viewBox="0 0 59 64">
		<path id="youtube" d="M13.142,3,17.9,20.17v8.237h4.116V20.17L26.829,3H22.682l-1.726,7.814q-.727,3.422-.936,4.869h-.126q-.3-2.028-.936-4.9L17.295,3ZM31.63,9.48a6.113,6.113,0,0,0-3.379.832,4.831,4.831,0,0,0-1.893,2.652,15.68,15.68,0,0,0-.607,4.812v2.693a17.236,17.236,0,0,0,.534,4.754,4.613,4.613,0,0,0,1.783,2.636,6.163,6.163,0,0,0,3.467.853,6.09,6.09,0,0,0,3.41-.837,4.677,4.677,0,0,0,1.815-2.631,16.579,16.579,0,0,0,.56-4.77v-2.7a16.249,16.249,0,0,0-.575-4.8,4.849,4.849,0,0,0-1.815-2.652A5.759,5.759,0,0,0,31.63,9.48Zm7.856.366V23.711a6.516,6.516,0,0,0,.879,3.786,3.142,3.142,0,0,0,2.725,1.208,4.27,4.27,0,0,0,4-2.573h.089l.366,2.27h3.269V9.846H46.635V24.584a2.048,2.048,0,0,1-.743.853,1.842,1.842,0,0,1-1.046.335.946.946,0,0,1-.91-.533,4.129,4.129,0,0,1-.272-1.768V9.846Zm-7.95,2.51a1.251,1.251,0,0,1,1.229.926A8.893,8.893,0,0,1,33.11,16.2v5.784a9.1,9.1,0,0,1-.345,2.966,1.247,1.247,0,0,1-1.224.91,1.224,1.224,0,0,1-1.214-.91,9.33,9.33,0,0,1-.335-2.966V16.2a8.959,8.959,0,0,1,.351-2.918A1.228,1.228,0,0,1,31.536,12.357ZM10.694,32.189A6.693,6.693,0,0,0,4,38.883V60.306A6.693,6.693,0,0,0,10.694,67H56.217a6.693,6.693,0,0,0,6.694-6.694V38.883a6.693,6.693,0,0,0-6.694-6.694Zm22.918,6.156h3.4V46.6h.026a3.715,3.715,0,0,1,1.3-1.444,3.274,3.274,0,0,1,1.82-.549,2.761,2.761,0,0,1,1.961.664,4.042,4.042,0,0,1,1.036,2.149,20.718,20.718,0,0,1,.319,4.116v2.474a11.876,11.876,0,0,1-.842,5.152A2.784,2.784,0,0,1,40,60.818a3.658,3.658,0,0,1-1.815-.46A2.971,2.971,0,0,1,36.96,59.1h-.078l-.356,1.48H33.613Zm-21.088.8H22.98v2.84h-3.5v18.6H16.024v-18.6h-3.5Zm37.311,5.481a4.937,4.937,0,0,1,2.788.659,3.6,3.6,0,0,1,1.37,2.071,15.075,15.075,0,0,1,.392,3.886v2.688h-5.9v.8a20.358,20.358,0,0,0,.089,2.259,2.165,2.165,0,0,0,.371,1.1,1.054,1.054,0,0,0,.868.345,1.1,1.1,0,0,0,1.088-.612,5.326,5.326,0,0,0,.319-2.045l3.038.178a5.007,5.007,0,0,1,.026.565A4.142,4.142,0,0,1,53.1,59.751a4.837,4.837,0,0,1-3.363,1.077,4.009,4.009,0,0,1-3.656-1.637,9.561,9.561,0,0,1-1.046-5.063V51.394a9.5,9.5,0,0,1,1.088-5.152A4.124,4.124,0,0,1,49.836,44.621Zm-21.872.288h3.53V60.578h-.01v.005H28.722l-.3-1.919h-.078a3.605,3.605,0,0,1-3.373,2.176,2.647,2.647,0,0,1-2.3-1.02,5.484,5.484,0,0,1-.743-3.2V44.913h3.535V56.42a3.522,3.522,0,0,0,.23,1.5.792.792,0,0,0,.769.445,1.541,1.541,0,0,0,.879-.282,1.753,1.753,0,0,0,.628-.717ZM49.763,47a1.023,1.023,0,0,0-.837.33,2.127,2.127,0,0,0-.356,1.088,20.746,20.746,0,0,0-.089,2.286v1.124H51.06V50.7a19.337,19.337,0,0,0-.1-2.286,2.168,2.168,0,0,0-.366-1.1A1.028,1.028,0,0,0,49.763,47Zm-11.192.115a1.356,1.356,0,0,0-.947.408,2.229,2.229,0,0,0-.612,1.046v8.9a1.557,1.557,0,0,0,.6.612,1.663,1.663,0,0,0,.805.209,1.091,1.091,0,0,0,.894-.408,2.867,2.867,0,0,0,.471-1.381,19.762,19.762,0,0,0,.141-2.683V51.8a26.3,26.3,0,0,0-.115-2.84,3.244,3.244,0,0,0-.408-1.417A.958.958,0,0,0,38.571,47.115Z" transform="translate(-4 -3)"/>
	</symbol>
	<symbol id="zoom_" viewBox="0 0 64 64">
		<path id="zoom" d="M29.649,3A26.649,26.649,0,1,0,46.5,50.265L62.409,66.177a2.665,2.665,0,1,0,3.768-3.768L50.265,46.5A26.621,26.621,0,0,0,29.649,3Zm0,5.33A21.319,21.319,0,1,1,8.33,29.649,21.279,21.279,0,0,1,29.649,8.33Z" transform="translate(-3 -3)"/>
	</symbol>
	<symbol id="unsubscribe_" viewBox="0 0 104 64">
		<g id="unsubscribe" transform="translate(18.253 0.386)">
			<path id="unsubscribe_1" fill="currentColor" d="M73.7,40.544a15.235,15.235,0,0,1-3.264,4.891A15.562,15.562,0,0,1,65.551,48.7,14.865,14.865,0,0,1,59.6,49.921a15.081,15.081,0,0,1-8.356-2.495l21.214-21.11a14.837,14.837,0,0,1,2.448,8.271A15.074,15.074,0,0,1,73.7,40.544ZM44.3,34.587A15.257,15.257,0,0,1,59.607,19.281a14.81,14.81,0,0,1,8.44,2.551L46.806,42.968a15.041,15.041,0,0,1-2.5-8.381h0Zm30.6-15.277a21.75,21.75,0,0,0-23.694-4.6A21.19,21.19,0,0,0,39.705,26.193a21.429,21.429,0,0,0,0,16.8A21.156,21.156,0,0,0,51.2,54.487a21.478,21.478,0,0,0,16.8,0A21.156,21.156,0,0,0,79.492,42.994a21.431,21.431,0,0,0,0-16.8,21.8,21.8,0,0,0-4.6-6.885Z" transform="translate(4.543 7.416)"/>
			<path id="unsubscribe_2" d="M4.96,0H89.231S72.643,16,54.156,33.133c-6.154,5.7-7.45,5.741-13.666,0C24.492,18.359,4.96,0,4.96,0ZM0,5.061V56.6L26.42,29.91ZM62.03,61.694H4.96s15.412-15.9,26.42-27.182c9.943,9.684,16.02,12.223,23.182,7.81C54.761,50.637,57.406,57.134,62.03,61.694ZM94.767,17.954V4.994S90.18,9.98,84.548,15.178a24.961,24.961,0,0,1,10.22,2.776Z" transform="translate(-18.253 -0.386)"/>
		</g>
	</symbol>
	<symbol id="arr-down_" viewBox="0 0 107 64">
		<path id="arr-down" d="M0,0,52.153,51.691h2.368L106.675,0V14.773L56.89,64h-7.1L0,14.773Z"/>
	</symbol>
	<symbol id="menu_" viewBox="0 0 85 64">
		<path id="menu" d="M0,0H84.706V10.588H0ZM0,49.412H84.706V60H0ZM0,24.706H84.706V35.294H0Z"/>
	</symbol>
	<symbol id="person_" viewBox="0 0 64 64">
		<path id="person" d="M36,4A16,16,0,1,0,52,20,15.991,15.991,0,0,0,36,4ZM24.125,41.625A32.328,32.328,0,0,0,4,58.625V68H68V58.625a32.328,32.328,0,0,0-20.125-17,11.984,11.984,0,0,1-23.75,0Z" transform="translate(-4 -4)"/>
	</symbol>
	<symbol id="zoom-right_" viewBox="0 0 46 64">
		<path id="zoom-right" d="M.211,62.007S13.826,37.085,15.7,33.943A18.086,18.086,0,0,1,8.735,23.907a18.658,18.658,0,1,1,36.044-9.657A18.535,18.535,0,0,1,31.51,36.819a18.732,18.732,0,0,1-11.315-.506C18.328,39.361,4.5,64.414,4.5,64.414ZM39.806,15.582A13.518,13.518,0,1,0,30.2,31.924a13.518,13.518,0,0,0,9.607-16.343Z" transform="translate(-0.211 -0.415)"/>
	</symbol>
	<symbol id="author_" viewBox="0 0 64 64">
		<path id="author" d="M0,50c0.2-2.185,2.944-4.676,3.524-5.248S7.811,40.106,9.487,38.3c1.239-8.023,8.88-13.733,13.427-17.843C28.4,15.5,43.207,1.633,44.794,0c0.167,9.3-3.32,18.582-3.32,18.582L31.85,20.638a8.429,8.429,0,0,0,7.861,2.128c-1.357,4.408-6.627,13.553-11.046,15.887A62.507,62.507,0,0,1,20.6,36.17s1.175,4.25,3.795,5.39c-3.682,3.284-11.933.43-13.418-.638C8.385,43.111.913,49.441,0,50Zm58.6-3.348H9.533v2.174ZM65,48.826H13.8V51Z"/>
	</symbol>

	<view id="globe-view" 			viewBox="0 0 62 64" />
	<view id="trang-down-view" 		viewBox="0 70 114 64" />
	<view id="arr-left-view" 		viewBox="0 140 46 64" />
	<view id="arr-right-view" 		viewBox="0 210 46 64" />
	<view id="autofill-view" 		viewBox="0 280 35 64" />
	<view id="calendar-view" 		viewBox="0 350 60 64" />
	<view id="check-view" 			viewBox="0 420 84 64" />
	<view id="close-view" 			viewBox="0 490 64 64" />
	<view id="comment-view" 		viewBox="0 560 67 64" />
	<view id="envelope-view" 		viewBox="0 630 90 64" />
	<view id="exele-view" 			viewBox="0 700 53 64" />
	<view id="facebook-view" 		viewBox="0 770 64 64" />
	<view id="file-view" 			viewBox="0 840 53 64" />
	<view id="geotag-view" 			viewBox="0 910 46 64" />
	<view id="half-globe-view" 		viewBox="0 980 33 64" />
	<view id="home-view" 			viewBox="0 1050 75 64" />
	<view id="instagram-view" 		viewBox="0 1120 65 64" />
	<view id="link-view" 			viewBox="0 1190 64 64" />
	<view id="note-view" 			viewBox="0 1260 69 64" />
	<view id="pdf-view" 			viewBox="0 1330 54 64" />
	<view id="phone-view" 			viewBox="0 1400 64 64" />
	<view id="quotes-view" 			viewBox="0 1470 76 64" />
	<view id="tags-view" 			viewBox="0 1540 78 64" />
	<view id="telefon-view" 		viewBox="0 1620 65 64" />
	<view id="word-view" 			viewBox="0 1690 53 64" />
	<view id="youtube-view" 		viewBox="0 1760 59 64" />
	<view id="zoom-view" 			viewBox="0 1830 64 64" />
	<view id="unsubscribe-view" 	viewBox="0 1900 64 64" />
	<view id="file-grey-view" 		viewBox="0 1970 53 64" />
	<view id="arr-down-view"		viewBox="0 2040 107 64" />
	<view id="menu-view"			viewBox="0 2210 85 64" />
	<view id="person-view"			viewBox="0 2280 64 64" />
	<view id="envelope-grey-view" 	viewBox="0 2350 90 64" />
	<view id="zoom-right-view" 		viewBox="0 2420 46 64" />
	<view id="arr-left-grey-view" 	viewBox="0 2490 46 64" />
	<view id="arr-right-grey-view" 	viewBox="0 2560 46 64" />
	<view id="author-view" 			viewBox="0 2630 64 64" />

	<use xlink:href="#globe_" 		style="fill: #0091c8;" width="62" height="64" x="0" y="0"></use>
	<use xlink:href="#trang-down_" 	style="fill: #fff;" width="114" height="64" x="0" y="70"></use>
	<use xlink:href="#arr-left_" 	style="fill: #fff;" width="46" height="64" x="0" y="140"></use>
	<use xlink:href="#arr-right_" 	style="fill: #fff;" width="46" height="64" x="0" y="210"></use>
	<use xlink:href="#autofill_" 	style="fill: #e5e5e5;" width="35" height="64" x="0" y="280"></use>
	<use xlink:href="#calendar_" 	style="fill: #0091c8; fill-rule: evenodd" width="60" height="64" x="0" y="350"></use>
	<use xlink:href="#check_" 		style="fill: #0091c8;" width="84" height="64" x="0" y="420"></use>
	<use xlink:href="#close_" 		style="fill: #fff;" width="64" height="64" x="0" y="490"></use>
	<use xlink:href="#comment_" 	style="fill: #fff; fill-rule: evenodd" width="67" height="64" x="0" y="560"></use>
	<use xlink:href="#envelope_" 	style="fill: #fff;" width="90" height="64" x="0" y="630"></use>
	<use xlink:href="#exele_" 		style="fill: #0091c8;" width="53" height="64" x="0" y="700"></use>
	<use xlink:href="#facebook_" 	style="fill: #fff;" width="64" height="64" x="0" y="770"></use>
	<use xlink:href="#file_" 		style="fill: #0091c8;" width="53" height="64" x="0" y="840"></use>
	<use xlink:href="#geotag_" 		style="fill: #fff;" width="46" height="64" x="0" y="910"></use>
	<use xlink:href="#half-globe_" 	style="fill: #fff;" width="33" height="64" x="0" y="980"></use>
	<use xlink:href="#home_" 		style="fill: #0091c8;" width="75" height="64" x="0" y="1050"></use>
	<use xlink:href="#instagram_" 	style="fill: #fff;" width="65" height="64" x="0" y="1120"></use>
	<use xlink:href="#link_" 		style="fill: #fff;" width="64" height="64" x="0" y="1190"></use>
	<use xlink:href="#note_" 		style="fill: #dedede;" width="69" height="64" x="0" y="1260"></use>
	<use xlink:href="#pdf_" 		style="fill: #0091c8;" width="54" height="64" x="0" y="1330"></use>
	<use xlink:href="#phone_" 		style="fill: #fff;" width="64" height="64" x="0" y="1400"></use>
	<use xlink:href="#quotes_" 		style="fill: #dedede;" width="76" height="64" x="0" y="1470"></use>
	<use xlink:href="#tags_" 		style="fill: #0091c8;" width="78" height="64" x="0" y="1540"></use>
	<use xlink:href="#telefon_" 	style="fill: #e5e5e5;" width="65" height="64" x="0" y="1620"></use>
	<use xlink:href="#word_" 		style="fill: #0091c8;" width="53" height="64" x="0" y="1690"></use>
	<use xlink:href="#youtube_" 	style="fill: #fff;" width="59" height="64" x="0" y="1760"></use>
	<use xlink:href="#zoom_" 		style="fill: #fff;" width="64" height="64" x="0" y="1830"></use>
	<use xlink:href="#unsubscribe_" style="fill: #fff; color: #ff4d4d" width="64" height="64" x="0" y="1900"></use>
	<use xlink:href="#file_" 		style="fill: #c8c8c8;" width="64" height="64" x="0" y="1970"></use>
	<use xlink:href="#arr-down_" 	style="fill: #fff;" width="107" height="64" x="0" y="2040"></use>
	<use xlink:href="#menu_" 		style="fill: #fff;" width="85" height="64" x="0" y="2210"></use>
	<use xlink:href="#person_" 		style="fill: #e5e5e5;" width="64" height="64" x="0" y="2280"></use>
	<use xlink:href="#envelope_" 	style="fill: #e5e5e5;" width="90" height="64" x="0" y="2350"></use>
	<use xlink:href="#zoom-right_" 	style="fill: #aaa;" width="46" height="64" x="0" y="2420"></use>
	<use xlink:href="#arr-left_" 	style="fill: #ccc;" width="46" height="64" x="0" y="2490"></use>
	<use xlink:href="#arr-right_" 	style="fill: #ccc;" width="46" height="64" x="0" y="2560"></use>
	<use xlink:href="#author_" 		style="fill: #0091c8;" width="64" height="64" x="0" y="2630"></use>
</svg>