<svg id="Слой_1" data-name="Слой 1" xmlns="http://www.w3.org/2000/svg" viewBox="0 0 59.54 59.53">
  <defs>
    <style>
      .cls-1 {
        fill: #fff;
      }

      .cls-1, .cls-2 {
        fill-rule: evenodd;
      }

      .cls-2 {
        fill: #df0000;
        opacity: 0.8;
        isolation: isolate;
      }
    </style>
  </defs>
  <title>logo</title>
  <g id="logo_1" data-name="logo 1">
    <path id="Path_4" data-name="Path 4" class="cls-1" d="M56.91,21.7c-.43.06-1-.47-1-.47a2.6,2.6,0,0,1,.5-.87c.26-.18,1.68.19,1.68.19S57.34,21.64,56.91,21.7Zm-1.68-.36c-.3,0-.84-.32-.14-.81s.16-1-.13-1.24a.86.86,0,0,0-1.21,0,.88.88,0,0,0-.19.9.52.52,0,0,0,1-.16c0-.23-.23-.52-.57-.18a.37.37,0,0,1,.34-.39.45.45,0,0,1,.16,0c.77.22.22,1.39-.35,1.5a1.1,1.1,0,0,1-1.27-.9,1.28,1.28,0,0,1,0-.39,1.62,1.62,0,0,1,1.85-1.33l.09,0A1.63,1.63,0,0,1,56,20.27c-.06.64-.45,1.06-.76,1.07ZM53.1,13.73c-.39.19-1.11-.14-1.11-.14a2.37,2.37,0,0,1,.21-1c.19-.25,1.65-.34,1.65-.34s-.36,1.26-.75,1.45Zm-1.7.17c-.29.1-.9,0-.39-.73s-.16-1-.5-1.14a.86.86,0,0,0-1,1.3.51.51,0,0,0,.72.05.5.5,0,0,0,.16-.51c-.1-.21-.37-.42-.6,0A.38.38,0,0,1,50,12.4a.41.41,0,0,1,.16,0c.8,0,.64,1.25.13,1.53a1.1,1.1,0,0,1-1.49-.46,1,1,0,0,1-.11-.37A1.61,1.61,0,0,1,50,11.24h.09a1.64,1.64,0,0,1,1.71,1.41,1.09,1.09,0,0,1-.38,1.26ZM47,51.71a1.05,1.05,0,0,1-1.25-.38c-.1-.28,0-.9.73-.39s1-.17,1.13-.5a.86.86,0,0,0-.39-1.15.88.88,0,0,0-.91.1.52.52,0,0,0-.05.72.5.5,0,0,0,.51.16c.21-.1.42-.38,0-.6a.36.36,0,0,1,.47.21.4.4,0,0,1,0,.15c0,.8-1.25.65-1.54.14a1.11,1.11,0,0,1,.83-1.6,1.61,1.61,0,0,1,1.84,1.34s0,.06,0,.09A1.62,1.62,0,0,1,47,51.71Zm-.49-40.8a1.09,1.09,0,0,1-.95-1.22,1.45,1.45,0,0,1,.11-.37c.28-.51,1.57-.68,1.54.12a.37.37,0,0,1-.33.39.29.29,0,0,1-.16,0c.42-.22.21-.5,0-.6a.51.51,0,0,0-.62.37.53.53,0,0,0,.16.51A.86.86,0,0,0,47.44,10,.84.84,0,0,0,47.53,9c-.1-.34-.45-1-1.14-.5s-.83-.1-.73-.39a1.1,1.1,0,0,1,1.25-.39,1.65,1.65,0,0,1,1.42,1.7,1.61,1.61,0,0,1-1.74,1.47l-.11,0Zm-.56-3.39a2.25,2.25,0,0,1-.1-1c.1-.29,1.46-.83,1.46-.83S47.33,7,47,7.31s-1.1.21-1.1.21ZM45.45,8c-.24.18-.87.24-.59-.57S44.38,6.5,44,6.5a.86.86,0,0,0-1,.72.85.85,0,0,0,.38.84.51.51,0,0,0,.7-.17.52.52,0,0,0,0-.54c-.16-.16-.49-.28-.57.19a.36.36,0,0,1,0-.51A.37.37,0,0,1,43.75,7c.76-.28,1,1,.6,1.42a1.09,1.09,0,0,1-1.55,0,1,1,0,0,1-.22-.31,1.61,1.61,0,0,1,.71-2.16l.08,0a1.63,1.63,0,0,1,2.06.82A1.07,1.07,0,0,1,45.45,8ZM39.37,56c-.65-.06-1.07-.45-1.08-.75s.31-.85.81-.15,1,.16,1.24-.13a.86.86,0,0,0-.92-1.4.51.51,0,0,0,.17,1c.23,0,.51-.23.18-.57a.36.36,0,0,1,.38.34.29.29,0,0,1,0,.16c-.22.78-1.39.23-1.5-.34a1.09,1.09,0,0,1,.89-1.27,1.27,1.27,0,0,1,.39,0,1.61,1.61,0,0,1,1.34,1.84.29.29,0,0,1,0,.09A1.62,1.62,0,0,1,39.37,56Zm.49-49.27a1.11,1.11,0,0,1-1.29-.88,1.21,1.21,0,0,1,0-.38c.11-.57,1.28-1.13,1.5-.35a.36.36,0,0,1-.2.47.41.41,0,0,1-.16,0c.34-.34,0-.54-.18-.57a.51.51,0,0,0-.47.55.49.49,0,0,0,.31.43.86.86,0,0,0,.91-1.4c-.21-.29-.75-.82-1.24-.12s-.82.16-.81-.14.42-.7,1.07-.76a1.64,1.64,0,0,1,1.87,1.19A1.6,1.6,0,0,1,40,6.66Zm-1.59-3a2.61,2.61,0,0,1-.4-.92C37.88,2.4,39,1.47,39,1.47s.45,1.23.24,1.62S38.27,3.63,38.27,3.63Zm-.3.6c-.17.25-.75.5-.74-.36s-.74-.74-1.07-.63a.86.86,0,0,0-.09,1.67A.51.51,0,0,0,36.52,4c-.2-.11-.55-.12-.48.35a.36.36,0,0,1-.11-.5L36,3.76c.63-.5,1.25.64,1,1.17a1.11,1.11,0,0,1-1.48.49,1.39,1.39,0,0,1-.31-.23,1.62,1.62,0,0,1,0-2.28l.07-.06A1.62,1.62,0,0,1,37.55,3,1.08,1.08,0,0,1,38,4.23Zm-7.15,53.4c-.6-.26-.87-.76-.79-1.05s.56-.71.82.11.93.47,1.22.26a.86.86,0,0,0-.45-1.61.51.51,0,0,0-.46.56.5.5,0,0,0,.32.42c.22,0,.56-.06.34-.48a.36.36,0,0,1,.26.44.27.27,0,0,1-.07.14c-.44.67-1.39-.21-1.32-.79a1.1,1.1,0,0,1,1.25-.93,1.18,1.18,0,0,1,.36.12A1.61,1.61,0,0,1,33,57a.59.59,0,0,1,0,.08,1.64,1.64,0,0,1-2.15.57ZM32.25,4.69a1.09,1.09,0,0,1-1.49-.43,1,1,0,0,1-.13-.37c-.07-.57.87-1.46,1.32-.8a.36.36,0,0,1,0,.51.39.39,0,0,1-.14.08c.21-.43-.13-.53-.35-.49a.51.51,0,0,0-.28.67.52.52,0,0,0,.43.32.86.86,0,0,0,.89-.82.84.84,0,0,0-.46-.8c-.29-.21-1-.55-1.22.27s-.73.4-.81.11.18-.79.78-1a1.65,1.65,0,0,1,2.15.55,1.62,1.62,0,0,1-.56,2.21ZM29.8,2.28s-.58-.45-.66-.75.7-1.53.7-1.53.8,1,.73,1.46S29.8,2.28,29.8,2.28Zm-.1.66c-.08.29-.56.71-.81-.12s-.94-.47-1.22-.26a.85.85,0,0,0,.43,1.61.51.51,0,0,0,.15-1c-.22,0-.56.06-.35.48a.36.36,0,0,1-.25-.44.37.37,0,0,1,.07-.14c.45-.67,1.39.22,1.32.8a1.1,1.1,0,0,1-1.26.92,1,1,0,0,1-.36-.12,1.61,1.61,0,0,1-.7-2.16l.05-.09a1.65,1.65,0,0,1,2.15-.55c.6.26.87.76.78,1.05ZM24.39,56.72a1.63,1.63,0,0,1-2.21-.12,1.08,1.08,0,0,1-.43-1.24c.17-.25.75-.5.74.36s.75.73,1.08.62a.85.85,0,0,0,.7-1,.86.86,0,0,0-.62-.68.52.52,0,0,0-.62.39.51.51,0,0,0,.18.5c.2.11.55.12.47-.35a.37.37,0,0,1,.12.5.43.43,0,0,1-.12.11c-.62.5-1.25-.63-1-1.16a1.09,1.09,0,0,1,1.47-.5,1,1,0,0,1,.31.22,1.61,1.61,0,0,1,0,2.28ZM24,5.22a1.09,1.09,0,0,1-1.55.07A1,1,0,0,1,22.26,5c-.26-.52.35-1.67,1-1.18a.36.36,0,0,1,.13.5.29.29,0,0,1-.11.11c.06-.47-.29-.45-.49-.34a.52.52,0,0,0-.05.72.5.5,0,0,0,.51.16.86.86,0,0,0,.59-1.06.88.88,0,0,0-.7-.61c-.34-.1-1.09-.21-1.07.65s-.56.62-.73.37a1.09,1.09,0,0,1,.4-1.25,1.65,1.65,0,0,1,2.21-.17,1.62,1.62,0,0,1,.18,2.27.46.46,0,0,1-.07.07Zm-4-2c-.18-.25.17-1.67.17-1.67s1.1.72,1.16,1.15-.46,1-.46,1A2.3,2.3,0,0,1,20.08,3.22Zm1,1.16c0,.3-.3.85-.81.15s-1-.15-1.24.14A.86.86,0,0,0,20,6.06a.51.51,0,0,0-.17-1c-.23,0-.51.24-.18.57a.34.34,0,0,1-.38-.33.29.29,0,0,1,0-.16c.21-.78,1.39-.24,1.5.33a1.1,1.1,0,0,1-.89,1.28,1.21,1.21,0,0,1-.38,0,1.61,1.61,0,0,1-1.36-1.83s0-.06,0-.09A1.63,1.63,0,0,1,20,3.64c.65,0,1.06.44,1.08.74ZM16.34,53.75a1.65,1.65,0,0,1-2.07-.8,1.08,1.08,0,0,1,0-1.31c.23-.19.86-.25.6.57s.48.93.83.92a.86.86,0,0,0,1-.72.87.87,0,0,0-.38-.85.51.51,0,0,0-.7.19.49.49,0,0,0,0,.53c.15.17.49.28.56-.19a.36.36,0,0,1-.05.51.37.37,0,0,1-.14.07c-.75.29-1-1-.61-1.42a1.11,1.11,0,0,1,1.56,0,1.19,1.19,0,0,1,.23.31,1.62,1.62,0,0,1-.7,2.17ZM15,8.51c-.4-.42-.18-1.7.58-1.43a.35.35,0,0,1,.26.43.3.3,0,0,1-.06.14c-.09-.46-.42-.34-.57-.17a.5.5,0,0,0,.16.7.52.52,0,0,0,.54,0,.86.86,0,0,0-.61-1.56c-.35,0-1.1.13-.82.94s-.34.76-.58.58a1.09,1.09,0,0,1,0-1.31,1.63,1.63,0,0,1,2-.84,1.61,1.61,0,0,1,.87,2.1.36.36,0,0,0,0,.09,1.11,1.11,0,0,1-1.46.55A1.21,1.21,0,0,1,15,8.51Zm-2,.18c-.7-.5-1,.18-1.14.52a.86.86,0,0,0,1.32,1,.52.52,0,0,0,0-.73.51.51,0,0,0-.51-.15c-.21.1-.41.38,0,.6a.36.36,0,0,1-.47-.2.41.41,0,0,1,0-.16c0-.8,1.25-.65,1.53-.15a1.1,1.1,0,0,1-.81,1.61A1.6,1.6,0,0,1,11,9.75s0-.07,0-.1a1.64,1.64,0,0,1,1.4-1.72,1.08,1.08,0,0,1,1.26.37c.1.28,0,.9-.73.39Zm-.58-1.18C12.11,7.32,12,5.86,12,5.86s1.27.35,1.46.74-.12,1.11-.12,1.11a2.53,2.53,0,0,1-1-.2ZM9.15,14.1c-.51-.28-.7-1.56.11-1.54a.37.37,0,0,1,.39.33.41.41,0,0,1,0,.16c-.23-.42-.5-.2-.6,0a.51.51,0,0,0,.38.61.52.52,0,0,0,.51-.17.86.86,0,0,0-1.07-1.29c-.33.11-1,.47-.49,1.15s-.09.83-.37.73a1.07,1.07,0,0,1-.4-1.24,1.64,1.64,0,0,1,1.69-1.44,1.62,1.62,0,0,1,1.47,1.74s0,.06,0,.09a1.1,1.1,0,0,1-1.22,1A1,1,0,0,1,9.15,14.1ZM6.35,14c-.29-.1-.85-1.46-.85-1.46s1.32-.06,1.62.25.23,1.1.23,1.1a2.59,2.59,0,0,1-1,.11Zm.22,6a1.1,1.1,0,0,1-.87,1.29,1.2,1.2,0,0,1-.38,0c-.57-.1-1.14-1.27-.37-1.5a.37.37,0,0,1,.48.2.26.26,0,0,1,0,.15c-.34-.33-.54,0-.56.19a.51.51,0,0,0,1,.15.86.86,0,0,0-1.41-.9c-.29.21-.82.75-.11,1.24s.17.82-.13.81-.7-.41-.77-1.06a1.64,1.64,0,0,1,1.17-1.87,1.6,1.6,0,0,1,1.93,1.19.36.36,0,0,1,0,.1ZM2.62,22c-.31,0-1.25-1.13-1.25-1.13S2.6,20.36,3,20.56s.55,1,.55,1a2.37,2.37,0,0,1-.91.42ZM1.45,29.27c.43.07.83.75.83.75s-.45.59-.74.68S0,30,0,30s1-.82,1.46-.75ZM2.68,38c.43-.06,1,.47,1,.47a2.38,2.38,0,0,1-.5.87c-.25.17-1.67-.18-1.67-.18S2.26,38.09,2.69,38Zm1.68.35c.3,0,.85.31.15.81s-.15,1,.13,1.24a.87.87,0,0,0,1.22,0A.85.85,0,0,0,6,39.5a.5.5,0,0,0-.67-.26.49.49,0,0,0-.31.43c0,.23.24.51.57.18a.35.35,0,0,1-.34.38.26.26,0,0,1-.15,0c-.78-.21-.24-1.39.34-1.5a1.1,1.1,0,0,1,1.27.89,1.21,1.21,0,0,1,0,.38,1.61,1.61,0,0,1-1.83,1.35l-.1,0a1.63,1.63,0,0,1-1.2-1.86c0-.65.44-1.07.74-1.08ZM6.55,46c.39-.2,1.11.13,1.11.13a2.53,2.53,0,0,1-.2,1c-.19.25-1.65.35-1.65.35s.35-1.26.74-1.46Zm3.68-1.83c0,.41-.29.5-.51.68s-.64,1-1.22.62c-.19-.65.68-.93.94-1s.44-.42.79-.27ZM9.51,15c.17.21.53.28.51.66-.39.13-.57-.11-.81-.26s-1.18-.29-1-1C8.8,14.05,9.33,14.79,9.51,15Zm-2,30c.81-.28.76.35.58.59a1.07,1.07,0,0,1-1.31,0,1.63,1.63,0,0,1-.83-2,1.6,1.6,0,0,1,2.1-.86l.09,0a1.11,1.11,0,0,1,.54,1.46,1.16,1.16,0,0,1-.22.31c-.42.4-1.7.18-1.43-.58a.38.38,0,0,1,.44-.27l.14.07c-.47.08-.35.41-.18.57a.51.51,0,0,0,.7-.17.52.52,0,0,0,0-.54.86.86,0,0,0-1.56.62C6.59,44.52,6.71,45.27,7.52,45ZM6,22c.23.15.6.1.69.48-.34.24-.58.07-.86,0s-1.2.09-1.21-.62C5,21.28,5.71,21.83,6,22ZM1.89,29.08a1.64,1.64,0,0,1,.52-2.16,1.62,1.62,0,0,1,2.21.55.56.56,0,0,1,0,.08,1.1,1.1,0,0,1-.42,1.5,1.18,1.18,0,0,1-.36.12c-.58.08-1.48-.85-.82-1.3a.38.38,0,0,1,.59.17c-.43-.2-.53.13-.48.36a.51.51,0,0,0,.67.27.49.49,0,0,0,.31-.43.86.86,0,0,0-.82-.89.88.88,0,0,0-.8.47c-.21.29-.54,1,.28,1.22s.41.72.12.81S2.15,29.67,1.89,29.08Zm0,1.83c.25-.6.75-.88,1-.79s.72.55-.1.82-.47.93-.26,1.21a.86.86,0,0,0,1.16.36.85.85,0,0,0,.45-.81.5.5,0,0,0-.56-.45.5.5,0,0,0-.42.32c0,.22.06.56.49.34a.37.37,0,0,1-.44.26.31.31,0,0,1-.14-.07c-.68-.44.2-1.39.78-1.33A1.11,1.11,0,0,1,4.84,32a1.18,1.18,0,0,1-.12.36,1.6,1.6,0,0,1-2.16.72l-.08,0A1.65,1.65,0,0,1,1.9,30.91Zm2.8-.71c-.29,0-1.12.46-1.35-.22.22-.64,1.09-.35,1.36-.28s.6-.08.8.24C5.27,30.27,5,30.18,4.7,30.2Zm2.05,7.21c-.13.39-.43.4-.69.5s-.93.79-1.36.21c0-.68.94-.67,1.21-.69S6.46,37.17,6.75,37.41Zm-2.84,0c.86,0,.62.57.37.74A1.07,1.07,0,0,1,3,37.71a1.64,1.64,0,0,1-.17-2.21,1.61,1.61,0,0,1,2.27-.17l.07.07A1.08,1.08,0,0,1,5.27,37a1,1,0,0,1-.3.24c-.53.25-1.67-.36-1.18-1a.37.37,0,0,1,.5-.12l.11.11c-.47-.06-.46.29-.34.49a.52.52,0,0,0,.72,0,.51.51,0,0,0,.16-.51.86.86,0,0,0-1.06-.59.85.85,0,0,0-.61.69C3.16,36.65,3.05,37.4,3.91,37.38ZM4.3,23.76a.36.36,0,0,1-.49.12.34.34,0,0,1-.12-.12c-.5-.62.63-1.25,1.16-1a1.1,1.1,0,0,1,.51,1.47,1.39,1.39,0,0,1-.23.31,1.61,1.61,0,0,1-2.27,0,.46.46,0,0,1-.07-.07,1.64,1.64,0,0,1,.11-2.22,1.08,1.08,0,0,1,1.24-.43c.25.17.51.75-.36.74s-.73.75-.61,1.08a.85.85,0,0,0,1.67.07.5.5,0,0,0-.39-.6.48.48,0,0,0-.5.17C3.84,23.49,3.84,23.84,4.3,23.76ZM7.39,16.2a.36.36,0,0,1-.51-.05A.37.37,0,0,1,6.81,16c-.29-.75,1-1,1.41-.61a1.1,1.1,0,0,1,0,1.56,1,1,0,0,1-.32.22,1.61,1.61,0,0,1-2.17-.68l0-.09a1.64,1.64,0,0,1,.79-2.07,1.07,1.07,0,0,1,1.31,0c.19.23.25.87-.56.6s-.93.48-.92.84a.86.86,0,0,0,1.57.58.51.51,0,0,0-.19-.7.49.49,0,0,0-.53,0C7,15.8,6.92,16.13,7.39,16.2Zm.87,29.58c.28-.1.9,0,.39.73s.17,1,.51,1.13a.86.86,0,0,0,1.15-.39.88.88,0,0,0-.11-.92.51.51,0,0,0-.72,0,.5.5,0,0,0-.16.51c.1.21.38.41.6,0a.37.37,0,0,1-.2.47.45.45,0,0,1-.16,0c-.8,0-.65-1.25-.14-1.54a1.11,1.11,0,0,1,1.49.46.94.94,0,0,1,.11.36A1.6,1.6,0,0,1,9.7,48.42l-.1,0A1.64,1.64,0,0,1,7.88,47a1.07,1.07,0,0,1,.38-1.25ZM15,50c.21-.17.28-.53.67-.5.12.39-.12.57-.27.81s-.29,1.18-1,1c-.38-.56.37-1.09.58-1.26ZM14,8.54c.65-.19.93.68,1,.94s.42.43.28.79c-.41,0-.51-.28-.69-.5S13.6,9.13,14,8.54Zm-.82,40.19a1.11,1.11,0,0,1,1,1.23.89.89,0,0,1-.11.36c-.28.52-1.56.69-1.53-.11a.36.36,0,0,1,.33-.39.36.36,0,0,1,.15,0c-.41.22-.2.5,0,.6a.51.51,0,0,0,.45-.89.86.86,0,0,0-1.2.15.87.87,0,0,0-.09.92c.11.33.46,1,1.15.49s.83.09.73.38a1.09,1.09,0,0,1-1.25.4,1.65,1.65,0,0,1-1.43-1.7,1.62,1.62,0,0,1,1.74-1.47Zm.59,3.39a2.41,2.41,0,0,1,.11,1c-.1.3-1.46.84-1.46.84s-.06-1.31.25-1.62,1.1-.22,1.1-.22Zm6.07.8a1.1,1.1,0,0,1,1.29.87,1,1,0,0,1,0,.38c-.11.57-1.27,1.14-1.5.37a.36.36,0,0,1,.2-.48A.25.25,0,0,1,20,54c-.33.34,0,.54.19.56a.51.51,0,0,0,.15-1,.86.86,0,0,0-.9,1.41c.21.28.75.82,1.24.11s.82-.17.81.14-.41.7-1.06.76a1.63,1.63,0,0,1-1.88-1.17,1.61,1.61,0,0,1,1.2-1.93l.1,0ZM21.54,6.07c-.1-.27-.79-.92-.22-1.35.68,0,.68.93.69,1.2s.27.55,0,.84C21.65,6.63,21.64,6.34,21.54,6.07Zm.84,46.8c.24.33.07.58,0,.85s.09,1.21-.63,1.22c-.53-.42,0-1.15.16-1.38s.11-.6.48-.69ZM21.46,56a2.61,2.61,0,0,1,.4.92c0,.31-1.12,1.25-1.12,1.25s-.46-1.23-.26-1.62,1-.55,1-.55Zm6-1.1a1.1,1.1,0,0,1,1.5.42,1.18,1.18,0,0,1,.12.36c.08.58-.86,1.48-1.31.81a.36.36,0,0,1,0-.51.37.37,0,0,1,.14-.07c-.2.42.13.52.36.48a.51.51,0,0,0,.27-.67.49.49,0,0,0-.43-.31.86.86,0,0,0-.89.82.88.88,0,0,0,.47.8c.28.2,1,.54,1.21-.28s.73-.41.82-.12-.18.79-.78,1a1.63,1.63,0,0,1-2.15-.53,1.62,1.62,0,0,1,.54-2.21l.09,0Zm2.43,1.33c-.64-.23-.35-1.1-.28-1.37s-.08-.6.25-.8c.33.25.24.53.25.82s.46,1.12-.22,1.34ZM29.83,3.35c.64.23.34,1.1.27,1.36s.08.6-.25.8c-.33-.25-.24-.53-.25-.82S29.15,3.57,29.83,3.35Zm.1,53.9s.59.44.68.74-.69,1.54-.69,1.54-.82-1-.74-1.46.76-.82.76-.82Zm5.39-2.92a1.11,1.11,0,0,1,1.78.25c.25.53-.36,1.67-1,1.18a.37.37,0,0,1-.12-.5.38.38,0,0,1,.11-.11c-.06.47.29.46.49.34a.51.51,0,0,0,.05-.72.5.5,0,0,0-.5-.16.86.86,0,0,0,.09,1.67c.34.11,1.09.22,1.07-.64s.57-.61.74-.37a1.09,1.09,0,0,1-.41,1.25,1.63,1.63,0,0,1-2.21.15,1.61,1.61,0,0,1-.15-2.27l.06-.06Zm2-47.62c-.24-.33-.06-.58,0-.85s-.08-1.21.64-1.21c.53.42,0,1.15-.17,1.38s-.1.6-.47.69ZM38,54.85c-.68,0-.67-.93-.68-1.21s-.26-.54,0-.84c.39.14.4.43.5.7s.79.93.21,1.36Zm1.24,1.5c.17.26-.18,1.68-.18,1.68s-1.1-.73-1.16-1.16.47-1,.47-1a2.42,2.42,0,0,1,.88.51ZM44.73,9.66c-.22.17-.29.53-.67.5-.12-.39.12-.57.27-.81s.3-1.17,1-.95c.39.57-.36,1.09-.58,1.27Zm.64,41.42c-.66.19-.93-.68-1-.94s-.41-.44-.27-.79c.41,0,.5.28.69.5s1,.65.61,1.24Zm-1,0c.4.42.17,1.7-.59,1.42a.36.36,0,0,1-.27-.43.37.37,0,0,1,.07-.14c.08.46.41.35.57.18a.52.52,0,0,0-.18-.7.49.49,0,0,0-.52,0A.86.86,0,0,0,44.09,53c.35,0,1.1-.12.82-.94s.35-.76.59-.57a1.07,1.07,0,0,1,0,1.31,1.63,1.63,0,0,1-2.05.83,1.6,1.6,0,0,1-.85-2.11.36.36,0,0,1,0-.09,1.1,1.1,0,0,1,1.46-.53,1,1,0,0,1,.31.22Zm2.61,1c.24.19.34,1.65.34,1.65s-1.27-.36-1.46-.75.14-1.11.14-1.11a2.37,2.37,0,0,1,1,.21Zm3.27-6.57c.51.28.68,1.57-.12,1.54a.36.36,0,0,1-.39-.33.78.78,0,0,1,0-.16c.23.42.5.21.6,0a.51.51,0,0,0-.88-.45.85.85,0,0,0,1.06,1.29c.33-.11,1-.46.49-1.14s.1-.83.38-.73a1.09,1.09,0,0,1,.4,1.25,1.64,1.64,0,0,1-1.7,1.42,1.6,1.6,0,0,1-1.47-1.73.41.41,0,0,1,0-.11,1.1,1.1,0,0,1,1.22-1A1,1,0,0,1,50.28,45.56Zm2.79.17c.3.1.84,1.46.84,1.46s-1.31.05-1.62-.26-.21-1.1-.21-1.1a2.36,2.36,0,0,1,1-.1Zm-.17-6a1.09,1.09,0,0,1,.87-1.29,1,1,0,0,1,.38,0c.57.11,1.13,1.28.36,1.5a.36.36,0,0,1-.47-.19.45.45,0,0,1,0-.16c.34.33.54,0,.57-.19A.5.5,0,0,0,54,39a.49.49,0,0,0-.43.31.85.85,0,0,0,.51,1.09.84.84,0,0,0,.89-.19c.29-.21.82-.75.12-1.24s-.16-.82.14-.81.7.41.76,1.06a1.65,1.65,0,0,1-1.18,1.88,1.61,1.61,0,0,1-1.93-1.21.29.29,0,0,0,0-.09Zm4-2c.31,0,1.25,1.13,1.25,1.13s-1.24.45-1.62.25-.55-1-.55-1a2.61,2.61,0,0,1,.92-.4Zm.79-9c-.26.6-.76.87-1,.79s-.71-.56.11-.82.47-.93.26-1.21a.85.85,0,0,0-1.15-.38.87.87,0,0,0-.47.81.51.51,0,0,0,.56.46.51.51,0,0,0,.43-.31c0-.23-.06-.57-.49-.35a.36.36,0,0,1,.45-.26.37.37,0,0,1,.14.07c.67.45-.22,1.39-.8,1.32a1.1,1.1,0,0,1-.93-1.25,1.18,1.18,0,0,1,.12-.36A1.61,1.61,0,0,1,57,26.61l.09.05a1.64,1.64,0,0,1,.56,2.15Zm-4.1-7c.26-.1.93-.78,1.35-.2,0,.68-.94.66-1.21.68s-.55.26-.84,0c.12-.39.42-.39.69-.49Zm-3.62-6.94c.22-.18.64-1,1.23-.61.18.65-.69.92-.95,1s-.44.42-.79.27c0-.41.28-.5.5-.68Zm0,29.81c-.18-.22-.53-.29-.5-.67.39-.12.57.11.81.27s1.17.29.95,1c-.57.38-1.09-.37-1.27-.58Zm3.61-6.94c-.23-.15-.6-.11-.69-.48.34-.24.58-.07.86,0s1.2-.09,1.21.63c-.42.53-1.16,0-1.39-.16ZM54.83,30c-.27-.07-.6.08-.8-.25.24-.33.53-.24.81-.25s1.12-.45,1.35.23C56,30.37,55.09,30.07,54.83,30Zm1.88.68c-.82-.25-.41-.73-.12-.82s.79.18,1,.78a1.64,1.64,0,0,1-.54,2.15,1.61,1.61,0,0,1-2.2-.56l0-.08a1.11,1.11,0,0,1,.43-1.5,1.27,1.27,0,0,1,.36-.12c.58-.08,1.47.86.8,1.31a.35.35,0,0,1-.5,0,.29.29,0,0,1-.08-.14c.43.21.53-.13.48-.35a.5.5,0,0,0-.66-.28.52.52,0,0,0-.32.43.85.85,0,0,0,.82.89.84.84,0,0,0,.8-.46c.21-.28.55-1-.27-1.21Zm-1.52,5.26a.37.37,0,0,1,.5-.12.43.43,0,0,1,.11.12c.5.62-.63,1.25-1.16,1a1.09,1.09,0,0,1-.5-1.47,1.14,1.14,0,0,1,.23-.31,1.6,1.6,0,0,1,2.27,0l.07.07a1.63,1.63,0,0,1-.13,2.21,1.08,1.08,0,0,1-1.24.43c-.25-.17-.5-.75.36-.74s.74-.75.62-1.08a.85.85,0,0,0-1-.7.86.86,0,0,0-.69.62.51.51,0,0,0,.39.61.5.5,0,0,0,.5-.17c.11-.19.12-.54-.35-.47Zm-3.14,7.53a.37.37,0,0,1,.51.05.61.61,0,0,1,.07.14c.28.76-1,1-1.42.6a1.1,1.1,0,0,1,0-1.55,1.39,1.39,0,0,1,.31-.23,1.62,1.62,0,0,1,2.17.7l0,.09a1.64,1.64,0,0,1-.81,2.07,1.08,1.08,0,0,1-1.31,0c-.19-.24-.24-.87.57-.6s.93-.47.93-.83a.86.86,0,0,0-1.57-.59.52.52,0,0,0,.17.71.5.5,0,0,0,.54,0c.17-.16.28-.49-.18-.56Zm.07-28.77c-.81.28-.76-.35-.57-.59a1.08,1.08,0,0,1,1.31,0,1.64,1.64,0,0,1,.82,2.06,1.6,1.6,0,0,1-2.11.85L51.48,17A1.09,1.09,0,0,1,51,15.52a1.16,1.16,0,0,1,.22-.31c.42-.4,1.7-.16,1.42.59a.35.35,0,0,1-.43.27A.26.26,0,0,1,52,16c.47-.08.36-.41.19-.57a.51.51,0,0,0-.7.18.49.49,0,0,0,0,.52.85.85,0,0,0,1.18.25.87.87,0,0,0,.38-.85C53.06,15.17,52.94,14.42,52.12,14.7Zm3.56,7.63c-.86,0-.61-.57-.37-.74a1.08,1.08,0,0,1,1.25.42,1.63,1.63,0,0,1,.14,2.21,1.6,1.6,0,0,1-2.26.15.46.46,0,0,1-.07-.07,1.08,1.08,0,0,1,0-1.55,1,1,0,0,1,.3-.23c.53-.25,1.67.37,1.17,1a.37.37,0,0,1-.5.12l-.11-.11c.47.06.46-.29.35-.49a.52.52,0,0,0-.89.45.87.87,0,0,0,1.06.6.85.85,0,0,0,.61-.69C56.42,23.07,56.54,22.31,55.68,22.33Zm1.58,7.36s.45-.58.74-.66,1.54.69,1.54.69-1,.81-1.46.74-.82-.77-.82-.77Z" transform="translate(0 0)"/>
    <path id="logo_2" data-name="logo 2" class="cls-2" d="M40.5,33.55c2.8-2.8,4.07-5.71,1.61-10.24-2.28-4.2-7.53-4.06-11.7-.88-2.7-2.53-9.58-3.8-12.12,1.82-1.7,3.78-.87,6.48,1.9,9.25s10,9.34,10,9.34S37.7,36.35,40.5,33.55Z" transform="translate(0 0)"/>
    <path id="logo_3" data-name="logo 3" class="cls-1" d="M26.83,47.87c-3.56-2.65-8.57-3.22-9.28-4.08s-.43-1.72-4.16-6.35c-1.51-1.87,0-1.81-1.41-8.15-.17-.77.73-1.3,1.06-1.1s1.87,1.25,2.38,5.72c-.25-4.72-1.89-5.68-2.29-5.9,0-1.72.92-1.7,1.64-.15a13.36,13.36,0,0,1,.57,3.3c-.05-2.31-.62-3.44.07-2.61.24.29.36,1.16.6,3.28-.16-2-.24-2.32-.14-2.33.76-.13.8,1.45,1,2.14a20.35,20.35,0,0,0,.73,3.18c-2-.4-3.75.58-1.84,2.29,1.6,1.45,1.68,2.08,3,3,2.09,1.4,2.65,2.63,3.45,3.27-1.13-1.53-1.42-2.36-3.43-3.78A33.51,33.51,0,0,1,16,36.78c-1.68-1.33.15-2.16,2.06-1.54,1.67.44,3.61,3.92,5.75,3.65,5.24.41,10.49,2.53,11,10C31.47,49.57,28.72,48.13,26.83,47.87Z" transform="translate(0 0)"/>
    <path id="logo_4" data-name="logo 4" class="cls-1" d="M44.09,22.37c3.08,2.45,4.67,4.82,4,6s-3.53.93-7.21-.57c-.54,3.92-1.74,6.53-3.14,6.53s-2.6-2.55-3.17-6.5c-3.65,1.47-6.49,1.77-7.18.54s.9-3.53,4-6c-3.15-2.46-4.76-4.79-4.05-6s3.54-1,7.19.48c.56-3.89,1.76-6.49,3.17-6.49s2.6,2.64,3.17,6.5A22.41,22.41,0,0,1,43,16.17a1.06,1.06,0,0,1,.8-1.1,1,1,0,0,1,1.24.65c1.56-.21,2.67,0,3.08.7C48.79,17.64,47.17,19.94,44.09,22.37ZM27.84,28.08c.57,1.05,3.23.69,6.65-.68a22.3,22.3,0,0,1-.27-3.06,19,19,0,0,1-2.43-1.67C28.86,25,27.24,27,27.84,28.08Zm6.32-7.15c-.75.48-1.41,1-2,1.44.62.48,1.31.95,2,1.4,0-.42,0-.92,0-1.4s0-1,0-1.44Zm-6.32-4.25c-.6,1,1,3.14,3.95,5.39.75-.54,1.53-1.14,2.43-1.71a21.91,21.91,0,0,1,.3-3C31.1,16,28.44,15.63,27.84,16.68Zm12.87,8.05a10,10,0,0,1-1.2.75q-.63.36-1.29.66a19.13,19.13,0,0,0,2.25,1.05,20.48,20.48,0,0,0,.24-2.46Zm-3,9.1c1.2,0,2.22-2.4,2.69-6.17a21.33,21.33,0,0,1-2.69-1.28A21.71,21.71,0,0,1,35,27.66C35.5,31.38,36.52,33.83,37.72,33.83ZM35,27.19a18.27,18.27,0,0,0,2.24-1.05A7.56,7.56,0,0,1,36,25.48a9.27,9.27,0,0,1-1.2-.75A15.51,15.51,0,0,0,35,27.19ZM34.72,20c.36-.24.81-.48,1.23-.75a8.33,8.33,0,0,1,1.26-.65A19.77,19.77,0,0,0,35,17.55C34.85,18.27,34.78,19.14,34.72,20Zm3-9.1c-1.17,0-2.19,2.43-2.7,6.14.9.39,1.8.78,2.73,1.26.92-.48,1.85-.87,2.69-1.23C40,13.39,38.94,10.9,37.72,10.9Zm2.76,6.65c-.72.32-1.44.65-2.19,1q.63.3,1.23.66a10.87,10.87,0,0,1,1.2.75,15.53,15.53,0,0,0-.25-2.45Zm.26,3.08c-.47-.3-.92-.57-1.46-.9l-1.53-.84a17.16,17.16,0,0,0-1.52.81c-.54.3-1.11.66-1.53.93a16.57,16.57,0,0,0-.06,1.73,11.6,11.6,0,0,0,.08,1.77c.48.33,1,.63,1.5.93s1,.57,1.5.81L39.28,25c.48-.3,1-.57,1.46-.93,0-.51.06-1.1.06-1.73a16.86,16.86,0,0,0-.06-1.74Zm6.95,7.51c.6-1.08-1-3.17-4-5.48a26,26,0,0,1-2.46,1.74A20.6,20.6,0,0,1,41,27.34c3.5,1.46,6.13,1.85,6.73.8Zm-6.4-4.34c.69-.48,1.37-.93,2-1.44-.63-.48-1.26-.95-2-1.43,0,.45,0,.92,0,1.43s0,1,0,1.44Zm6.4-7.15c-.34-.58-1.26-.74-2.56-.55a1.06,1.06,0,0,1-.77,1,1.14,1.14,0,0,1-1.25-.53c-.67.2-1.4.46-2.16.76a21.72,21.72,0,0,1,.27,3q1.28.81,2.46,1.74c2.93-2.25,4.6-4.37,4-5.42Zm-10,6.94a1.21,1.21,0,0,1-1.23-1.22,1.23,1.23,0,0,1,2.46,0h0a1.2,1.2,0,0,1-1.2,1.22A0,0,0,0,1,37.72,23.59Z" transform="translate(0 0)"/>
  </g>
</svg>
