<svg xmlns="http://www.w3.org/2000/svg" width="77.218" height="77.21" viewBox="0 0 77.218 77.21"><defs><style>.a{fill:#fff;}.a,.b{fill-rule:evenodd;}.b{fill:#df0000;opacity:0.8;}</style></defs><g transform="translate(-162.313 -4.855)"><path class="a" d="M73.929,28.141c-.558.08-1.315-.614-1.315-.614a3.168,3.168,0,0,1,.654-1.124c.332-.229,2.17.243,2.17.243S74.488,28.061,73.929,28.141Zm-2.171-.469c-.392.012-1.1-.409-.186-1.053s.209-1.341-.163-1.606A1.111,1.111,0,0,0,69.592,26.2a.664.664,0,0,0,1.272-.213c-.037-.3-.3-.668-.737-.236a.469.469,0,0,1,.645-.462c1.006.279.288,1.8-.454,1.945a1.421,1.421,0,0,1-1.639-1.668,2.087,2.087,0,0,1,2.51-1.71,2.123,2.123,0,0,1,1.547,2.426C72.659,27.123,72.151,27.66,71.758,27.672ZM68.988,17.8c-.506.249-1.44-.179-1.44-.179a3.168,3.168,0,0,1,.275-1.271c.245-.32,2.139-.438,2.139-.438S69.495,17.55,68.988,17.8Zm-2.209.224c-.369.132-1.17-.051-.5-.944s-.215-1.34-.651-1.478a1.111,1.111,0,0,0-1.362,1.69.664.664,0,0,0,1.145-.595c-.126-.27-.49-.543-.774,0a.47.47,0,0,1,.471-.638c1.043-.045.829,1.623.168,1.99A1.421,1.421,0,0,1,63.2,16.969a2.086,2.086,0,0,1,1.86-2.4A2.123,2.123,0,0,1,67.28,16.4,1.4,1.4,0,0,1,66.779,18.022ZM61.042,67.073a1.4,1.4,0,0,1-1.625-.5c-.134-.369.046-1.17.942-.505s1.34-.219,1.476-.656A1.112,1.112,0,0,0,60.14,64.06a.664.664,0,0,0,.6,1.143c.27-.127.542-.492-.006-.774a.47.47,0,0,1,.64.469c.049,1.043-1.62.835-1.99.175a1.421,1.421,0,0,1,1.074-2.078,2.087,2.087,0,0,1,2.408,1.852A2.123,2.123,0,0,1,61.042,67.073Zm-.633-52.918a1.421,1.421,0,0,1-1.089-2.068c.364-.661,2.031-.88,1.99.162a.469.469,0,0,1-.636.473c.545-.286.271-.648,0-.773a.663.663,0,0,0-.59,1.146,1.11,1.11,0,0,0,1.683-1.367c-.139-.435-.589-1.315-1.479-.645s-1.077-.129-.946-.5a1.4,1.4,0,0,1,1.62-.506A2.123,2.123,0,0,1,62.8,12.289,2.083,2.083,0,0,1,60.409,14.155Zm-.735-4.4a3.166,3.166,0,0,1-.13-1.294c.135-.38,1.9-1.076,1.9-1.076s.06,1.7-.345,2.1S59.674,9.757,59.674,9.757Zm-.608.62c-.31.24-1.128.312-.769-.744s-.617-1.209-1.074-1.205a1.111,1.111,0,0,0-.775,2.027.664.664,0,0,0,.905-.919c-.2-.218-.633-.366-.735.241a.469.469,0,0,1,.251-.752c.978-.364,1.289,1.289.774,1.841a1.421,1.421,0,0,1-2.306-.389,2.087,2.087,0,0,1,1.029-2.857,2.123,2.123,0,0,1,2.676,1.057A1.4,1.4,0,0,1,59.066,10.378Zm-7.89,62.187c-.84-.074-1.38-.58-1.393-.973s.405-1.1,1.053-.19,1.342.2,1.606-.169a1.112,1.112,0,0,0-1.194-1.813.664.664,0,0,0,.217,1.272c.3-.038.667-.3.233-.738a.47.47,0,0,1,.464.643c-.275,1.007-1.8.294-1.947-.447A1.421,1.421,0,0,1,51.877,68.5a2.087,2.087,0,0,1,1.72,2.5A2.123,2.123,0,0,1,51.177,72.564Zm.638-63.9a1.421,1.421,0,0,1-1.673-1.632c.143-.741,1.66-1.463,1.943-.46a.469.469,0,0,1-.459.646c.43-.44.058-.7-.238-.735a.663.663,0,0,0-.208,1.272,1.11,1.11,0,0,0,1.18-1.819c-.267-.371-.966-1.069-1.606-.158s-1.064.209-1.053-.183.546-.9,1.385-.981A2.123,2.123,0,0,1,53.515,6.15,2.083,2.083,0,0,1,51.815,8.663ZM49.76,4.706a3.167,3.167,0,0,1-.522-1.191c.011-.4,1.475-1.61,1.475-1.61s.582,1.6.318,2.1S49.76,4.706,49.76,4.706Zm-.387.777c-.221.324-.977.645-.96-.47s-.96-.959-1.394-.815a1.111,1.111,0,0,0-.112,2.168.664.664,0,0,0,.578-1.153c-.261-.145-.715-.153-.625.456a.469.469,0,0,1,.007-.793c.818-.648,1.623.828,1.3,1.513a1.421,1.421,0,0,1-2.313.341,2.086,2.086,0,0,1,.1-3.036,2.123,2.123,0,0,1,2.871.181A1.4,1.4,0,0,1,49.373,5.483ZM40.1,74.746c-.776-.329-1.133-.977-1.025-1.355s.724-.92,1.06.144,1.214.608,1.58.335a1.112,1.112,0,0,0-.577-2.093.664.664,0,0,0-.185,1.277c.293.055.727-.081.449-.63a.47.47,0,0,1,.243.755c-.572.873-1.8-.275-1.714-1.026A1.421,1.421,0,0,1,42.017,71.1a2.087,2.087,0,0,1,.864,2.913A2.123,2.123,0,0,1,40.1,74.746ZM41.947,6.088a1.42,1.42,0,0,1-2.095-1.036c-.093-.749,1.128-1.9,1.706-1.036a.469.469,0,0,1-.238.756c.274-.551-.161-.683-.453-.626a.663.663,0,0,0,.194,1.274,1.11,1.11,0,0,0,.562-2.094c-.368-.271-1.248-.719-1.576.345s-.947.527-1.058.151S39.23,2.8,40,2.461a2.123,2.123,0,0,1,2.786.712A2.084,2.084,0,0,1,41.947,6.088Zm-3.174-3.13s-.75-.585-.864-.971S38.815,0,38.815,0s1.048,1.344.95,1.9S38.772,2.958,38.772,2.958Zm-.128.859c-.111.376-.73.915-1.059-.151s-1.209-.617-1.577-.346a1.111,1.111,0,0,0,.562,2.1.664.664,0,0,0,.194-1.275c-.293-.057-.727.075-.454.627a.47.47,0,0,1-.238-.757c.578-.869,1.8.288,1.707,1.037a1.421,1.421,0,0,1-2.1,1.037,2.087,2.087,0,0,1-.843-2.918,2.122,2.122,0,0,1,2.787-.713C38.4,2.79,38.755,3.44,38.644,3.816ZM31.76,73.566a2.123,2.123,0,0,1-2.873-.16,1.4,1.4,0,0,1-.558-1.6c.219-.325.972-.652.964.464s.967.953,1.4.805a1.112,1.112,0,0,0,.1-2.169.664.664,0,0,0-.57,1.158c.262.143.717.148.622-.461a.47.47,0,0,1,0,.793c-.813.654-1.63-.817-1.315-1.5a1.421,1.421,0,0,1,2.312-.357A2.087,2.087,0,0,1,31.76,73.566ZM31.3,6.767a1.421,1.421,0,0,1-2.318-.307c-.329-.68.455-2.167,1.282-1.531a.469.469,0,0,1,.018.792c.082-.61-.372-.6-.631-.447a.663.663,0,0,0,.594,1.144,1.111,1.111,0,0,0-.143-2.165c-.436-.138-1.414-.279-1.382.835s-.728.8-.954.484a1.4,1.4,0,0,1,.523-1.615,2.124,2.124,0,0,1,2.868-.223A2.085,2.085,0,0,1,31.3,6.767ZM26.158,4.182c-.233-.33.219-2.174.219-2.174S27.8,2.944,27.889,3.5s-.6,1.322-.6,1.322A3.169,3.169,0,0,1,26.158,4.182Zm1.286,1.5c.017.392-.4,1.1-1.051.2s-1.344-.195-1.605.18a1.112,1.112,0,0,0,1.207,1.805.664.664,0,0,0-.227-1.271c-.3.04-.665.306-.228.74a.47.47,0,0,1-.469-.64c.268-1.009,1.8-.307,1.951.433a1.421,1.421,0,0,1-1.651,1.658A2.088,2.088,0,0,1,23.634,6.29a2.124,2.124,0,0,1,2.41-1.573C26.884,4.784,27.427,5.287,27.444,5.679ZM21.318,69.712a2.123,2.123,0,0,1-2.684-1.038,1.4,1.4,0,0,1-.036-1.7c.309-.242,1.126-.321.774.738s.626,1.2,1.083,1.2a1.112,1.112,0,0,0,.761-2.034.664.664,0,0,0-.9.925c.205.217.636.361.734-.247a.47.47,0,0,1-.246.754c-.975.372-1.3-1.28-.787-1.836a1.421,1.421,0,0,1,2.309.373A2.087,2.087,0,0,1,21.318,69.712ZM19.552,11.032c-.523-.545-.235-2.2.748-1.852a.469.469,0,0,1,.262.748c-.11-.606-.538-.452-.738-.231a.663.663,0,0,0,.918.9,1.111,1.111,0,0,0-.8-2.015c-.457,0-1.431.17-1.057,1.22s-.444.99-.758.754a1.4,1.4,0,0,1,0-1.7,2.124,2.124,0,0,1,2.66-1.1,2.085,2.085,0,0,1,1.069,2.841A1.421,1.421,0,0,1,19.552,11.032Zm-2.647.245c-.9-.658-1.338.229-1.471.667a1.112,1.112,0,0,0,1.705,1.345.664.664,0,0,0-.607-1.139c-.269.129-.538.5.012.774a.47.47,0,0,1-.643-.464c-.056-1.042,1.615-.846,1.989-.19a1.421,1.421,0,0,1-1.059,2.086,2.088,2.088,0,0,1-2.422-1.835,2.123,2.123,0,0,1,1.807-2.24,1.4,1.4,0,0,1,1.629.484C17.981,11.132,17.806,11.935,16.905,11.276Zm-.746-1.539C15.837,9.495,15.7,7.6,15.7,7.6s1.645.451,1.9.955S17.433,10,17.433,10A3.168,3.168,0,0,1,16.159,9.737Zm-4.171,8.552c-.665-.357-.9-2.022.14-1.992a.469.469,0,0,1,.48.631c-.292-.542-.651-.264-.773.008a.663.663,0,0,0,1.152.578A1.111,1.111,0,0,0,11.6,15.844c-.434.144-1.309.6-.629,1.487s-.117,1.079-.488.951a1.4,1.4,0,0,1-.524-1.615A2.124,2.124,0,0,1,12.152,14.8a2.085,2.085,0,0,1,1.893,2.373A1.421,1.421,0,0,1,11.988,18.289ZM8.362,18.1c-.382-.131-1.1-1.889-1.1-1.889s1.7-.078,2.1.323.289,1.423.289,1.423A3.17,3.17,0,0,1,8.362,18.1Zm.283,7.73A1.421,1.421,0,0,1,7.03,27.525c-.743-.135-1.482-1.645-.481-1.938a.469.469,0,0,1,.651.452c-.444-.426-.7-.05-.733.246a.663.663,0,0,0,1.274.194,1.111,1.111,0,0,0-1.832-1.161c-.368.271-1.059.978-.14,1.609S5.99,27.99,5.6,27.983s-.907-.537-1-1.375A2.124,2.124,0,0,1,6.112,24.16,2.084,2.084,0,0,1,8.644,25.834ZM3.524,28.467C3.12,28.46,1.9,27.008,1.9,27.008s1.6-.6,2.1-.341.714,1.264.714,1.264A3.169,3.169,0,0,1,3.524,28.467ZM2.01,37.96c.557.092,1.069.982,1.069.982s-.577.757-.962.875-2-.886-2-.886S1.453,37.868,2.01,37.96ZM3.6,49.314c.558-.084,1.32.6,1.32.6a3.168,3.168,0,0,1-.646,1.129c-.33.231-2.173-.227-2.173-.227S3.046,49.4,3.6,49.314Zm2.175.453c.392-.015,1.1.4.194,1.052s-.2,1.343.175,1.606a1.112,1.112,0,0,0,1.809-1.2.664.664,0,0,0-1.271.222c.039.3.3.666.739.231a.47.47,0,0,1-.642.466c-1.008-.271-.3-1.8.44-1.949a1.422,1.422,0,0,1,1.652,1.657,2.087,2.087,0,0,1-2.5,1.729,2.124,2.124,0,0,1-1.565-2.415C4.882,50.324,5.387,49.782,5.779,49.767Zm2.842,9.857c.5-.252,1.442.169,1.442.169A3.168,3.168,0,0,1,9.8,61.065c-.243.322-2.137.454-2.137.454S8.116,59.876,8.621,59.624Zm4.77-2.377c0,.532-.369.656-.657.89s-.826,1.337-1.586.8c-.248-.845.883-1.2,1.217-1.332S12.929,57.06,13.391,57.247Zm-.938-37.782c.228.276.693.367.659.864-.507.161-.738-.146-1.051-.347s-1.528-.368-1.253-1.258C11.533,18.225,12.224,19.189,12.452,19.465ZM9.877,58.344c1.051-.37.988.448.752.761a1.4,1.4,0,0,1-1.7-.006,2.124,2.124,0,0,1-1.087-2.663,2.084,2.084,0,0,1,2.844-1.059,1.421,1.421,0,0,1,.415,2.3c-.547.521-2.2.227-1.849-.754A.469.469,0,0,1,10,56.664c-.606.108-.454.536-.233.737a.663.663,0,0,0,.908-.915,1.11,1.11,0,0,0-2.018.8C8.662,57.74,8.825,58.715,9.877,58.344ZM7.835,28.5c.3.193.772.136.893.618-.432.31-.747.089-1.107-.006s-1.567.121-1.58-.81C6.578,27.6,7.532,28.308,7.835,28.5ZM2.569,37.716a2.124,2.124,0,0,1,.682-2.794,2.084,2.084,0,0,1,2.925.811A1.421,1.421,0,0,1,5.162,37.84c-.748.1-1.917-1.108-1.055-1.7a.469.469,0,0,1,.758.23c-.554-.268-.682.168-.621.46a.663.663,0,0,0,1.272-.208,1.11,1.11,0,0,0-2.1-.539c-.267.371-.706,1.257.363,1.573s.538.942.163,1.057S2.912,38.486,2.569,37.716Zm.019,2.375c.327-.777.973-1.137,1.351-1.03s.923.721-.14,1.061-.6,1.216-.329,1.581a1.112,1.112,0,0,0,2.091-.584.664.664,0,0,0-1.278-.181c-.054.294.083.727.632.447a.47.47,0,0,1-.754.246c-.875-.569.268-1.8,1.019-1.718A1.422,1.422,0,0,1,6.242,42a2.087,2.087,0,0,1-2.91.874A2.124,2.124,0,0,1,2.588,40.092Zm3.625-.924c-.371.02-1.453.6-1.753-.284.3-.83,1.42-.454,1.767-.365s.776-.109,1.04.313C6.952,39.261,6.585,39.148,6.213,39.168Zm2.661,9.355c-.168.5-.553.51-.9.644s-1.2,1.017-1.755.27c.025-.88,1.211-.87,1.569-.892S8.493,48.2,8.875,48.523Zm-3.681-.039c1.114-.028.8.731.481.955a1.4,1.4,0,0,1-1.613-.529,2.124,2.124,0,0,1-.212-2.869,2.084,2.084,0,0,1,3.032-.13,1.421,1.421,0,0,1-.315,2.317c-.681.327-2.165-.463-1.526-1.288a.469.469,0,0,1,.792-.015c-.61-.084-.6.37-.449.63a.663.663,0,0,0,1.146-.59,1.11,1.11,0,0,0-2.165.135C4.224,47.534,4.079,48.512,5.193,48.484ZM5.7,30.822a.47.47,0,0,1-.793,0c-.657-.811.811-1.633,1.5-1.32a1.422,1.422,0,0,1,.366,2.311,2.087,2.087,0,0,1-3.038-.066,2.123,2.123,0,0,1,.15-2.874,1.4,1.4,0,0,1,1.6-.563c.326.218.656.97-.46.966s-.949.97-.8,1.4a1.112,1.112,0,0,0,2.17.089A.664.664,0,0,0,5.24,30.2C5.1,30.464,5.095,30.919,5.7,30.822Zm4.006-9.806a.47.47,0,0,1-.755-.243c-.375-.974,1.275-1.3,1.834-.794a1.421,1.421,0,0,1-.364,2.311,2.088,2.088,0,0,1-2.87-1A2.124,2.124,0,0,1,8.582,18.6a1.4,1.4,0,0,1,1.7-.042c.243.308.325,1.125-.735.777s-1.2.63-1.194,1.088a1.112,1.112,0,0,0,2.037.754.664.664,0,0,0-.929-.9C9.243,20.489,9.1,20.921,9.709,21.016Zm1.12,38.368c.368-.135,1.17.042.509.941s.224,1.339.661,1.474a1.112,1.112,0,0,0,1.351-1.7.664.664,0,0,0-1.141.6c.128.27.494.54.774-.009a.47.47,0,0,1-.467.641c-1.042.053-.841-1.618-.183-1.99a1.422,1.422,0,0,1,2.082,1.067,2.087,2.087,0,0,1-1.844,2.415,2.123,2.123,0,0,1-2.233-1.815A1.4,1.4,0,0,1,10.829,59.384Zm8.681,5.423c.277-.227.37-.691.866-.656.16.507-.149.738-.351,1.049s-.374,1.526-1.262,1.248C18.267,65.722,19.233,65.035,19.51,64.808ZM18.295,11.081c.844-.251,1.2.879,1.337,1.213s.546.563.36,1.025c-.532,0-.657-.367-.893-.654S17.759,11.842,18.295,11.081ZM17.229,63.207a1.421,1.421,0,0,1,1.1,2.061c-.36.664-2.025.895-1.991-.147a.469.469,0,0,1,.633-.477c-.543.289-.266.65.005.773a.663.663,0,0,0,.582-1.15,1.11,1.11,0,0,0-1.674,1.379c.142.434.6,1.311,1.484.635s1.078.121.95.492a1.4,1.4,0,0,1-1.617.518,2.124,2.124,0,0,1-1.855-2.2A2.084,2.084,0,0,1,17.229,63.207ZM18,67.6a3.168,3.168,0,0,1,.139,1.293c-.132.381-1.892,1.09-1.892,1.09s-.073-1.7.33-2.1S18,67.6,18,67.6Zm7.869,1.038a1.421,1.421,0,0,1,1.685,1.62c-.137.742-1.65,1.476-1.94.474a.469.469,0,0,1,.454-.649c-.427.443-.053.7.244.734a.663.663,0,0,0,.2-1.273,1.11,1.11,0,0,0-1.167,1.828c.269.369.974,1.062,1.608.146S28.01,71.3,28,71.693s-.54.905-1.378.991a2.124,2.124,0,0,1-2.442-1.52A2.084,2.084,0,0,1,25.864,68.639ZM28.052,7.873c-.135-.346-1.021-1.195-.277-1.754.881.022.875,1.208.9,1.566s.346.7.027,1.086C28.194,8.6,28.187,8.22,28.052,7.873Zm1.1,60.694c.308.434.086.747-.01,1.107s.115,1.567-.816,1.577c-.7-.539.011-1.491.2-1.793S28.666,68.687,29.149,68.568Zm-1.2,4.014a3.168,3.168,0,0,1,.531,1.187c-.008.4-1.464,1.621-1.464,1.621s-.594-1.6-.333-2.1S27.948,72.582,27.948,72.582Zm7.805-1.438a1.421,1.421,0,0,1,2.1,1.021c.1.748-1.115,1.912-1.7,1.049a.469.469,0,0,1,.232-.757c-.27.553.166.682.458.623a.663.663,0,0,0-.2-1.273,1.11,1.11,0,0,0-.547,2.1c.37.268,1.254.711,1.574-.357s.944-.534,1.057-.159-.234,1.028-1.005,1.368a2.123,2.123,0,0,1-2.792-.693A2.084,2.084,0,0,1,35.753,71.143ZM38.9,72.87c-.829-.3-.449-1.422-.358-1.768s-.106-.777.317-1.039c.427.317.312.685.332,1.056S39.78,72.574,38.9,72.87Zm-.083-68.53c.826.3.439,1.424.345,1.77s.1.777-.324,1.036c-.425-.32-.307-.687-.324-1.058S37.931,4.629,38.815,4.339Zm.136,69.912s.754.579.871.966-.893,1.993-.893,1.993-1.058-1.337-.964-1.894S38.951,74.251,38.951,74.251Zm6.981-3.775a1.421,1.421,0,0,1,2.315.323c.324.682-.471,2.163-1.293,1.522a.469.469,0,0,1-.013-.792c-.086.609.368.6.628.451a.663.663,0,0,0-.586-1.148A1.11,1.11,0,0,0,47.111,73c.435.141,1.412.289,1.388-.825s.733-.8.957-.477a1.4,1.4,0,0,1-.535,1.611,2.123,2.123,0,0,1-2.869.2A2.084,2.084,0,0,1,45.932,70.476ZM48.53,8.71c-.305-.436-.081-.748.018-1.106s-.1-1.567.827-1.57c.692.544-.022,1.49-.217,1.791S49.014,8.595,48.53,8.71Zm.926,62.439c-.88-.028-.866-1.214-.886-1.572s-.34-.706-.019-1.086c.5.17.508.555.641.9S50.2,70.6,49.456,71.149Zm1.6,1.948c.23.331-.235,2.171-.235,2.171s-1.418-.946-1.5-1.5.61-1.317.61-1.317A3.169,3.169,0,0,1,51.059,73.1ZM58.14,12.538c-.279.225-.374.688-.87.649-.156-.508.154-.736.358-1.047s.385-1.523,1.271-1.239C59.389,11.633,58.418,12.313,58.14,12.538Zm.829,53.719c-.846.244-1.2-.888-1.327-1.222s-.542-.567-.353-1.027c.532.007.654.371.888.661S59.509,65.5,58.968,66.257Zm-1.257.04c.519.549.219,2.2-.761,1.846a.469.469,0,0,1-.256-.75c.106.606.535.455.736.236a.663.663,0,0,0-.911-.911,1.11,1.11,0,0,0,.788,2.02c.457,0,1.432-.16,1.066-1.213s.451-.986.763-.749a1.4,1.4,0,0,1-.012,1.7,2.123,2.123,0,0,1-2.667,1.077A2.084,2.084,0,0,1,55.409,66.7,1.421,1.421,0,0,1,57.711,66.3Zm3.383,1.319c.321.244.446,2.138.446,2.138s-1.641-.462-1.891-.968.174-1.441.174-1.441A3.168,3.168,0,0,1,61.094,67.616Zm4.231-8.52c.663.362.888,2.028-.154,1.991a.469.469,0,0,1-.475-.634c.288.544.649.268.773,0a.663.663,0,0,0-1.148-.586,1.11,1.11,0,0,0,1.373,1.679c.435-.141,1.313-.594.64-1.482s.125-1.077.495-.948a1.4,1.4,0,0,1,.512,1.619,2.123,2.123,0,0,1-2.2,1.846,2.084,2.084,0,0,1-1.875-2.386A1.421,1.421,0,0,1,65.325,59.1Zm3.624.212c.381.133,1.084,1.9,1.084,1.9s-1.7.066-2.1-.338-.279-1.424-.279-1.424A3.169,3.169,0,0,1,68.949,59.308Zm-.227-7.73A1.421,1.421,0,0,1,70.348,49.9c.742.14,1.47,1.655.467,1.941a.469.469,0,0,1-.647-.457c.441.429.7.055.735-.241a.663.663,0,0,0-1.272-.2,1.11,1.11,0,0,0,1.823,1.174c.37-.268,1.066-.97.152-1.607s-.213-1.063.179-1.054.9.543.986,1.382a2.123,2.123,0,0,1-1.528,2.436A2.084,2.084,0,0,1,68.722,51.578Zm5.138-2.6c.4.01,1.615,1.47,1.615,1.47s-1.6.588-2.1.326-.7-1.269-.7-1.269A3.169,3.169,0,0,1,73.86,48.983Zm1.018-11.615c-.332.775-.981,1.13-1.358,1.02s-.917-.727.147-1.059.612-1.211.34-1.578a1.111,1.111,0,0,0-2.095.569.664.664,0,0,0,1.276.19c.056-.293-.078-.727-.629-.452a.47.47,0,0,1,.756-.24c.871.575-.281,1.8-1.031,1.71a1.421,1.421,0,0,1-1.045-2.092,2.087,2.087,0,0,1,2.915-.853A2.123,2.123,0,0,1,74.879,37.368Zm-5.32-9.112c.348-.132,1.2-1.008,1.756-.258-.031.88-1.217.861-1.574.88s-.707.338-1.086.015C68.827,28.391,69.211,28.388,69.559,28.256Zm-4.693-9c.29-.232.835-1.33,1.591-.787.242.847-.892,1.194-1.226,1.323s-.568.539-1.028.349C64.211,19.609,64.576,19.488,64.866,19.256Zm0,38.662c-.226-.278-.69-.372-.652-.868.508-.158.737.151,1.048.355s1.524.379,1.244,1.267C65.779,59.164,65.1,58.2,64.869,57.918Zm4.681-9c-.3-.195-.771-.141-.888-.625.435-.307.748-.083,1.106.014s1.567-.109,1.573.821C70.8,49.823,69.852,49.113,69.551,48.918Zm1.678-10c-.346-.092-.777.1-1.038-.32.319-.426.686-.31,1.057-.328s1.457-.587,1.75.3C72.7,39.389,71.575,39.006,71.229,38.913Zm2.443.877c-1.066-.324-.53-.946-.155-1.058s1.027.238,1.364,1.01a2.123,2.123,0,0,1-.7,2.789,2.084,2.084,0,0,1-2.918-.832,1.42,1.42,0,0,1,1.029-2.1c.749-.1,1.908,1.122,1.043,1.7a.469.469,0,0,1-.757-.235c.552.272.683-.163.625-.456a.663.663,0,0,0-1.273.2,1.11,1.11,0,0,0,2.1.554C74.292,41,74.738,40.115,73.672,39.79ZM71.7,46.613a.47.47,0,0,1,.793,0c.651.816-.823,1.626-1.509,1.309a1.421,1.421,0,0,1-.349-2.312,2.087,2.087,0,0,1,3.036.088,2.123,2.123,0,0,1-.17,2.872,1.4,1.4,0,0,1-1.607.552c-.325-.22-.649-.975.467-.962s.956-.963.81-1.4a1.112,1.112,0,0,0-2.168-.1.664.664,0,0,0,1.155.574C72.3,46.975,72.307,46.52,71.7,46.613Zm-4.075,9.774a.47.47,0,0,1,.753.249c.368.977-1.284,1.294-1.839.78a1.421,1.421,0,0,1,.381-2.308,2.087,2.087,0,0,1,2.862,1.02,2.123,2.123,0,0,1-1.048,2.68,1.4,1.4,0,0,1-1.7.03c-.241-.31-.317-1.127.741-.771s1.206-.622,1.2-1.079a1.112,1.112,0,0,0-2.031-.768.664.664,0,0,0,.922.9C68.085,56.917,68.231,56.487,67.623,56.387Zm.1-37.318c-1.054.363-.984-.455-.746-.766a1.4,1.4,0,0,1,1.7.018,2.123,2.123,0,0,1,1.067,2.67,2.083,2.083,0,0,1-2.851,1.038,1.421,1.421,0,0,1-.4-2.3c.55-.517,2.2-.211,1.843.767a.469.469,0,0,1-.75.254c.606-.1.457-.533.238-.735a.663.663,0,0,0-.914.908,1.11,1.11,0,0,0,2.023-.781C68.934,19.682,68.777,18.706,67.724,19.069Zm4.611,9.891c-1.114.02-.8-.736-.474-.958a1.4,1.4,0,0,1,1.609.54,2.123,2.123,0,0,1,.192,2.869,2.084,2.084,0,0,1-3.032.108,1.421,1.421,0,0,1,.331-2.314c.683-.322,2.161.479,1.517,1.3a.469.469,0,0,1-.792.01c.609.088.6-.366.453-.626a.663.663,0,0,0-1.15.582,1.11,1.11,0,0,0,2.165-.119C73.3,29.916,73.449,28.939,72.335,28.96Zm2.045,9.554s.582-.752.968-.867,1.99.9,1.99.9S76,39.6,75.441,39.5,74.38,38.513,74.38,38.513Z" transform="translate(162.193 4.855)"/><path class="b" d="M26.077,14.736c3.059-3.059,4.446-6.234,1.761-11.177C25.35-1.021,19.621-.869,15.065,2.6c-2.951-2.761-10.454-4.148-13.226,2C-.018,8.712.891,11.656,3.916,14.681s10.955,10.2,10.955,10.2S23.018,17.8,26.077,14.736Z" transform="translate(186.557 32.853)"/><path class="a" d="M16.964,23.446c-3.889-2.9-9.355-3.519-10.121-4.454s-.476-1.878-4.547-6.93c-1.646-2.043.03-1.972-1.537-8.9-.188-.833.8-1.421,1.162-1.2.442.273,2.033,1.366,2.591,6.247C4.241,3.068,2.45,2.011,2.02,1.78,2.012-.1,3.017-.078,3.8,1.62a14.234,14.234,0,0,1,.621,3.6c-.046-2.523-.677-3.76.08-2.846.261.316.392,1.261.659,3.575C4.985,3.743,4.893,3.415,5,3.4c.829-.135.874,1.583,1.139,2.341a22.3,22.3,0,0,0,.789,3.469c-2.219-.443-4.084.627-2,2.5C6.681,13.28,6.76,13.97,8.208,14.937,10.491,16.46,11.1,17.8,11.976,18.5c-1.241-1.671-1.562-2.576-3.752-4.118A39.658,39.658,0,0,1,5.15,11.34c-1.823-1.446.176-2.358,2.258-1.672,1.823.472,3.938,4.267,6.272,3.982,5.715.448,11.451,2.754,12.02,10.9C22.025,25.3,19.023,23.727,16.964,23.446Z" transform="translate(180.751 39.771)"/><path class="a" d="M18.91,13.057c3.363,2.678,5.094,5.257,4.343,6.563-.718,1.339-3.853,1.012-7.869-.62-.588,4.277-1.893,7.118-3.428,7.118s-2.841-2.775-3.462-7.085c-3.983,1.6-7.085,1.926-7.837.587-.751-1.306.98-3.853,4.409-6.563C1.637,10.379-.126,7.832.657,6.559c.751-1.338,3.854-1.077,7.837.523C9.115,2.836,10.42,0,11.956,0s2.84,2.873,3.461,7.086c.809-.318,1.583-.584,2.31-.794a1.155,1.155,0,0,1,.877-1.2,1.115,1.115,0,0,1,1.35.712c1.7-.234,2.917,0,3.365.763C24.037,7.9,22.274,10.412,18.91,13.057ZM1.179,19.293c.621,1.143,3.527.751,7.25-.751a25.3,25.3,0,0,1-.294-3.331A20.784,20.784,0,0,1,5.49,13.383C2.289,15.9.527,18.15,1.179,19.293Zm6.89-7.8c-.816.523-1.535,1.078-2.187,1.567.686.522,1.437,1.045,2.187,1.535-.033-.457-.033-1.012-.033-1.535S8.036,12.012,8.069,11.489ZM1.179,6.853c-.653,1.11,1.11,3.428,4.311,5.878.816-.588,1.665-1.241,2.645-1.861a23.979,23.979,0,0,1,.326-3.3C4.739,6.1,1.833,5.71,1.179,6.853ZM15.22,15.636a12.8,12.8,0,0,1-1.305.817,14.391,14.391,0,0,1-1.4.718,20.248,20.248,0,0,0,2.449,1.143A21.13,21.13,0,0,0,15.22,15.636Zm-3.265,9.926c1.305,0,2.416-2.612,2.939-6.726a21.771,21.771,0,0,1-2.939-1.4,24.255,24.255,0,0,1-2.972,1.4C9.539,22.885,10.649,25.563,11.956,25.563Zm-3-7.249A20.256,20.256,0,0,0,11.4,17.171a9.069,9.069,0,0,1-1.372-.718,9.987,9.987,0,0,1-1.305-.817A16.708,16.708,0,0,0,8.951,18.314ZM8.69,10.478c.392-.262.882-.523,1.338-.817A9.11,9.11,0,0,1,11.4,8.942,20.3,20.3,0,0,0,8.951,7.8C8.821,8.584,8.755,9.53,8.69,10.478ZM11.956.551c-1.274,0-2.384,2.645-2.94,6.694.981.424,1.96.849,2.972,1.371,1.012-.522,2.025-.947,2.939-1.339C14.4,3.261,13.294.551,11.956.551Zm3,7.249c-.783.359-1.568.718-2.384,1.142a13.5,13.5,0,0,1,1.339.718,11.375,11.375,0,0,1,1.305.817A16.806,16.806,0,0,0,14.959,7.8Zm.294,3.363c-.522-.326-1.012-.62-1.6-.98-.587-.327-1.142-.62-1.665-.914q-.833.392-1.665.881c-.588.327-1.208.718-1.665,1.012a18.213,18.213,0,0,0-.066,1.894,11.982,11.982,0,0,0,.1,1.926c.522.359,1.077.686,1.632,1.012.555.294,1.11.62,1.633.882.555-.294,1.11-.588,1.7-.914.523-.327,1.078-.621,1.6-1.012,0-.555.066-1.208.066-1.894A17.279,17.279,0,0,0,15.253,11.163Zm7.576,8.2c.654-1.175-1.11-3.461-4.376-5.975a29.568,29.568,0,0,1-2.678,1.894,22.642,22.642,0,0,1-.294,3.2C19.3,20.077,22.176,20.5,22.829,19.359Zm-6.988-4.734c.751-.523,1.5-1.012,2.187-1.568-.686-.523-1.371-1.045-2.187-1.567.033.49.033,1.012.033,1.567S15.874,14.135,15.841,14.624Zm6.988-7.8c-.366-.628-1.366-.8-2.79-.594a1.161,1.161,0,0,1-.837,1.1,1.246,1.246,0,0,1-1.366-.584c-.733.221-1.524.5-2.355.834a24.118,24.118,0,0,1,.294,3.265,29.619,29.619,0,0,1,2.678,1.894C21.654,10.281,23.482,7.963,22.829,6.82ZM11.956,14.4a1.339,1.339,0,1,1,1.338-1.339A1.325,1.325,0,0,1,11.956,14.4Z" transform="translate(197.641 22.332)"/><g transform="translate(171.366 13.591)"><path class="a" d="M59.382,29l-1.395.053-.014-.372,1.395-.053-.017-.45.334-.013.048,1.271-.334.013Zm-1.33-1.457a.428.428,0,0,1-.118-.112.378.378,0,0,1-.057-.12.715.715,0,0,1-.021-.121c0-.045-.007-.1-.01-.161s0-.1,0-.123l.376-.034,0,.022a.456.456,0,0,0-.008.073.682.682,0,0,0,0,.1.454.454,0,0,0,.036.153.114.114,0,0,0,.064.068l1.237-.7.036.4-.785.43.843.222.034.385-1.425-.4A.71.71,0,0,1,58.052,27.539Zm1.086-1.487-1.382.195-.052-.368,1.382-.195-.063-.446.331-.047.178,1.26L59.2,26.5Zm-1.6-1.19,1.13-.223-1.246-.365-.068-.348,1.7-.334.07.355-1.023.2,1.13.345.077.389-1.7.334Zm1.008-1.933-1.353.343-.091-.36,1.353-.343-.111-.436.324-.082.313,1.233-.324.082ZM58.5,21.884l-.4.121-.012-.041q.019-.034.043-.084a.92.92,0,0,0,.045-.111.613.613,0,0,0,.026-.128.345.345,0,0,0-.014-.134.38.38,0,0,0-.071-.134.36.36,0,0,0-.132-.1.5.5,0,0,0-.194-.038.866.866,0,0,0-.263.043.83.83,0,0,0-.249.115.485.485,0,0,0-.136.142.343.343,0,0,0-.049.153.407.407,0,0,0,.015.145.388.388,0,0,0,.062.121.483.483,0,0,0,.1.1.825.825,0,0,0,.094.064q.048.028.082.045l.011.037-.4.12-.082-.083a.755.755,0,0,1-.072-.086,1.062,1.062,0,0,1-.074-.116.886.886,0,0,1-.062-.159.76.76,0,0,1-.031-.3.627.627,0,0,1,.095-.273.788.788,0,0,1,.225-.226,1.41,1.41,0,0,1,.729-.223.834.834,0,0,1,.318.06.632.632,0,0,1,.238.172.73.73,0,0,1,.148.272,1.02,1.02,0,0,1,.036.161.992.992,0,0,1,.008.139.867.867,0,0,1-.013.127Q58.513,21.839,58.5,21.884Zm-2.132-1.342.715-.263-.19-.515-.715.263-.129-.349,1.624-.6.129.349-.594.219.19.515.594-.219.129.349-1.624.6Zm-.6-1.532,1.055-.462-1.295-.087-.142-.325,1.585-.694.145.332-.955.418,1.178.092.159.363-1.585.694Zm-.923-2.284a.423.423,0,0,1-.153-.056.379.379,0,0,1-.1-.088.717.717,0,0,1-.067-.1q-.032-.06-.073-.143t-.052-.112l.333-.179.011.02a.442.442,0,0,0,.021.07.68.68,0,0,0,.041.093.453.453,0,0,0,.093.126.113.113,0,0,0,.086.037l.863-1.129.191.355-.553.7.863-.128.183.34-1.468.193A.7.7,0,0,1,54.848,16.726Zm.252-2.061-.256.155.323.534-.286.173-.323-.534-.366.221.349.576-.286.173-.54-.892,1.48-.9.54.892-.286.173Zm-.6-.938-1.157.781-.208-.308,1.157-.781-.252-.373.277-.187.712,1.055-.277.187Zm-.815-1.163-1.117.836-.223-.3,1.117-.836-.27-.36.268-.2.763,1.019-.268.2Zm-.773-.673a.773.773,0,0,1-.2.119.528.528,0,0,1-.205.045.541.541,0,0,1-.451-.219l-.148-.178-.433.36-.238-.286,1.331-1.106.391.471a.81.81,0,0,1,.126.2.5.5,0,0,1,.041.183.44.44,0,0,1-.05.215A.646.646,0,0,1,52.913,11.892Zm-.17-.5a.3.3,0,0,0-.049-.107q-.033-.044-.092-.115l-.041-.049-.4.331.068.082a.722.722,0,0,0,.111.111.207.207,0,0,0,.109.044.22.22,0,0,0,.1-.017.431.431,0,0,0,.107-.068.233.233,0,0,0,.076-.106A.19.19,0,0,0,52.744,11.391Zm-1.136-1.333-.22.2.423.459-.246.227-.423-.459-.315.29.456.5-.246.227-.707-.767L51.6,9.559l.706.767-.246.227Zm-.8-.4a.382.382,0,0,1-.248-.043l-.012.012a.51.51,0,0,1,.053.1.357.357,0,0,1,.023.126A.388.388,0,0,1,50.6,10a.463.463,0,0,1-.106.152.587.587,0,0,1-.19.132.437.437,0,0,1-.213.034.614.614,0,0,1-.229-.069,1.033,1.033,0,0,1-.241-.183,1.287,1.287,0,0,1-.3-.456l.274-.278.025.024q.006.032.021.1a.86.86,0,0,0,.037.119,1.087,1.087,0,0,0,.058.126.479.479,0,0,0,.086.11.6.6,0,0,0,.11.087.291.291,0,0,0,.108.041.223.223,0,0,0,.105-.006.25.25,0,0,0,.1-.066.3.3,0,0,0,.064-.09.158.158,0,0,0,.01-.086.229.229,0,0,0-.04-.087.76.76,0,0,0-.084-.1L50,9.316l.217-.22.183.18a.511.511,0,0,0,.1.078.188.188,0,0,0,.083.029.147.147,0,0,0,.073-.015.274.274,0,0,0,.067-.053.134.134,0,0,0,.037-.141.415.415,0,0,0-.113-.166.527.527,0,0,0-.111-.085,1.124,1.124,0,0,0-.116-.057.833.833,0,0,0-.107-.035l-.089-.023L50.2,8.782l.255-.259a1.551,1.551,0,0,1,.227.113,1.227,1.227,0,0,1,.237.183.74.74,0,0,1,.24.391.363.363,0,0,1-.11.324A.413.413,0,0,1,50.81,9.661ZM48.979,8.6l.224-.248.549.5-.224.248Zm-.895.026.73-.89-1.193.511-.274-.225,1.1-1.338.28.23-.661.806,1.092-.453.306.251-1.1,1.338ZM46.757,7.582l.676-.941-.656.455-.208-.15.222-.767-.676.941-.285-.2,1.01-1.405.351.252-.243.894.769-.516.351.252L47.057,7.8ZM45.208,6.513l.907-1.474.317.195-.907,1.474Zm.174-.545a.651.651,0,0,1-.156.177.466.466,0,0,1-.185.09.492.492,0,0,1-.217,0,.73.73,0,0,1-.213-.094L44.044,5.8l.907-1.474.317.195-.338.549.255.157a.962.962,0,0,1,.2.151.393.393,0,0,1,.095.171.4.4,0,0,1,0,.207A.759.759,0,0,1,45.382,5.968Zm-.29-.342a.181.181,0,0,0-.035-.08.343.343,0,0,0-.1-.082l-.2-.123-.231.375.2.123a.307.307,0,0,0,.1.042.189.189,0,0,0,.089,0,.192.192,0,0,0,.069-.036.256.256,0,0,0,.057-.066.42.42,0,0,0,.036-.073A.164.164,0,0,0,45.092,5.626Zm-1.7-.179.649-1.235-.365-.192-.09.155-.088.148a3.854,3.854,0,0,1-.217.331,1.963,1.963,0,0,1-.174.206.935.935,0,0,1-.141.119.619.619,0,0,1-.115.061.345.345,0,0,1-.145.022.355.355,0,0,1-.148-.041Q42.513,5,42.47,4.971l-.055-.037.18-.343.012.006.016.011.022.013a.291.291,0,0,0,.075.03.11.11,0,0,0,.055,0,.465.465,0,0,0,.2-.171,4.293,4.293,0,0,0,.257-.4q.061-.1.131-.229t.157-.286l1,.526L43.72,5.621Zm-1.5-.753.7-1.583.34.15-.7,1.583Zm.1-.564a.654.654,0,0,1-.131.2.466.466,0,0,1-.171.114.492.492,0,0,1-.215.033.731.731,0,0,1-.224-.064l-.609-.269.7-1.583.34.15-.261.59.274.121a.961.961,0,0,1,.215.124.394.394,0,0,1,.117.156.4.4,0,0,1,.028.2A.763.763,0,0,1,41.992,4.131Zm-.333-.3a.18.18,0,0,0-.045-.075.344.344,0,0,0-.108-.068l-.214-.095-.178.4.214.095a.307.307,0,0,0,.108.027.189.189,0,0,0,.088-.013.192.192,0,0,0,.064-.045.252.252,0,0,0,.048-.074.408.408,0,0,0,.026-.078A.165.165,0,0,0,41.659,3.831ZM40.292,2.524l-.117.315.288.107-.094.254-.288-.107-.275.74-.349-.13.275-.74-.147-.055.094-.254.147.055.234-.628.975.362-.117.314Zm-2.182.743.176-.61L38.091,2.6l-.525.509-.423-.122.613-.57a.5.5,0,0,1-.144-.24.621.621,0,0,1,.018-.331.515.515,0,0,1,.111-.209.488.488,0,0,1,.164-.121.425.425,0,0,1,.176-.033.814.814,0,0,1,.215.035l.648.187-.479,1.663Zm.214-1.408a1,1,0,0,0-.127-.03.167.167,0,0,0-.1.019.184.184,0,0,0-.069.059.319.319,0,0,0-.057.2A.2.2,0,0,0,38,2.2a.161.161,0,0,0,.071.065.851.851,0,0,0,.124.044l.175.05L38.5,1.91Zm-1.724,1,.254-1.123-.837.991-.346-.078L36.052.965l.353.08-.23,1.017.773-.894.386.087-.381,1.688Zm-1.573-1.74L34.792,2.5l-.367-.063L34.717.731l1.025.175-.056.33ZM33.973,2.159a.733.733,0,0,1-1.084-.126,1.012,1.012,0,0,1-.12-.676,1.014,1.014,0,0,1,.272-.632.735.735,0,0,1,1.083.126,1.011,1.011,0,0,1,.121.678A1.012,1.012,0,0,1,33.973,2.159Zm-.111-.942a.552.552,0,0,0-.058-.185.294.294,0,0,0-.231-.16.3.3,0,0,0-.136.015.321.321,0,0,0-.125.086.53.53,0,0,0-.1.169,1.037,1.037,0,0,0-.061.26,1.015,1.015,0,0,0,0,.265.561.561,0,0,0,.057.185.307.307,0,0,0,.1.114.3.3,0,0,0,.132.048A.3.3,0,0,0,33.581,2a.311.311,0,0,0,.124-.089.56.56,0,0,0,.1-.176,1.081,1.081,0,0,0,.055-.248A1.009,1.009,0,0,0,33.862,1.217Zm-1.848.958L32.091.781,31.679.758l-.018.178q-.007.065-.018.171a3.87,3.87,0,0,1-.06.392,1.99,1.99,0,0,1-.072.26.941.941,0,0,1-.079.167.617.617,0,0,1-.079.1.344.344,0,0,1-.123.081.355.355,0,0,1-.152.024c-.032,0-.066-.005-.1-.01l-.066-.011.021-.386h.014l.02,0,.026,0a.292.292,0,0,0,.081,0,.11.11,0,0,0,.048-.026.465.465,0,0,0,.115-.241A4.318,4.318,0,0,0,31.3.993q.013-.12.024-.262t.024-.325l1.129.062-.095,1.728Zm-1.963-.02a.664.664,0,0,1-.547-.24,1.012,1.012,0,0,1-.2-.656A1.014,1.014,0,0,1,29.5.6a.735.735,0,0,1,1.09-.007,1.01,1.01,0,0,1,.2.658,1.012,1.012,0,0,1-.194.658A.665.665,0,0,1,30.051,2.154Zm.32-1.169a.555.555,0,0,0-.079-.176.3.3,0,0,0-.382-.1.32.32,0,0,0-.114.1.529.529,0,0,0-.078.18,1.029,1.029,0,0,0-.029.266,1.013,1.013,0,0,0,.031.263A.561.561,0,0,0,29.8,1.7a.309.309,0,0,0,.114.1.3.3,0,0,0,.137.032.3.3,0,0,0,.136-.034.31.31,0,0,0,.113-.1.559.559,0,0,0,.079-.187A1.069,1.069,0,0,0,30.4,1.25,1.012,1.012,0,0,0,30.372.985ZM28.754,2.155l-.47-.67-.091.006.045.7-.371.024L27.755.485l.371-.024.045.7a.336.336,0,0,0,.075-.016.144.144,0,0,0,.053-.034.354.354,0,0,0,.052-.073,1.072,1.072,0,0,0,.056-.117q.018-.043.04-.1t.037-.1a.64.64,0,0,1,.142-.233A.389.389,0,0,1,28.869.41l.088,0,.057,0,.024.375-.107.007a.158.158,0,0,0-.12.057.664.664,0,0,0-.086.178,1.137,1.137,0,0,1-.076.177.255.255,0,0,1-.061.074l.621.854Zm-1.407-.093a.678.678,0,0,1-.217.2.773.773,0,0,1-.3.1.946.946,0,0,1-.171.006,1.061,1.061,0,0,1-.145-.018q-.069-.014-.126-.031L26.3,2.289,26.252,1.9l.036,0q.032.025.078.056a.64.64,0,0,0,.1.053.716.716,0,0,0,.132.041.51.51,0,0,0,.3-.034.342.342,0,0,0,.122-.088.445.445,0,0,0,.088-.151.608.608,0,0,0,.029-.227l-.638.076-.039-.328.629-.075a.514.514,0,0,0-.076-.168.4.4,0,0,0-.108-.1A.354.354,0,0,0,26.77.9a.436.436,0,0,0-.132,0,.468.468,0,0,0-.145.04A.678.678,0,0,0,26.373,1a.646.646,0,0,0-.087.081l-.062.071-.04,0L26.136.768q.05-.034.093-.06a1.273,1.273,0,0,1,.114-.058A.938.938,0,0,1,26.479.6a1.094,1.094,0,0,1,.162-.032A.753.753,0,0,1,26.949.6.646.646,0,0,1,27.2.741a.786.786,0,0,1,.18.254,1.2,1.2,0,0,1,.095.358,1.3,1.3,0,0,1-.009.4A.806.806,0,0,1,27.347,2.062ZM24.069,1.035l1.023-.2.065.328-.66.13.058.293.613-.121.065.328-.613.121.082.42.66-.13.065.328-1.023.2ZM23.5,2.162l-.532.135.187.739-.36.091L22.365,1.45l.361-.091.156.614.532-.135-.156-.614.36-.091.425,1.677-.36.091ZM21.86,3.448a.584.584,0,0,1-.561-.085.921.921,0,0,1-.232-.264,2.636,2.636,0,0,1-.193-.5l.971-.293q-.118-.245-.282-.274a.377.377,0,0,0-.177.013.47.47,0,0,0-.221.15,1.04,1.04,0,0,0-.108.171l-.036.011L20.905,2a.96.96,0,0,1,.433-.274.612.612,0,0,1,.574.09,1.073,1.073,0,0,1,.357.571,1.068,1.068,0,0,1,.018.672A.61.61,0,0,1,21.86,3.448Zm.092-.81-.615.186a.953.953,0,0,0,.049.1.41.41,0,0,0,.251.22.257.257,0,0,0,.13-.005.261.261,0,0,0,.181-.2A.655.655,0,0,0,21.952,2.639Zm-1.584-.156a.151.151,0,0,0-.032.054.272.272,0,0,0-.011.082q0,.049,0,.1a1.627,1.627,0,0,1,0,.18.218.218,0,0,1-.03.1l.777.651-.416.163-.6-.527-.083.033.259.661-.344.135-.259-.661-.088.035-.082.795-.412.161.127-1a.224.224,0,0,1-.085-.048.993.993,0,0,1-.123-.133.878.878,0,0,0-.065-.072.322.322,0,0,0-.065-.05.171.171,0,0,0-.067-.021.151.151,0,0,0-.069.011l-.079.031-.139-.354.056-.024.085-.035a.376.376,0,0,1,.246-.023.511.511,0,0,1,.218.154c.017.018.039.044.067.077s.052.061.073.083a.607.607,0,0,0,.162.134.164.164,0,0,0,.132,0L19.251,2.5,19.6,2.37l.262.669a.176.176,0,0,0,.1-.088.6.6,0,0,0,.027-.21q0-.049,0-.108t0-.1a.512.512,0,0,1,.054-.258.365.365,0,0,1,.194-.151l.086-.032.057-.02.137.349-.079.031A.166.166,0,0,0,20.368,2.483ZM17.8,4.657l-.477.239.067.358-.335.168-.3-1.785.383-.192L18.39,4.752l-.343.172Zm-.659-.718.119.634.317-.159Zm-.59,1.77-.381-.66-.476.274.381.66-.322.186-.864-1.5.322-.186.316.549L16,4.758l-.316-.549.322-.186.864,1.5Zm-1.409.85L14.509,5.6l.135,1.291-.3.2-.953-1.444.3-.2.574.87-.11-1.177.331-.218.953,1.444Zm-1.2.4.438.582-.273.205-.239-.318-.872.655L11.954,6.7l.3-.223.84,1.119.437-.328-.841-1.119.3-.223.841,1.119Zm-1.5,1.586-.747-.877.291,1.265-.27.23L10.588,7.848l.276-.235.676.794-.252-1.155.3-.257,1.122,1.317Zm-1.148.543.508.529-.246.237-.28-.291-.631.607.28.291-.246.237-.508-.529.079-.076a3.123,3.123,0,0,0-.318-.578,4.573,4.573,0,0,0-.482-.587l.775-.746.967,1.005Zm-1.105-.407-.26.25a3.761,3.761,0,0,1,.349.474,3.023,3.023,0,0,1,.228.441l.417-.4Zm-1.161,1.6.426-.457.245.228-.426.457.313.292.459-.492.245.228-.711.763-1.266-1.18.711-.763.245.228-.459.492Zm.065,1.575-.892-.739L8.6,11.8l-.164.2-.749-.274.892.739-.224.27-1.332-1.1L7.3,11.3l.875.3-.462-.8.276-.333,1.332,1.1ZM6.669,13.115a.6.6,0,0,1,.111.264l.664.027.12-.173.6.415-.195.281L7.641,13.7l-.065.094-.817-.048-.052.075.574.4-.212.306-1.422-.986.212-.306.58.4a.213.213,0,0,0,.04-.131.6.6,0,0,0-.082-.2q-.037-.061-.109-.184a.6.6,0,0,1-.095-.263.412.412,0,0,1,.088-.236l.043-.059.043-.059.308.214-.061.088a.171.171,0,0,0-.025.15A.739.739,0,0,0,6.669,13.115Zm0,2.036L5.187,14.26l.192-.319,1.483.892Zm-1.289.037a.964.964,0,0,1,.149-.2.394.394,0,0,1,.17-.1.4.4,0,0,1,.207,0,.759.759,0,0,1,.216.09.656.656,0,0,1,.179.154.466.466,0,0,1,.092.184.492.492,0,0,1,.006.217.731.731,0,0,1-.092.214l-.343.57-1.483-.892.192-.319.553.332Zm.5.649.121-.2a.308.308,0,0,0,.041-.1A.181.181,0,0,0,6,15.376a.25.25,0,0,0-.067-.057.411.411,0,0,0-.074-.035.163.163,0,0,0-.078-.008.178.178,0,0,0-.08.036.342.342,0,0,0-.081.1l-.121.2ZM5.622,16.98,4.38,16.343l-.188.367.156.089.149.086a3.85,3.85,0,0,1,.334.214,1.975,1.975,0,0,1,.208.171.933.933,0,0,1,.12.14.62.62,0,0,1,.063.115.345.345,0,0,1,.024.145.355.355,0,0,1-.04.148q-.022.043-.05.087l-.036.056-.344-.177.006-.012.011-.017.013-.022a.29.29,0,0,0,.029-.075.11.11,0,0,0,0-.055.465.465,0,0,0-.174-.2,4.307,4.307,0,0,0-.4-.253q-.1-.06-.23-.128l-.287-.154.516-1.007,1.54.789Zm-.734,1.505-.58-.256-.082.185L4.66,19l-.178.4L4,18.722a.5.5,0,0,1-.257.11.622.622,0,0,1-.325-.063.515.515,0,0,1-.192-.138.486.486,0,0,1-.1-.179.425.425,0,0,1-.009-.179.814.814,0,0,1,.063-.209l.272-.617,1.583.7ZM3.6,17.915l-.074.168a1,1,0,0,0-.047.121.167.167,0,0,0,.005.1.184.184,0,0,0,.049.077.3.3,0,0,0,.088.058.291.291,0,0,0,.1.026.205.205,0,0,0,.091-.016.162.162,0,0,0,.074-.062.852.852,0,0,0,.06-.117l.073-.167Zm.688,2.012-1.079-.4.87.963-.124.332-1.621-.605.127-.339.977.365-.782-.886.139-.371,1.621.605Zm-.735,1.034.7.213-.1.327-.38-.116-.319,1.043-1.655-.506.109-.355,1.338.409.16-.522-1.338-.409.109-.356,1.338.409ZM3.3,23l-.364.015-.126.519.316.18-.089.364L1.482,23.15l.1-.416,1.807-.108Zm-1.337.052.56.319.084-.345Zm.97,1.58L1.8,24.424l1.025.8-.064.349-1.7-.311.065-.356,1.025.188-.925-.735.071-.39,1.7.312Zm-.546,1.147.728.088-.041.339-.4-.049-.105.869.4.049-.041.339L2.2,27.326l.013-.109A3.116,3.116,0,0,0,1.6,26.97a4.582,4.582,0,0,0-.745-.15l.129-1.068,1.384.168Zm-1.114.383-.043.358a3.762,3.762,0,0,1,.57.147,3.013,3.013,0,0,1,.455.2l.07-.575ZM2.5,27.814l-.355.078-.033.533.343.122-.023.374L.74,28.281l.027-.427,1.76-.423ZM1.2,28.1l.608.216.022-.354Zm-.2.958a.648.648,0,0,1,.257-.044.773.773,0,0,1,.227.036.527.527,0,0,1,.186.1.54.54,0,0,1,.2.458l0,.231.564,0,0,.372L.693,30.2.7,29.588a.814.814,0,0,1,.03-.232.5.5,0,0,1,.087-.166A.441.441,0,0,1,.992,29.058Zm.544.777v-.106a.728.728,0,0,0-.013-.157.207.207,0,0,0-.055-.1.219.219,0,0,0-.088-.053.429.429,0,0,0-.126-.017.233.233,0,0,0-.126.032.188.188,0,0,0-.074.076.3.3,0,0,0-.032.113q0,.055,0,.147v.064Zm58.173,1.3L59.7,31.5l-1.73-.043.009-.372Zm-.628-.712a.963.963,0,0,1-.032.246.4.4,0,0,1-.1.168.405.405,0,0,1-.179.1.762.762,0,0,1-.233.028.652.652,0,0,1-.232-.046.465.465,0,0,1-.171-.114.492.492,0,0,1-.112-.186A.726.726,0,0,1,58,30.389l.016-.665,1.73.043-.009.372-.645-.016Zm-.755-.318-.006.234a.305.305,0,0,0,.016.11.189.189,0,0,0,.046.076.192.192,0,0,0,.066.042.255.255,0,0,0,.086.016.414.414,0,0,0,.082-.006.163.163,0,0,0,.072-.032.179.179,0,0,0,.052-.07.344.344,0,0,0,.022-.125l.006-.234Z" transform="translate(-0.693 -0.352)"/><path class="a" d="M45.5,3.8l-.966-.627.64,1.129-.193.3-1.451-.942.2-.3.874.568-.571-1.035.216-.332,1.451.942Zm-.943,1.387L43.631,4.5,44.2,5.664l-.212.284L42.6,4.913l.217-.29.835.623-.5-1.07.237-.317L44.77,4.894Zm-2.209.553,1.069.9-.239.285L41.85,5.807l.669-.8.256.215Zm.018.807a1.013,1.013,0,0,1,.343.594.733.733,0,0,1-.749.794,1.013,1.013,0,0,1-.614-.307,1.014,1.014,0,0,1-.344-.6.735.735,0,0,1,.748-.793A1.01,1.01,0,0,1,42.363,6.544ZM41.7,6.6a.295.295,0,0,0-.266.09.3.3,0,0,0-.069.118.319.319,0,0,0-.006.152.529.529,0,0,0,.076.181,1.035,1.035,0,0,0,.172.2,1.015,1.015,0,0,0,.212.159A.562.562,0,0,0,42,7.568a.309.309,0,0,0,.151-.013.3.3,0,0,0,.117-.077.3.3,0,0,0,.07-.122.312.312,0,0,0,0-.153.563.563,0,0,0-.081-.186,1.081,1.081,0,0,0-.166-.192,1.014,1.014,0,0,0-.213-.16A.555.555,0,0,0,41.7,6.6Zm-.2,2.07-.95-1.022-.3.281.116.136.111.132a3.839,3.839,0,0,1,.241.315,1.971,1.971,0,0,1,.137.232.927.927,0,0,1,.065.173.611.611,0,0,1,.02.129.346.346,0,0,1-.027.144.355.355,0,0,1-.088.126q-.035.033-.076.065l-.053.04-.264-.283.01-.009.016-.012.02-.017a.291.291,0,0,0,.053-.061.108.108,0,0,0,.014-.053.464.464,0,0,0-.094-.25,4.3,4.3,0,0,0-.292-.375q-.078-.092-.172-.2l-.217-.243.828-.77,1.178,1.267Zm-1.182.79a.733.733,0,0,1-.846.689,1.2,1.2,0,0,1-.831-1.021.734.734,0,0,1,.846-.688,1.193,1.193,0,0,1,.832,1.021Zm-.367.017a.56.56,0,0,0-.055-.2,1.079,1.079,0,0,0-.139-.213,1.009,1.009,0,0,0-.191-.187.555.555,0,0,0-.172-.087.3.3,0,0,0-.36.161.321.321,0,0,0-.026.15.529.529,0,0,0,.052.189,1.04,1.04,0,0,0,.144.225,1.017,1.017,0,0,0,.189.185.561.561,0,0,0,.172.088.309.309,0,0,0,.152.007.3.3,0,0,0,.126-.061.3.3,0,0,0,.085-.112A.311.311,0,0,0,39.947,9.477Zm-1.6.139a.657.657,0,0,0,.021.2A1.134,1.134,0,0,1,38.4,10a.259.259,0,0,1-.013.1l.978.4L39,10.761l-.752-.321-.074.053.406.568-.3.216L37.266,9.87l.3-.216.41.574a.342.342,0,0,0,.055-.053.144.144,0,0,0,.027-.057.347.347,0,0,0,.006-.089,1.063,1.063,0,0,0-.015-.129q-.008-.046-.02-.108t-.02-.1a.64.64,0,0,1,0-.273.389.389,0,0,1,.164-.2l.073-.05.047-.032.218.305-.088.062A.158.158,0,0,0,38.352,9.616Zm-.789,1.068a1.3,1.3,0,0,1,.164.368.8.8,0,0,1,.021.329.677.677,0,0,1-.111.275.774.774,0,0,1-.232.218.945.945,0,0,1-.153.079,1.058,1.058,0,0,1-.139.045q-.068.017-.127.026l-.09.012L36.69,11.7l.03-.019c.027.006.058.012.094.017a.641.641,0,0,0,.111.006.721.721,0,0,0,.137-.019.511.511,0,0,0,.252-.157.344.344,0,0,0,.073-.132.443.443,0,0,0,.015-.174.61.61,0,0,0-.071-.218l-.544.342-.176-.279.536-.337a.512.512,0,0,0-.14-.119.4.4,0,0,0-.142-.048.355.355,0,0,0-.137.009.437.437,0,0,0-.121.052.468.468,0,0,0-.114.1.68.68,0,0,0-.078.117.653.653,0,0,0-.045.11c-.011.036-.019.066-.026.09l-.034.022-.21-.335c.02-.035.04-.066.059-.094a1.227,1.227,0,0,1,.079-.1.934.934,0,0,1,.1-.1,1.093,1.093,0,0,1,.133-.1.753.753,0,0,1,.288-.111.646.646,0,0,1,.292.022.783.783,0,0,1,.271.152A1.192,1.192,0,0,1,37.563,10.684Zm-1.756,2.069-.524-1.025-.009,1.3-.316.161-.788-1.541.322-.165.475.928.021-1.182.353-.18.788,1.541Zm-2.775-.6.346-.135.63,1.612-.346.135Zm.184.941a.756.756,0,0,1,.116.2.653.653,0,0,1,.047.232.467.467,0,0,1-.039.2.491.491,0,0,1-.128.176.732.732,0,0,1-.2.114l-.62.242-.63-1.612.346-.135.235.6L32.618,13a.963.963,0,0,1,.239-.065.393.393,0,0,1,.193.027A.4.4,0,0,1,33.216,13.089Zm-.237.355a.409.409,0,0,0-.037-.073.164.164,0,0,0-.057-.054.18.18,0,0,0-.085-.02.343.343,0,0,0-.124.029l-.218.085.16.41.218-.085a.3.3,0,0,0,.1-.057.188.188,0,0,0,.053-.072A.192.192,0,0,0,33,13.531.258.258,0,0,0,32.978,13.445Zm-1.3,1.037-.226-.728-.524.162.226.728-.355.11L30.291,13.1l.355-.11.188.6.524-.162-.187-.6.355-.11.512,1.653Zm-1.581.454-.271-1.119-.311,1.26-.344.083-.406-1.682.352-.085.245,1.013.3-1.144.385-.093.407,1.682ZM29,15.607l-.337.059-.068-.391-1.074.188-.3-1.7.366-.064.241,1.378.538-.094L28.124,13.6l.366-.064.241,1.378.14-.024Zm-2.323-1.2-.47,1.21-.352.038-.188-1.72.36-.039.113,1.036.441-1.1.394-.043.188,1.72-.36.039Zm-1.416,1.28-.875.039.018.4-.342.015-.033-.733.109,0a3.12,3.12,0,0,0,.143-.644,4.582,4.582,0,0,0,.026-.76l1.075-.048.062,1.393.142-.006.033.733-.342.015Zm-.234-1.381-.36.016a3.762,3.762,0,0,1-.051.587,3.037,3.037,0,0,1-.121.482l.578-.026Zm-1.8.031,0,.3.625.009,0,.335-.625-.009L23.2,15.4l.673.009,0,.335-1.043-.014L22.853,14l1.043.014,0,.335Zm-1.126,1.354.088-1.155-.323.73-.256-.02-.21-.77L21.3,15.633l-.35-.027.131-1.725.431.033.258.89.388-.841.431.033-.131,1.725Zm-2.527-.279.194-1.135-.784,1.034-.349-.06.292-1.706.357.061L19.1,14.636l.724-.934.39.067-.291,1.706Zm.021-1.862a.548.548,0,0,1-.356-.186.438.438,0,0,1-.077-.357l.321.055a.316.316,0,0,0,.013.188.225.225,0,0,0,.294.05.315.315,0,0,0,.075-.172l.321.055a.438.438,0,0,1-.192.311A.549.549,0,0,1,19.585,13.552Zm-1.383,1.4A.733.733,0,0,1,17.14,14.7a1.2,1.2,0,0,1,.3-1.281.735.735,0,0,1,1.061.252,1.193,1.193,0,0,1-.3,1.281Zm0-.949a.555.555,0,0,0-.035-.19.3.3,0,0,0-.347-.187.322.322,0,0,0-.135.071.528.528,0,0,0-.118.156,1.033,1.033,0,0,0-.091.251,1.014,1.014,0,0,0-.032.263.56.56,0,0,0,.035.19.307.307,0,0,0,.087.124.3.3,0,0,0,.266.063.312.312,0,0,0,.134-.074.562.562,0,0,0,.121-.163,1.082,1.082,0,0,0,.084-.24A1.009,1.009,0,0,0,18.2,14Zm-1.931.667.222-.729-.525-.16-.222.729L15.39,14.4l.5-1.655.356.108-.185.606.525.16.185-.606.356.108-.5,1.655Zm-1.578-.517.267-.714-.514-.192-.267.714-.348-.13.606-1.621.348.13-.222.593.514.192.222-.593.348.13-.606,1.621Zm-1.222-.7a.733.733,0,0,1-1-.445,1.2,1.2,0,0,1,.537-1.2.735.735,0,0,1,1,.445,1.193,1.193,0,0,1-.536,1.2Zm.177-1.125a.3.3,0,0,0-.306-.249.321.321,0,0,0-.146.044.53.53,0,0,0-.145.132,1.036,1.036,0,0,0-.136.23,1.015,1.015,0,0,0-.08.252.561.561,0,0,0,0,.194.309.309,0,0,0,.062.139.3.3,0,0,0,.111.085.3.3,0,0,0,.138.025.311.311,0,0,0,.145-.048A.56.56,0,0,0,13.44,13a1.078,1.078,0,0,0,.127-.22,1.012,1.012,0,0,0,.081-.254A.554.554,0,0,0,13.648,12.33Zm-2.009.5.535-1.02-1.065.742-.314-.165.8-1.533.321.168-.484.923.977-.665.351.184-.8,1.533Zm-.895-.847-.378.623-.292-.177.206-.34-.932-.565.9-1.48.318.193-.725,1.2.467.283.725-1.2.318.193-.725,1.2Zm-1.888-.788.116-.345-.439-.3-.281.231-.308-.213L9.365,9.44l.352.243L9.172,11.41Zm-.069-.858.292.2.206-.611ZM7.5,10.216l.71-.907-1.181.538-.279-.218L7.813,8.266l.285.223-.642.821,1.081-.478.312.244L7.783,10.439Zm-.724-1-.487.548L6.031,9.54l.268-.3-.655-.581-.268.3L5.12,8.732l.487-.548.082.073a3.123,3.123,0,0,0,.551-.362,4.573,4.573,0,0,0,.548-.527l.8.714L6.667,9.124Zm.319-1.134-.269-.239a3.76,3.76,0,0,1-.445.386,3.024,3.024,0,0,1-.422.262l.433.384Zm-2.025.033L5.243,7.8l-.377-.377L4.548,7.6l-.265-.265,1.6-.847.3.3-.847,1.6Zm.65-1.17-.564.313.251.251ZM5.1,6.467a.774.774,0,0,1-.192.126.529.529,0,0,1-.2.052.541.541,0,0,1-.458-.2l-.154-.173-.42.376L3.421,6.37,4.71,5.216l.408.456a.814.814,0,0,1,.133.192.5.5,0,0,1,.048.181.441.441,0,0,1-.042.216A.648.648,0,0,1,5.1,6.467Zm-.188-.494a.3.3,0,0,0-.053-.1q-.035-.043-.1-.112l-.043-.048-.385.345.071.079a.727.727,0,0,0,.115.107.207.207,0,0,0,.11.04.219.219,0,0,0,.1-.021.43.43,0,0,0,.1-.072A.233.233,0,0,0,4.9,6.079.189.189,0,0,0,4.909,5.973ZM2.538,5.28l.92-.693L2.178,4.8l-.213-.283L3.346,3.477l.218.289-.832.627L3.9,4.211l.238.316L2.756,5.569ZM1.556,3.92l.961-.634-1.291.135-.2-.3,1.444-.953.2.3-.87.574,1.177-.109L3.2,3.27l-1.444.953Zm-.9-1.431.661-.379-.273-.476L.38,2.012.195,1.69,1.7.829l.185.323-.549.315.273.476.549-.315.185.323-1.5.861Z" transform="translate(6.589 40.737)"/><path class="a" d="M56.019,2.5l-.6-.246-1.206.09.16-.392.735-.035-.5-.531.155-.379.78.894.619.254Zm-1.363.136-.018.038-.1.042a.947.947,0,0,0-.112.059.6.6,0,0,0-.114.091A.471.471,0,0,0,54.225,3a.443.443,0,0,0-.045.177.412.412,0,0,0,.035.176.5.5,0,0,0,.119.163.8.8,0,0,0,.209.138A.67.67,0,0,0,55,3.727a.46.46,0,0,0,.3-.274l.019-.043q.01-.024.017-.044l-.307-.145-.123.26-.3-.139.284-.6.773.364a1.7,1.7,0,0,1-.028.271,1.177,1.177,0,0,1-.1.307.722.722,0,0,1-.463.419.978.978,0,0,1-.689-.094.969.969,0,0,1-.5-.467.728.728,0,0,1,.026-.635,1.166,1.166,0,0,1,.143-.232,1.085,1.085,0,0,1,.233-.207ZM54.32,4.144a1.013,1.013,0,0,1,.484.486.665.665,0,0,1-.046.6.664.664,0,0,1-.473.364,1.013,1.013,0,0,1-.672-.139,1.013,1.013,0,0,1-.486-.488.665.665,0,0,1,.046-.595A.667.667,0,0,1,53.645,4,1.01,1.01,0,0,1,54.32,4.144Zm-.432.24a.553.553,0,0,0-.193-.015.3.3,0,0,0-.271.287.321.321,0,0,0,.033.148.53.53,0,0,0,.12.155,1.038,1.038,0,0,0,.219.153,1.018,1.018,0,0,0,.246.1.561.561,0,0,0,.193.016.309.309,0,0,0,.143-.052.3.3,0,0,0,.094-.1.3.3,0,0,0,.036-.136.313.313,0,0,0-.037-.149.561.561,0,0,0-.126-.159,1.08,1.08,0,0,0-.21-.143A1.014,1.014,0,0,0,53.888,4.384Zm.127,1.425.286.174-.54.889-1.479-.9.193-.318,1.193.724ZM52.9,6.629a1.012,1.012,0,0,1,.433.532.733.733,0,0,1-.612.9,1.2,1.2,0,0,1-1.09-.738.735.735,0,0,1,.612-.9A1.01,1.01,0,0,1,52.9,6.629Zm-.792.2a.305.305,0,0,0-.151.221.321.321,0,0,0,.018.151.531.531,0,0,0,.1.166,1.032,1.032,0,0,0,.2.174,1.016,1.016,0,0,0,.234.123.562.562,0,0,0,.191.035.308.308,0,0,0,.147-.037.3.3,0,0,0,.1-.095.3.3,0,0,0,.049-.132.311.311,0,0,0-.022-.151.56.56,0,0,0-.109-.171,1.079,1.079,0,0,0-.195-.163,1.012,1.012,0,0,0-.236-.124.553.553,0,0,0-.19-.034A.3.3,0,0,0,52.106,6.828Zm-.422.978-.094.015a.918.918,0,0,0-.116.029.6.6,0,0,0-.119.054.346.346,0,0,0-.1.09.382.382,0,0,0-.066.137.361.361,0,0,0,0,.163.5.5,0,0,0,.084.179.868.868,0,0,0,.189.188.828.828,0,0,0,.24.133.486.486,0,0,0,.2.027.344.344,0,0,0,.152-.05.407.407,0,0,0,.108-.1.386.386,0,0,0,.062-.122.485.485,0,0,0,.021-.137.818.818,0,0,0,0-.114q-.006-.055-.012-.093l.023-.031.33.25q-.01.061-.019.116a.753.753,0,0,1-.027.109,1.06,1.06,0,0,1-.05.128.878.878,0,0,1-.093.144.762.762,0,0,1-.225.2.626.626,0,0,1-.276.084.788.788,0,0,1-.316-.049,1.282,1.282,0,0,1-.343-.192A1.268,1.268,0,0,1,50.96,8.7a.832.832,0,0,1-.139-.292.629.629,0,0,1,0-.293.726.726,0,0,1,.133-.28,1,1,0,0,1,.109-.123.981.981,0,0,1,.107-.088.865.865,0,0,1,.11-.064c.036-.017.068-.031.1-.043l.334.253ZM50.5,9.482,50.9,9l.257.214-.4.48.328.274.431-.517.257.214-.668.8L49.775,9.36l.668-.8.257.214-.431.517Zm-.4,1.475a.762.762,0,0,1,.049.371.646.646,0,0,1-.084.241,1.293,1.293,0,0,1-.186.235l-.354.365-1.243-1.2.364-.376a1.152,1.152,0,0,1,.237-.194.644.644,0,0,1,.222-.085.743.743,0,0,1,.375.036,1.031,1.031,0,0,1,.373.242A.987.987,0,0,1,50.094,10.956Zm-.342.142a.768.768,0,0,0-.175-.235.743.743,0,0,0-.246-.166.4.4,0,0,0-.251-.014.379.379,0,0,0-.114.052.976.976,0,0,0-.134.121l-.065.068.778.753.065-.067a.931.931,0,0,0,.125-.15.38.38,0,0,0,.046-.124A.406.406,0,0,0,49.751,11.1Zm-.759,1.571-1.255-.458.805.873-.251.231-1.173-1.272.327-.3,1.059.372-.672-.729.251-.231,1.173,1.272ZM47.841,13.7l-.3-.206-.412.34.145.334-.289.239-.691-1.673.33-.272,1.512,1Zm-1.1-.759L47,13.53l.274-.226Zm-.609,1.691.194.273-.85.6-1-1.411.85-.6.194.273-.549.39.173.243.509-.361.194.273-.509.362.248.349Zm-1.262,1.277-1.153-.675.636,1-.288.183-.927-1.461.375-.238.975.555-.531-.837.288-.183.927,1.461Zm-1.425.513.205-.117.152.266-.734.418-.152-.267.205-.117-.553-.97-.205.117-.152-.267.734-.418.152.267-.205.117ZM42.3,16.042l-.091-.027a.936.936,0,0,0-.117-.024.6.6,0,0,0-.131,0,.342.342,0,0,0-.13.038.381.381,0,0,0-.119.094.36.36,0,0,0-.072.147.5.5,0,0,0,0,.2.864.864,0,0,0,.089.251.828.828,0,0,0,.158.224.486.486,0,0,0,.164.109.347.347,0,0,0,.159.021.41.41,0,0,0,.14-.041.388.388,0,0,0,.108-.083.485.485,0,0,0,.079-.115.839.839,0,0,0,.046-.1c.012-.035.022-.065.029-.089l.034-.018.189.368-.067.1a.765.765,0,0,1-.072.087,1.074,1.074,0,0,1-.1.094.884.884,0,0,1-.146.089.761.761,0,0,1-.29.085.625.625,0,0,1-.285-.044.789.789,0,0,1-.263-.181,1.41,1.41,0,0,1-.351-.677.836.836,0,0,1,0-.323.632.632,0,0,1,.126-.265.729.729,0,0,1,.241-.195,1,1,0,0,1,.152-.064.983.983,0,0,1,.135-.033.865.865,0,0,1,.127-.01l.105,0,.192.373Zm-.849,1.431.128.279-.767.353-.128-.279.215-.1-.467-1.014-.215.1-.128-.279.767-.353.128.279-.215.1.467,1.014Zm-1.084.361a.763.763,0,0,1-.105.359.648.648,0,0,1-.175.186,1.285,1.285,0,0,1-.265.14l-.471.191-.649-1.6.485-.2a1.142,1.142,0,0,1,.3-.081.644.644,0,0,1,.237.013.745.745,0,0,1,.328.185,1.031,1.031,0,0,1,.243.372A.984.984,0,0,1,40.365,17.834Zm-.435-.295a.744.744,0,0,0-.158-.252.4.4,0,0,0-.223-.114.377.377,0,0,0-.125,0,.968.968,0,0,0-.171.056l-.087.035.406,1,.087-.035a.927.927,0,0,0,.175-.086.381.381,0,0,0,.092-.095.406.406,0,0,0,.068-.229A.771.771,0,0,0,39.931,17.539Zm-1.279.257.109.316-.59.2.14.4.636-.22.109.316-.986.341L37.5,17.523l.986-.341.109.316-.636.22.1.282Zm-1.286,1.581-.318-1.114-.051.8-.247.07-.463-.65.318,1.114-.337.1-.475-1.664.415-.118.55.746.073-.924.415-.118.475,1.664Zm-3.3-.423.23,1.165-.334.066-.335-1.7.436-.086.708.871L34.58,18.3l.334-.066.335,1.7L34.9,20Zm-1.116,1.419a.663.663,0,0,1-.575-.162,1.2,1.2,0,0,1-.191-1.3.734.734,0,0,1,1.079-.158,1.193,1.193,0,0,1,.191,1.3A.665.665,0,0,1,32.952,20.373Zm.223-.944a1.007,1.007,0,0,0-.068-.258.557.557,0,0,0-.1-.163.295.295,0,0,0-.265-.1.3.3,0,0,0-.127.049.321.321,0,0,0-.1.115.531.531,0,0,0-.052.189,1.037,1.037,0,0,0,.008.267,1.018,1.018,0,0,0,.067.256.56.56,0,0,0,.1.164.308.308,0,0,0,.127.084.3.3,0,0,0,.14.012.3.3,0,0,0,.13-.053.312.312,0,0,0,.1-.118.563.563,0,0,0,.053-.2A1.077,1.077,0,0,0,33.175,19.429Zm-2.051.8.235-.022-.1-1.112-.235.022-.028-.305.841-.078.028.305-.235.022.1,1.112.235-.022.028.305-.841.078Zm-.58.345-.371.02L30.1,19.2l-.45.024-.018-.334,1.271-.067.018.334-.45.024Zm-1.268.049-.1-.349-.534,0-.1.35h-.375l.526-1.732.428,0,.539,1.728ZM28.9,19.34l-.175.621.355,0Zm-1.058-.152L27.8,20.3l.236.01-.012.307-.844-.034.012-.307.236.009.045-1.116-.236-.009.012-.307.844.034-.012.307Zm-.938.954a.761.761,0,0,1-.257.272.647.647,0,0,1-.24.087,1.292,1.292,0,0,1-.3,0l-.507-.044.149-1.724.521.045a1.153,1.153,0,0,1,.3.061.645.645,0,0,1,.206.119.744.744,0,0,1,.209.314,1.032,1.032,0,0,1,.048.442A.984.984,0,0,1,26.907,20.142Zm-.28-.755a.4.4,0,0,0-.147-.2.38.38,0,0,0-.112-.056.972.972,0,0,0-.178-.027l-.094-.008L26,20.171l.094.008a.938.938,0,0,0,.2,0,.379.379,0,0,0,.125-.042.406.406,0,0,0,.165-.173.77.77,0,0,0,.072-.284A.743.743,0,0,0,26.626,19.387Zm-1.66.641-.528-.074-.148.332-.371-.052.768-1.64.424.059.287,1.788-.38-.053Zm-.134-.965-.262.589.351.049Zm-1,.2a.591.591,0,0,1-.246.157l.332.819-.446-.086-.265-.7-.169-.033-.121.623-.363-.07.329-1.7.612.119a1.2,1.2,0,0,1,.213.059.427.427,0,0,1,.155.107.421.421,0,0,1,.1.172.5.5,0,0,1,0,.237A.591.591,0,0,1,23.83,19.258Zm-.256-.426a.158.158,0,0,0-.061-.086.243.243,0,0,0-.082-.039c-.032-.009-.071-.018-.114-.026l-.132-.026-.088.458.112.022a.891.891,0,0,0,.148.018.2.2,0,0,0,.108-.028.226.226,0,0,0,.071-.067.314.314,0,0,0,.04-.111A.256.256,0,0,0,23.574,18.832Zm-1.855-.025a.59.59,0,0,1-.257.138l.27.842-.438-.119-.212-.715-.166-.045-.167.612-.357-.1.454-1.669.6.164a1.2,1.2,0,0,1,.207.075.429.429,0,0,1,.146.118.418.418,0,0,1,.085.179.5.5,0,0,1-.015.236A.591.591,0,0,1,21.719,18.808Zm-.224-.444a.158.158,0,0,0-.055-.091.246.246,0,0,0-.079-.045c-.032-.011-.069-.023-.112-.035l-.13-.035-.122.45.11.03a.9.9,0,0,0,.147.029.2.2,0,0,0,.11-.02.227.227,0,0,0,.076-.062.314.314,0,0,0,.048-.108A.258.258,0,0,0,21.5,18.364Zm-1.5.722a.733.733,0,0,1-1.036-.343,1.2,1.2,0,0,1,.414-1.25.735.735,0,0,1,1.035.343A1.194,1.194,0,0,1,20,19.086Zm.063-1.138a.3.3,0,0,0-.33-.217.324.324,0,0,0-.14.059.53.53,0,0,0-.131.146,1.031,1.031,0,0,0-.112.243,1.016,1.016,0,0,0-.055.259.561.561,0,0,0,.018.193.309.309,0,0,0,.076.132.3.3,0,0,0,.259.085.312.312,0,0,0,.14-.062.565.565,0,0,0,.135-.152,1.085,1.085,0,0,0,.1-.232,1.018,1.018,0,0,0,.055-.261A.554.554,0,0,0,20.06,17.948Zm-1.629-.673-.116.3.573.222-.121.312-.574-.222-.266.689-.345-.133.624-1.614.964.373-.121.312Zm-1.783-.765-.126.271.567.263-.141.3-.567-.263-.18.388.61.283-.141.3-.946-.439.729-1.569.946.439-.141.3Zm-.882-.432-.643,1.239-.33-.171.643-1.239-.4-.207.154-.3,1.129.586-.154.3Zm-1.624.563a.757.757,0,0,1-.828-.482.685.685,0,0,1,.107-.505l.556-.955.323.188-.543.933a.465.465,0,0,0-.081.264.234.234,0,0,0,.132.179.24.24,0,0,0,.219.029.455.455,0,0,0,.192-.2l.543-.933.323.188-.555.954A.686.686,0,0,1,14.142,16.641Zm-.828-1.97-.759,1.171-.312-.2L13,14.469l-.378-.245.182-.281,1.068.692-.182.281ZM12.364,14l-.644.912.193.136-.177.251-.69-.487.177-.251.193.136.644-.912-.193-.136.177-.251.69.487-.177.251Zm-.956-.66-.849,1.107-.3-.226.849-1.107-.357-.274.2-.266,1.01.774-.2.266Zm-.86-.479a.74.74,0,0,0-.073-.245.628.628,0,0,0-.161-.209.57.57,0,0,0-.076-.054.317.317,0,0,0-.086-.035.172.172,0,0,0-.084,0,.142.142,0,0,0-.107.153.438.438,0,0,0,.083.157l.092.127a1.4,1.4,0,0,1,.088.14.521.521,0,0,1,.073.293.5.5,0,0,1-.127.274.529.529,0,0,1-.406.2.714.714,0,0,1-.478-.193,1.151,1.151,0,0,1-.215-.23,1.425,1.425,0,0,1-.129-.234l.267-.318.031.026a.831.831,0,0,0,.088.3.715.715,0,0,0,.172.222.744.744,0,0,0,.073.052.306.306,0,0,0,.084.04.223.223,0,0,0,.087.005.153.153,0,0,0,.113-.154.261.261,0,0,0-.049-.124q-.047-.07-.1-.144a1.142,1.142,0,0,1-.1-.149.531.531,0,0,1-.077-.316.537.537,0,0,1,.133-.282.493.493,0,0,1,.392-.186.694.694,0,0,1,.454.182,1.209,1.209,0,0,1,.194.206,1.154,1.154,0,0,1,.131.218l-.256.305ZM8.4,12.653l.36-1.287-.809.87L7.7,12l1.178-1.267.326.3-.29,1.084.675-.726.25.232L8.658,12.9Zm-.063-2.031-.8.783.166.168-.219.215-.592-.6.219-.215.166.168.8-.783-.166-.168.219-.215.592.6L8.5,10.79Zm-2.354-.434.578-.5L6.2,9.275l-.578.5L5.377,9.49,6.689,8.361l.243.282-.48.413.358.416.48-.413.243.282L6.221,10.47Zm.148-1.68q.005-.038.01-.094a.916.916,0,0,0,0-.12.6.6,0,0,0-.021-.129.346.346,0,0,0-.061-.12.383.383,0,0,0-.115-.1A.36.36,0,0,0,5.783,7.9a.5.5,0,0,0-.2.034.864.864,0,0,0-.23.134.827.827,0,0,0-.191.2.486.486,0,0,0-.076.181.344.344,0,0,0,.009.16.406.406,0,0,0,.066.13.387.387,0,0,0,.1.091.484.484,0,0,0,.127.056.821.821,0,0,0,.111.026l.093.012.024.031L5.3,9.208,5.189,9.16a.761.761,0,0,1-.1-.055,1.077,1.077,0,0,1-.111-.082A.888.888,0,0,1,4.865,8.9a.761.761,0,0,1-.137-.269.626.626,0,0,1-.01-.289.788.788,0,0,1,.129-.292,1.282,1.282,0,0,1,.274-.281,1.269,1.269,0,0,1,.326-.188.835.835,0,0,1,.318-.058.632.632,0,0,1,.283.075.729.729,0,0,1,.236.2,1,1,0,0,1,.091.137.975.975,0,0,1,.058.126.861.861,0,0,1,.033.123q.011.058.017.1l-.331.257ZM5.3,7.353a.538.538,0,0,1-.585.061l-.33.82-.261-.372.294-.686-.1-.141L3.8,7.4l-.213-.3L5.008,6.1l.358.51a1.2,1.2,0,0,1,.112.19.428.428,0,0,1,.037.184.419.419,0,0,1-.049.192A.5.5,0,0,1,5.3,7.353Zm-.171-.47A.243.243,0,0,0,5.1,6.8q-.026-.044-.064-.1l-.077-.11-.381.268.066.094a.891.891,0,0,0,.094.116.2.2,0,0,0,.1.055.226.226,0,0,0,.1,0,.313.313,0,0,0,.106-.052.256.256,0,0,0,.078-.082A.159.159,0,0,0,5.133,6.882ZM3.269,6.6l.242-.271-.284-.452-.35.1-.2-.317,1.748-.471.228.362L3.473,6.927Zm.463-.516.43-.48-.619.18ZM3.488,4.258l-.26.147.307.544-.291.165L2.936,4.57l-.372.21.331.586L2.6,5.531l-.513-.908L3.6,3.771l.513.908-.291.165ZM3.036,3.75A.74.74,0,0,0,3.064,3.5.628.628,0,0,0,3,3.24a.57.57,0,0,0-.049-.079.317.317,0,0,0-.065-.066.172.172,0,0,0-.076-.034.142.142,0,0,0-.158.1.438.438,0,0,0,.015.177L2.7,3.49a1.394,1.394,0,0,1,.026.163.521.521,0,0,1-.047.3.5.5,0,0,1-.224.2A.529.529,0,0,1,2,4.181a.714.714,0,0,1-.364-.365,1.152,1.152,0,0,1-.108-.3A1.425,1.425,0,0,1,1.5,3.254l.37-.188L1.89,3.1a.831.831,0,0,0-.035.307.715.715,0,0,0,.071.272.743.743,0,0,0,.047.076.306.306,0,0,0,.061.07.223.223,0,0,0,.078.039.153.153,0,0,0,.165-.1.261.261,0,0,0,0-.134q-.016-.083-.039-.173a1.144,1.144,0,0,1-.031-.175.531.531,0,0,1,.053-.321A.537.537,0,0,1,2.5,2.759a.493.493,0,0,1,.434-.017.694.694,0,0,1,.346.345,1.209,1.209,0,0,1,.1.266,1.155,1.155,0,0,1,.035.252l-.355.18ZM2.305,1.9l-.272.123.257.569-.305.138-.257-.569-.39.176.277.613-.305.138L.881,2.139l1.577-.712.429.951-.305.138Zm-.2-.683a.5.5,0,0,1-.2.13.591.591,0,0,1-.318.046.591.591,0,0,1-.265-.123l-.512.72L.644,1.569l.446-.6L1.026.811l-.59.233L.3.7,1.909.064l.229.58A1.2,1.2,0,0,1,2.2.855a.428.428,0,0,1-.007.188A.419.419,0,0,1,2.1,1.218ZM1.838.761Q1.823.712,1.8.65L1.749.525,1.316.7,1.358.8a.892.892,0,0,0,.065.135.2.2,0,0,0,.081.076.226.226,0,0,0,.095.023.314.314,0,0,0,.115-.026.256.256,0,0,0,.1-.062.158.158,0,0,0,.04-.1A.243.243,0,0,0,1.838.761Z" transform="translate(1.3 38.876)"/></g></g></svg>